<svg xmlns="http://www.w3.org/2000/svg" viewBox="0 0 103.27 152.42"><defs><style>.cls-1{fill:#231f20}</style></defs><g id="Layer_2" data-name="Layer 2"><g id="Layer_1-2" data-name="Layer 1"><g id="_2-Tone-Black_" data-name="&lt;2-Tone-Black&gt;"><g id="_Shield_" data-name="&lt;Shield&gt;"><path class="cls-1" d="M.1 42.06h103.11V26.34H90.29v-5.09h-3s-6.69.26-11.71-2.71-5.88-5.73-5.9-5.74V8.71H63a11.2 11.2 0 00-21.84 0h-6.69v4.09s-.95 2.81-5.9 5.74-11.7 2.71-11.7 2.71h-4v5.09H0V42m.08 33.93a95.31 95.31 0 003.15 22.33C6.8 112 13.42 124 24 133.75c8.12 7.49 17.49 13.18 27.07 18.55a1.38 1.38 0 001.12-.07 184.17 184.17 0 0019.31-12.16 71.94 71.94 0 0027.1-37.51c3.41-10.86 4.55-22 4.63-33.36V47.03H0c0 8.17-.11 20.73 0 28.9m44.05 7l7.51-23.08 7.5 23.08h24.35L63.77 97.17l7.5 23.08L51.64 106 32 120.25l7.5-23.08L19.86 82.9z"/><path d="M51.93 42.06l.29-42a11.18 11.18 0 00-10.91 8.71h-6.74v4.09s-1 2.81-5.89 5.74S17 21.31 17 21.31h-4v5.08H.1v15.67zM51.71 106l-19.64 14.29 7.5-23.08-19.64-14.27H44.2l7.51-23.08-.09-12.79H.11C.11 55.24 0 67.8.15 76A95.31 95.31 0 003.3 98.3c3.57 13.77 10.18 25.78 20.7 35.49 8.12 7.49 17.49 13.18 27.07 18.55a.67.67 0 00.53 0z" fill="#808285"/><path fill="#fff" d="M83.48 82.9H59.2l-7.5-23.08-7.5 23.08H19.93l19.64 14.27-7.5 23.08 19.63-14.27 19.64 14.27-7.5-23.08L83.48 82.9z"/><path fill="#d1d3d4" d="M51.7 59.82l7.5 23.08h24.28L63.84 97.17l7.5 23.08-19.64-14.27V59.82z"/></g><path class="cls-1" d="M64.71 147.05a2.7 2.7 0 011.27.33 2.34 2.34 0 011 1 2.61 2.61 0 01.35 1.29 2.69 2.69 0 01-.34 1.28 2.46 2.46 0 01-1 1 2.58 2.58 0 01-2.56 0 2.46 2.46 0 01-1-1 2.58 2.58 0 01-.34-1.28 2.5 2.5 0 01.35-1.29 2.34 2.34 0 011-1 2.67 2.67 0 011.27-.33zm0 .43a2.16 2.16 0 00-1.06.28 2 2 0 00-.8.79 2.14 2.14 0 00-.29 1.08 2.17 2.17 0 00.28 1.07 2 2 0 00.8.79 2.12 2.12 0 002.14 0 2 2 0 00.8-.79 2.28 2.28 0 00.28-1.07 2.24 2.24 0 00-.29-1.08 2 2 0 00-.8-.79 2.18 2.18 0 00-1.06-.28zm-1.13 3.58v-2.78h1a2.37 2.37 0 01.71.08.71.71 0 01.35.27.72.72 0 01-.09.93.82.82 0 01-.58.25.9.9 0 01.24.15 3.09 3.09 0 01.41.55l.34.55h-.55l-.24-.44a2.33 2.33 0 00-.47-.65.6.6 0 00-.36-.09H64v1.18zm.45-1.57h.54a.93.93 0 00.53-.11.37.37 0 00.14-.31.34.34 0 00-.07-.22.37.37 0 00-.19-.15 1.5 1.5 0 00-.44 0H64z"/></g></g></g></svg>