<svg width="56" height="72" fill="none" xmlns="http://www.w3.org/2000/svg"><path d="M28 1a5.27 5.27 0 00-5.14 4h-3v1.77s-.42 1.34-2.73 2.68a11.69 11.69 0 01-5.45 1.23h-1.5v2.37H4.1v7.22H28V1zm0 70a74.777 74.777 0 01-9.12-5.61A33.27 33.27 0 016.2 48.19 53.82 53.82 0 014 32.83V22.64h24V71z" fill="#D66027"/><path d="M51.9 20.27H28V1a5.27 5.27 0 015.14 4h3v1.77s.42 1.34 2.73 2.68a11.69 11.69 0 005.45 1.23h1.47v2.37h6.11v7.22zM28 71a74.792 74.792 0 009.12-5.61 33.27 33.27 0 0012.68-17.2A53.82 53.82 0 0052 32.83V22.64H28V71z" fill="#C0511B"/><path d="M13.12 39.03l9.2 6.57-3.52 10.62 9.2-6.57V28.41l-3.51 10.62H13.12z" fill="#fff"/><path d="M37.2 56.22L33.68 45.6l9.2-6.57H31.51L28 28.41v21.24l9.2 6.57z" fill="#F3CFBE"/></svg>