<svg xmlns="http://www.w3.org/2000/svg" viewBox="0 0 444.15 152.39"><defs><style>.cls-1{fill:#fff;}</style></defs><g id="Layer_2" data-name="Layer 2"><g id="Layer_1-2" data-name="Layer 1"><g id="_Full-White_" data-name="&lt;Full-White&gt;"><g id="_Shield_" data-name="&lt;Shield&gt;"><path class="cls-1" d="M.1,42.06H103.21V26.34H90.29V21.25h-3s-6.69.26-11.71-2.71-5.88-5.73-5.9-5.74V8.71H63a11.2,11.2,0,0,0-21.84,0H34.47V12.8s-.95,2.81-5.9,5.74-11.7,2.71-11.7,2.71h-4v5.09H0V42"/><path class="cls-1" d="M.08,75.93A95.31,95.31,0,0,0,3.23,98.26C6.8,112,13.42,124,24,133.75c8.12,7.49,17.49,13.18,27.07,18.55a1.38,1.38,0,0,0,1.12-.07,184.17,184.17,0,0,0,19.31-12.16A71.94,71.94,0,0,0,98.6,102.56c3.41-10.86,4.55-22,4.63-33.36,0-5.92,0-16.24,0-22.17H0c0,8.17-.11,20.73,0,28.9m44.05,7,7.51-23.08,7.5,23.08H83.41L63.77,97.17l7.5,23.08L51.64,106,32,120.25l7.5-23.08L19.86,82.9Z"/></g><path class="cls-1" d="M165.16,91.93c2.88-3.88,4.33-9.48,4.33-16.65V55.84c0-3.23.23-5.44.69-6.58a5,5,0,0,1,3-2.61c.65-.28,1-.66,1-1.16a.89.89,0,0,0-1-.94c-.24,0-.83,0-1.75.12-.67.08-2.48.12-5.38.12a23.57,23.57,0,0,1-3.52-.23,23.33,23.33,0,0,0-2.54-.32.91.91,0,0,0-.75.24,1,1,0,0,0-.29.82c0,.43.23,1,1.36,1.09a5.73,5.73,0,0,1,4.61,2.42c.91,1.43,1.37,3.78,1.37,7V76.13c0,6.78-1.54,11.92-4.57,15.27s-7.68,5-13.82,5c-6.85,0-11.8-2-14.7-6-2.05-2.82-3.09-7.63-3.09-14.29V56.34L130,53.75a12.45,12.45,0,0,1,.74-5.16,4,4,0,0,1,2.86-1.85c1-.18,1.47-.58,1.47-1.2,0-.33-.15-.87-1.16-.87-.37,0-1.06,0-2,.12-1.17.11-1.88.16-2.18.16h-3l-3,0c-.55,0-1.43,0-2.62-.12s-2.07-.08-2.72-.08c-1.44,0-1.74.64-1.74,1.17s.22.9,1.27,1.06c2.25.32,3.76,1,4.49,2s1.11,2.91,1.11,5.65l.08,2.23v20c0,5.49,1,10,2.82,13.43a17.51,17.51,0,0,0,7.92,7.14A27.64,27.64,0,0,0,146.42,100a27.26,27.26,0,0,0,10.88-2.2,18.78,18.78,0,0,0,7.86-5.91"/><path class="cls-1" d="M196.58,49.49c1.21,0,1.6.21,1.73.33s.34.49.34,1.64l0,1v39c0,2.13-.34,3.62-1,4.42s-2,1.33-3.92,1.58c-1,.12-1.51.47-1.51,1s.18,1.09,1.43,1.09c.27,0,1.14-.07,2.66-.23a26.87,26.87,0,0,1,2.77-.12l3.06,0,2.88,0a33.23,33.23,0,0,1,3.5.11,15.76,15.76,0,0,0,2,.24c1.18,0,1.35-.68,1.35-1.09,0-.58-.53-1-1.58-1.13-3.19-.56-4.81-2.27-4.94-5.23l0-1.53V52c0-1.53.24-2,.39-2.15s.58-.4,2-.4h11c2.14,0,3.58.27,4.29.8h0c.7.52,1.23,1.69,1.56,3.48.18,1,.56,1.45,1.21,1.42.5,0,1.09-.35,1.05-1.52q0-.62-.24-2a20,20,0,0,1-.19-3.31c0-2.16-.3-2.72-.53-3s-1.24-.54-2.79-.54h-42.3a2.29,2.29,0,0,0-1.95.67,4.61,4.61,0,0,0-.46,2.51,24.17,24.17,0,0,1-.58,4.61,16.48,16.48,0,0,0-.48,3.07c0,1.09.59,1.28.94,1.3.94,0,1.22-1.25,1.32-1.68.51-2.3,1.23-3.87,2.14-4.68a6.63,6.63,0,0,1,4.45-1.22Z"/><path class="cls-1" d="M287,99.38c.77-.08,1.39-.12,1.87-.12l2.93-.08,2.91,0a30.93,30.93,0,0,1,3.89.15c1.7.27,2.73.34,3.19-.17a1,1,0,0,0,.24-.81c0-.55-.53-.88-1.48-1-2.14-.23-3.6-.86-4.34-1.87S295,92.59,295,89.86v-38a7,7,0,0,1,.79-3.35,2.87,2.87,0,0,1,1.88-1.63l1.61-.35c.94-.2,1.14-.68,1.14-1s-.16-1-1.19-1a11.57,11.57,0,0,0-1.49.16,50.62,50.62,0,0,1-5.86.23,52.3,52.3,0,0,1-5.47-.27,26.17,26.17,0,0,0-2.7-.2c-1,0-1.21.55-1.23.88s.19,1,1.33,1.18a5.5,5.5,0,0,1,3.67,2.21c.67,1.09,1,3,1,5.63V67.74c0,.63-.13,1.05-.36,1.21a4.47,4.47,0,0,1-2.06.27H262.92c-2.1,0-2.6-.25-2.71-.36h0c-.14-.14-.37-.64-.37-2.5V52.29a7.07,7.07,0,0,1,.85-4,5.94,5.94,0,0,1,3.4-1.82c.82-.21,1.24-.59,1.24-1.12s-.18-1.06-1.39-1.06a11.88,11.88,0,0,0-1.68.16,40.13,40.13,0,0,1-5.19.31,64.75,64.75,0,0,1-7.16-.35c-1.07-.13-1.87-.21-2.37-.24a1.36,1.36,0,0,0-1,.29,1,1,0,0,0-.27.73c0,.41.23.94,1.35,1.09,2.15.33,3.66,1,4.48,2s1.24,2.59,1.24,4.8V86.81a32.23,32.23,0,0,1-.62,7.65,3,3,0,0,1-2.18,2.42l-2,.47c-1,.23-1.21.76-1.21,1.17s.16,1,1.23,1c.29,0,1.11,0,2.49-.17,1-.09,1.82-.13,2.47-.13l2.58-.09,3.3,0a39.37,39.37,0,0,1,4.68.17,16.4,16.4,0,0,0,2,.18,1.51,1.51,0,0,0,1.15-.36.94.94,0,0,0,.24-.7c0-.71-.62-1.12-1.72-1.24-2.27-.25-3.84-.91-4.66-2s-1.24-2.93-1.24-5.58V75.25c0-1.43.24-1.94.45-2.11s.86-.39,2.63-.39h23.14c1.77,0,2.12.19,2.19.25s.27.36.27,2V89.41l0,1.54c0,3.9-1.28,6-3.91,6.48-1,.14-1.52.52-1.55,1.11a1,1,0,0,0,.24.75,1.17,1.17,0,0,0,.86.28h.09c.19,0,1-.06,2.74-.19"/><path class="cls-1" d="M402.85,94.83l-.35.1-2.05,1a8.46,8.46,0,0,1-3.93.84,5.84,5.84,0,0,1-4.41-1.62c-.68-.7-1-2.32-1-4.81V70.82h9.06a1.92,1.92,0,0,0,2-1.3l.9-2.25a3.2,3.2,0,0,0,.37-1.08.66.66,0,0,0-.18-.58.56.56,0,0,0-.5-.12,2.56,2.56,0,0,0-1,.51,4.59,4.59,0,0,1-2.53.59h-8.12l.16-6.55c0-1-.44-1.27-.8-1.27s-.71.23-1.71,1.85a34.17,34.17,0,0,1-7,7.75c-.75.63-1.11,1.16-1.11,1.61s.22.84,1.27.84h3.25V90.38c0,6.41,3.12,9.66,9.28,9.66a13.73,13.73,0,0,0,5.89-1.52c2.18-1.06,3.24-2,3.24-3a.64.64,0,0,0-.72-.68"/><path class="cls-1" d="M315.09,67.76a7.85,7.85,0,0,1,5.58,2.56,7.71,7.71,0,0,1,2.58,5.52c0,.83-1.55,1-2.85,1h-13a12.78,12.78,0,0,1,2.56-6.6h0a6.47,6.47,0,0,1,5.17-2.48m14.46,23.85a1.62,1.62,0,0,0-.71.33c-3.29,2.52-6.38,3.8-9.17,3.8a11.16,11.16,0,0,1-8.95-4.49,17.16,17.16,0,0,1-3.67-11.12l0-.63h14.63l2.68.08,2.91,0c1.87,0,2.81-.52,2.81-1.55a10.08,10.08,0,0,0-1-3.28,21.08,21.08,0,0,0-1.95-3.66,12.6,12.6,0,0,0-10.69-5.56,13.86,13.86,0,0,0-10.68,5.2,17.93,17.93,0,0,0-4.54,12.11,17.74,17.74,0,0,0,4.41,12.22,14.11,14.11,0,0,0,10.93,5,17.55,17.55,0,0,0,11-4c1.92-1.49,2.85-2.64,2.85-3.51a.92.92,0,0,0-.25-.7.71.71,0,0,0-.59-.18"/><path class="cls-1" d="M380.07,97.07c-2.57-.43-4.15-1.26-4.69-2.48a12.85,12.85,0,0,1-.72-4.86V43.64l0-1.22h0c0-1-.13-1.55-.41-1.82a.64.64,0,0,0-.4-.16,1.77,1.77,0,0,0-1,.36,18.5,18.5,0,0,1-3.77,1.86l-2.4,1a18.29,18.29,0,0,1-2.42.74c-.8.22-1.21.58-1.21,1.08a.93.93,0,0,0,.65.89,2.65,2.65,0,0,0,.75.09h0l2-.08c1.53,0,2.27,1.1,2.27,3.37V93.27a4.6,4.6,0,0,1-.56,2.59,4.2,4.2,0,0,1-2.24,1.26c-.89.24-1.32.65-1.29,1.21,0,.38.22,1,1.32,1a13.41,13.41,0,0,0,1.53-.2c.56-.08,2.1-.12,4.57-.12l5.47,0a9,9,0,0,1,1.72.12,5,5,0,0,0,1.08.16,1.08,1.08,0,0,0,.81-.29,1.12,1.12,0,0,0,.26-.86c0-.54-.49-.89-1.34-1"/><path class="cls-1" d="M342.75,86c2.11-1.41,5.15-2.31,9-2.68v7.5A5.73,5.73,0,0,1,350.48,95a7.42,7.42,0,0,1-5.33,2.08,5.21,5.21,0,0,1-5.61-5.61A6.38,6.38,0,0,1,342.75,86m20.42,10.5a5.82,5.82,0,0,0-1,.17,5,5,0,0,1-.89.07,2.87,2.87,0,0,1-2.75-1.43,10.92,10.92,0,0,1-.85-5.07V74.88a8.38,8.38,0,0,0-3-6.88c-2-1.61-4.84-2.43-8.45-2.43a12.53,12.53,0,0,0-9.57,3.87c-1.79,1.92-2.7,3.74-2.7,5.41,0,.73.55,1.38,1.64,2a7.35,7.35,0,0,0,3.45.82,1.05,1.05,0,0,0,.81-.29.84.84,0,0,0,.22-.68,5.4,5.4,0,0,0-.29-1.3,10.2,10.2,0,0,1-.5-2.89c0-2.77,1.62-4.11,4.94-4.11a8,8,0,0,1,5.95,2.26c1.07,1.1,1.62,3.13,1.62,6v4.63c-6.43,1-11.07,2.33-13.8,4a8.07,8.07,0,0,0-4.23,7.23A7.15,7.15,0,0,0,336,98a8.72,8.72,0,0,0,6,2c3.22,0,6.75-1.41,10.49-4.21,1.74,2.59,3.72,3.9,5.89,3.9A9.86,9.86,0,0,0,362,99c1.34-.54,2-1.07,2-1.65a.75.75,0,0,0-.19-.61.84.84,0,0,0-.69-.21"/><path class="cls-1" d="M442.88,97.5c-2.06-.32-3.41-.84-4-1.53s-.92-2-.92-3.91V79.6a14.65,14.65,0,0,0-3.5-10.14,11.77,11.77,0,0,0-9.14-3.89c-3.86,0-7.48,2-10.77,5.8V45.12c0-.87,0-1.54,0-2s.08-.79.08-1c0-1-.58-1.11-.92-1.11a2.2,2.2,0,0,0-.94.26l-3.07,1.45a27.75,27.75,0,0,1-5.48,2c-.72.19-1.09.55-1.09,1.05a.83.83,0,0,0,.41.75,1.55,1.55,0,0,0,.68.14h0l2-.11a1.72,1.72,0,0,1,1.35.44c.68.64,1,2,1,4V91.94c0,2.74-.27,3.77-.5,4.15a4.79,4.79,0,0,1-2.7,1.5c-.94.27-1.1.81-1.08,1.21s.2.85,1.23.85c.35,0,.95,0,1.83-.1,1.94-.14,3.46-.21,4.51-.21,3,0,5,0,6,.14,1.2.12,1.9.17,2.19.17,1,0,1.12-.56,1.12-.9,0-.65-.52-1.06-1.55-1.21-2.26-.3-3.68-.82-4.24-1.55s-.85-2.44-.85-5V75.72a5.63,5.63,0,0,1,2.57-4.43,9.28,9.28,0,0,1,5.8-2,8.39,8.39,0,0,1,6.63,2.83A11.37,11.37,0,0,1,432,79.84v13l0,1.22a3.81,3.81,0,0,1-.42,2.22,5.71,5.71,0,0,1-2.37,1.27c-.66.26-1,.61-.94,1s.22,1,1.35,1c.19,0,.6,0,1.25-.1a43.79,43.79,0,0,1,5.07-.21c1.38,0,3.06.06,5,.19q1.46.12,1.95.12c1.14,0,1.31-.6,1.31-.95s-.23-1-1.27-1.12"/><path class="cls-1" d="M132.74,130.08c-2.41-.8-3.94-1.36-4.55-1.66a5,5,0,0,1-1.68-1.43,4.37,4.37,0,0,1-.88-2.72,3.83,3.83,0,0,1,1.35-3,5,5,0,0,1,3.39-1.19,8.52,8.52,0,0,1,4.65,1.33,6.36,6.36,0,0,1,2.76,3.37c.23.68.45,1,.72,1s.51-.12.51-.69a6.86,6.86,0,0,0-.1-.8l-.31-2c-.16-1.06-.25-1.71-.25-1.92a1.21,1.21,0,0,0-.24-.91.4.4,0,0,0-.31-.13.36.36,0,0,0-.3.11l-.27.22a.6.6,0,0,1-.7.1l-1.32-.55a10.29,10.29,0,0,0-9.52,1.37,6.42,6.42,0,0,0-2.34,5.13,6.19,6.19,0,0,0,1.79,4.59,16.13,16.13,0,0,0,6.06,3.2,19.8,19.8,0,0,1,4.94,2.11,4.48,4.48,0,0,1,1.65,3.51,4.71,4.71,0,0,1-1.79,3.71,6.6,6.6,0,0,1-4.4,1.53,7.92,7.92,0,0,1-4.75-1.6,7.35,7.35,0,0,1-2.87-3.94c-.2-.67-.43-1-.71-1a.46.46,0,0,0-.33.11.71.71,0,0,0-.17.55,10.6,10.6,0,0,0,.5,2.48l.48,1.74a9.14,9.14,0,0,0,.35,1.35,1.31,1.31,0,0,0,.5.53,8.15,8.15,0,0,0,2.62,1,14.5,14.5,0,0,0,3.28.43,9.93,9.93,0,0,0,6.75-2.31,7.56,7.56,0,0,0,2.64-5.93c0-3.56-2.41-6.15-7.15-7.7"/><path class="cls-1" d="M146.86,139.18a9.81,9.81,0,0,1,4.43-1.32v3.69a2.77,2.77,0,0,1-.64,2,3.66,3.66,0,0,1-2.61,1,2.57,2.57,0,0,1-2.76-2.76,3.11,3.11,0,0,1,1.58-2.67m10,5.16a3.21,3.21,0,0,0-.48.08,2.51,2.51,0,0,1-.44,0,1.43,1.43,0,0,1-1.36-.7,5.35,5.35,0,0,1-.42-2.49v-7.5a4.06,4.06,0,0,0-1.47-3.34,6.41,6.41,0,0,0-4.1-1.18,6.09,6.09,0,0,0-4.66,1.88,4,4,0,0,0-1.31,2.63c0,.34.27.66.79.93a3.57,3.57,0,0,0,1.67.39.49.49,0,0,0,.38-.13.36.36,0,0,0,.1-.31,2.33,2.33,0,0,0-.14-.63,5.07,5.07,0,0,1-.24-1.42c0-1.36.79-2,2.43-2a3.9,3.9,0,0,1,2.92,1.12,4.26,4.26,0,0,1,.79,3v2.28a19.55,19.55,0,0,0-6.74,1.95,3.9,3.9,0,0,0-2.05,3.5,3.43,3.43,0,0,0,1.09,2.67,4.19,4.19,0,0,0,2.93,1,8.78,8.78,0,0,0,5.12-2.06,3.54,3.54,0,0,0,2.87,1.91,4.73,4.73,0,0,0,1.76-.36c.65-.26.95-.51,1-.79a.33.33,0,0,0-.09-.28.4.4,0,0,0-.32-.09"/><path class="cls-1" d="M177.72,144.69l-.8-.12a1.61,1.61,0,0,1-1.53-1.38l0-.92v-5.16a9.21,9.21,0,0,0-1.24-5.31,5.74,5.74,0,0,0-4.93-2.56c-1.8,0-3.55,1-5.23,2.88v-1.9c0-.28,0-.52,0-.72a.72.72,0,0,0-.12-.55c-.16-.17-.44-.14-.79.05l-.74.37-1,.49a9.59,9.59,0,0,1-2.45.78c-.38.08-.57.24-.57.47a.35.35,0,0,0,.22.36.61.61,0,0,0,.36.1l.82,0a1.3,1.3,0,0,1,1.14.44,3.51,3.51,0,0,1,.31,1.79v8.65a2.87,2.87,0,0,1-.32,1.55,2.53,2.53,0,0,1-1.27.81c-.26.1-.41.26-.42.46a.39.39,0,0,0,.09.3.46.46,0,0,0,.35.12c.12,0,.37,0,.78-.07s1.61-.08,3.63-.08c1,0,1.55,0,1.78,0a7.06,7.06,0,0,0,1,.11c.47,0,.54-.28.54-.45s-.24-.47-.73-.52c-1.67-.1-2.51-.64-2.57-1.66l0-1.54v-7.31a2.63,2.63,0,0,1,1.2-2.07,4.51,4.51,0,0,1,2.78-.92,4.25,4.25,0,0,1,3.41,1.41,6.09,6.09,0,0,1,1.21,4v6.6c0,.75-.23,1.17-.69,1.29l-.57.15a.47.47,0,0,0-.43.47.4.4,0,0,0,.19.38l.31.07.56,0h.73l1.89,0a23,23,0,0,1,2.32.08,6.13,6.13,0,0,0,.75.07.81.81,0,0,0,.62-.19.4.4,0,0,0,.11-.33c0-.25-.22-.41-.62-.46"/><path class="cls-1" d="M291.69,144.72l-.88-.09a1.64,1.64,0,0,1-1.18-.55,3.68,3.68,0,0,1-.28-1.77V129.4c0-.44-.19-.55-.35-.56h0l-1.05.49a20.08,20.08,0,0,1-2.72,1.22c-.7.22-1,.42-1,.65a.32.32,0,0,0,.07.23,1,1,0,0,0,.73.18c.64,0,1.06.14,1.24.43a4.46,4.46,0,0,1,.29,2v8.34a4.26,4.26,0,0,1-.23,1.63,1.27,1.27,0,0,1-.79.67l-.37.11a.52.52,0,0,0-.41.51c0,.21.11.46.62.46.13,0,.37,0,.71-.06a3.7,3.7,0,0,1,.58-.06l1.4-.08,1.23,0c.55,0,1,0,1.33,0,.63.06,1,.09,1.26.09.49,0,.61-.23.62-.42s-.24-.52-.76-.59"/><path class="cls-1" d="M282.27,144.69l-.81-.12a1.59,1.59,0,0,1-1.52-1.38l-.06-.92,0-.57v-4.59a9.29,9.29,0,0,0-1.24-5.31,5.77,5.77,0,0,0-4.93-2.56c-1.8,0-3.56,1-5.23,2.88v-1.9c0-.28,0-.52,0-.72a.72.72,0,0,0-.13-.55c-.16-.17-.44-.14-.78.05l-.75.37-1,.49a9.71,9.71,0,0,1-2.45.78c-.39.08-.58.24-.58.47a.37.37,0,0,0,.22.36.63.63,0,0,0,.36.1l.82,0a1.32,1.32,0,0,1,1.15.44,3.65,3.65,0,0,1,.3,1.79v8.65a2.88,2.88,0,0,1-.31,1.55,2.62,2.62,0,0,1-1.27.81c-.27.11-.41.26-.43.46a.43.43,0,0,0,.09.3.49.49,0,0,0,.36.12c.12,0,.36,0,.78-.07s1.61-.08,3.62-.08c1,0,1.56,0,1.79,0a7,7,0,0,0,1,.11c.47,0,.54-.28.54-.45s-.24-.47-.72-.52c-1.67-.1-2.51-.64-2.57-1.66l0-1.54v-7.31a2.59,2.59,0,0,1,1.2-2.07,4.46,4.46,0,0,1,2.77-.92,4.29,4.29,0,0,1,3.42,1.41,6.09,6.09,0,0,1,1.2,4v6.6c0,.75-.22,1.17-.69,1.29l-.57.15a.46.46,0,0,0-.42.47.42.42,0,0,0,.18.38l.31.07.56,0h.73l1.89,0a22.74,22.74,0,0,1,2.32.08,6.42,6.42,0,0,0,.76.07.78.78,0,0,0,.61-.19.41.41,0,0,0,.12-.33c0-.25-.23-.41-.62-.46"/><path class="cls-1" d="M258.26,138.63a7.4,7.4,0,0,1-1.35,4.68,4.42,4.42,0,0,1-3.66,1.7,5.38,5.38,0,0,1-4.46-2.42,10,10,0,0,1-1.81-6.06,7,7,0,0,1,1.44-4.59,4.68,4.68,0,0,1,3.78-1.73,5.19,5.19,0,0,1,4.36,2.33,10.18,10.18,0,0,1,1.7,6.09m-5.57-9.39a8.44,8.44,0,0,0-6.11,2.47,8.14,8.14,0,0,0-2.52,6,8,8,0,0,0,2.38,6A8.3,8.3,0,0,0,252.5,146a8.54,8.54,0,0,0,6.21-2.41,8.15,8.15,0,0,0,2.47-6.08,7.93,7.93,0,0,0-2.5-5.84,8.33,8.33,0,0,0-6-2.45"/><path class="cls-1" d="M288.05,121.33c-.29,0-.67.27-1.16.82a2.3,2.3,0,0,0-.73,1.3,2.27,2.27,0,0,0,.66,1.28c.44.54.8.8,1.09.8s.68-.27,1.16-.82a2.21,2.21,0,0,0,.68-1.3.92.92,0,0,0-.21-.53l-.46-.74c-.35-.55-.68-.81-1-.81"/><path class="cls-1" d="M201.11,133.12c0,.25-.29.38-.86.38h-5.78l-.52,0c-.78,0-.78-.3-.78-.4a2,2,0,0,1,.24-.67l3.73-8.3c.13-.29.21-.3.21-.3s.23.09.41.57l3.16,8,.1.34h0a1.65,1.65,0,0,1,.09.41m10.39,11.55a5,5,0,0,1-2.36-.87,9.13,9.13,0,0,1-1.48-2.85l-.42-1L199,118.81c-.16-.42-.36-.62-.62-.62s-.46.2-.64.63L187.9,140.7l-.55,1.26a9,9,0,0,1-1.07,1.68c-.52.65-.82.85-1,.9l-.71.21a.5.5,0,0,0-.4.51c0,.16.08.45.62.45,0,0,.1,0,1.08-.11.19,0,.48,0,.85,0,.78,0,1.49,0,2.11.05l1.84.11.66,0a.76.76,0,0,0,.54-.16.32.32,0,0,0,.09-.27c0-.27-.24-.45-.67-.54a4.11,4.11,0,0,1-1.73-.67,1.56,1.56,0,0,1-.42-1.23A8.23,8.23,0,0,1,190,140l1.25-2.82a3.94,3.94,0,0,1,.89-1.49,3.66,3.66,0,0,1,1.7-.21h6.94a2.8,2.8,0,0,1,1.24.14c.1.07.28.32.6,1.17l1,2.54a14.74,14.74,0,0,1,1.16,4,1.06,1.06,0,0,1-.88,1.21l-.59.14c-.46.08-.56.31-.56.49s.08.49.6.49a3.9,3.9,0,0,0,.61-.08,29.39,29.39,0,0,1,3.32-.11c1.68,0,2.87,0,3.53.09l.74,0c.5,0,.62-.22.64-.41s-.21-.49-.66-.57"/><path class="cls-1" d="M307.64,138.63a7.46,7.46,0,0,1-1.35,4.68,4.42,4.42,0,0,1-3.66,1.7,5.38,5.38,0,0,1-4.46-2.42,10,10,0,0,1-1.81-6.06,7,7,0,0,1,1.44-4.59,4.68,4.68,0,0,1,3.78-1.73,5.17,5.17,0,0,1,4.35,2.33,10.18,10.18,0,0,1,1.71,6.09m-5.57-9.39a8.44,8.44,0,0,0-6.11,2.47,8.14,8.14,0,0,0-2.52,6,8,8,0,0,0,2.38,6,8.3,8.3,0,0,0,6.05,2.34,8.55,8.55,0,0,0,6.22-2.41,8.15,8.15,0,0,0,2.47-6.08,7.93,7.93,0,0,0-2.5-5.84,8.34,8.34,0,0,0-6-2.45"/><path class="cls-1" d="M231.39,144.69l-.8-.12a1.61,1.61,0,0,1-1.53-1.38l-.05-.92,0-.57v-4.59a9.21,9.21,0,0,0-1.25-5.31,5.74,5.74,0,0,0-4.93-2.56c-1.8,0-3.55,1-5.22,2.88v-1.9c0-.28,0-.52,0-.72a.72.72,0,0,0-.12-.55c-.16-.17-.44-.14-.79.05l-.74.37-1,.49a9.59,9.59,0,0,1-2.45.78c-.38.08-.57.24-.57.47a.37.37,0,0,0,.22.36.61.61,0,0,0,.36.1l.82,0a1.28,1.28,0,0,1,1.14.44,3.51,3.51,0,0,1,.31,1.79v8.65a2.87,2.87,0,0,1-.32,1.55,2.46,2.46,0,0,1-1.27.81c-.26.11-.4.26-.42.46a.39.39,0,0,0,.09.3.48.48,0,0,0,.35.12c.12,0,.38,0,.79-.07s1.6-.08,3.62-.08c1,0,1.55,0,1.79,0a7,7,0,0,0,1,.11c.47,0,.54-.28.54-.45s-.24-.47-.73-.52c-1.66-.1-2.51-.64-2.57-1.66l0-1.54v-7.31a2.59,2.59,0,0,1,1.2-2.07,4.46,4.46,0,0,1,2.77-.92,4.29,4.29,0,0,1,3.42,1.41,6.09,6.09,0,0,1,1.2,4v6.6c0,.75-.22,1.17-.69,1.29l-.57.15a.46.46,0,0,0-.42.47.41.41,0,0,0,.18.38l.31.07.56,0h.73l1.89,0a23,23,0,0,1,2.32.08,6.09,6.09,0,0,0,.76.07.8.8,0,0,0,.61-.19.4.4,0,0,0,.11-.33c0-.25-.22-.41-.62-.46"/><path class="cls-1" d="M243.45,143.52l-.16,0-1,.48a4,4,0,0,1-1.92.41,2.85,2.85,0,0,1-2.17-.79,3.65,3.65,0,0,1-.51-2.36v-9.54h4.44a.91.91,0,0,0,.93-.62l.44-1.1a1.59,1.59,0,0,0,.18-.52.3.3,0,0,0-.08-.27.26.26,0,0,0-.22-.05,1.24,1.24,0,0,0-.46.25,2.29,2.29,0,0,1-1.25.29h-4l.07-3.22c0-.49-.2-.59-.36-.59s-.34.1-.82.89a16.64,16.64,0,0,1-3.41,3.78c-.36.31-.53.56-.53.77s.1.39.6.39h1.6v9.56c0,3.12,1.52,4.69,4.51,4.69a6.54,6.54,0,0,0,2.86-.74c1.06-.51,1.57-1,1.57-1.45,0-.19-.12-.3-.33-.3"/><path class="cls-1" d="M64.71,147.05a2.7,2.7,0,0,1,1.27.33,2.34,2.34,0,0,1,1,1,2.61,2.61,0,0,1,.35,1.29,2.69,2.69,0,0,1-.34,1.28,2.46,2.46,0,0,1-1,1,2.58,2.58,0,0,1-2.56,0,2.46,2.46,0,0,1-1-1,2.58,2.58,0,0,1-.34-1.28,2.5,2.5,0,0,1,.35-1.29,2.34,2.34,0,0,1,1-1A2.67,2.67,0,0,1,64.71,147.05Zm0,.43a2.16,2.16,0,0,0-1.06.28,2,2,0,0,0-.8.79,2.14,2.14,0,0,0-.29,1.08,2.17,2.17,0,0,0,.28,1.07,2,2,0,0,0,.8.79,2.12,2.12,0,0,0,2.14,0,2,2,0,0,0,.8-.79,2.28,2.28,0,0,0,.28-1.07,2.24,2.24,0,0,0-.29-1.08,2,2,0,0,0-.8-.79A2.18,2.18,0,0,0,64.71,147.48Zm-1.13,3.58v-2.78h1a2.37,2.37,0,0,1,.71.08.71.71,0,0,1,.35.27.72.72,0,0,1-.09.93.82.82,0,0,1-.58.25.9.9,0,0,1,.24.15,3.09,3.09,0,0,1,.41.55l.34.55h-.55l-.24-.44a2.33,2.33,0,0,0-.47-.65.6.6,0,0,0-.36-.09H64v1.18Zm.45-1.57h.54a.93.93,0,0,0,.53-.11.37.37,0,0,0,.14-.31.34.34,0,0,0-.07-.22.37.37,0,0,0-.19-.15,1.5,1.5,0,0,0-.44,0H64Z"/></g></g></g></svg>