<svg width="202" height="170" viewBox="0 0 202 170" fill="none" xmlns="http://www.w3.org/2000/svg">
<path d="M50.8609 170C35.6026 170 23.3113 164.714 13.9868 154.142C4.66225 143.147 0 128.557 0 110.373C0 87.1144 6.78145 65.3358 20.3444 45.0373C33.9073 24.7388 50.649 9.72637 70.5695 0L76.9271 10.7836C68.4503 17.5497 60.8212 25.796 54.0397 35.5224C47.6821 45.2487 42.596 57.0895 38.7814 71.0448L52.1324 74.8507C65.6954 79.0796 76.2914 85.4229 83.9205 93.8806C91.9735 102.338 96 112.699 96 124.963C96 138.495 91.5497 149.49 82.649 157.948C73.7483 165.983 63.1523 170 50.8609 170Z" fill="#216D85"/>
<path d="M119.987 154.142C129.311 164.714 141.603 170 156.861 170C169.152 170 179.748 165.983 188.649 157.948C197.55 149.49 202 138.495 202 124.963C202 112.699 197.974 102.338 189.921 93.8806C182.291 85.4229 171.695 79.0796 158.132 74.8507L144.781 71.0448C148.596 57.0895 153.682 45.2487 160.04 35.5224C166.821 25.796 174.45 17.5497 182.927 10.7836L176.57 0C156.649 9.72637 139.907 24.7388 126.344 45.0373C112.781 65.3358 106 87.1144 106 110.373C106 128.557 110.662 143.147 119.987 154.142Z" fill="#216D85"/>
</svg>
