<svg width="272" height="32" fill="none" xmlns="http://www.w3.org/2000/svg"><path fill-rule="evenodd" clip-rule="evenodd" d="M78.447 6.552c.09.076 3.824.07 8.298-.013 4.474-.082 9.7-.126 11.61-.096 5.118.078 6.323.048 6.684-.164.178-.106.401-.128.495-.049.221.185 3.553.266 9.817.237 2.745-.012 5.104.035 5.242.106.138.07 1.519.172 3.068.225 1.549.052 2.865.2 2.924.33.059.128.414.125.789-.007.61-.214 1.422-.26 3.122-.174.38.02.485.178.35.526-.181.465-.156.463.361-.023.457-.43.875-.501 2.339-.404.981.066 2.457.083 3.281.04.924-.05 1.501.04 1.507.237.007.213.346.24 1.029.08.561-.13 1.162-.228 1.336-.217.174.01 1.382.012 2.684.003 1.303-.009 2.5.045 2.661.118.355.163 1.323.22 5.248.312 1.651.039 3.43.108 3.952.154 2.277.2 4.916.32 7.116.323 1.303.002 3.154.127 4.114.277 1.785.278 5.634.47 7.565.378.592-.029 1.198.108 1.346.304.22.289.269.286.264-.014-.006-.346.734-.355 3.162-.037 1.823.239 3.57.39 5.066.44.957.033 2.522.105 3.479.16.957.057 2.665.13 3.795.162s2.055.075 2.056.097c.001.04.484.137 1.705.339.413.069 1.837.172 3.165.23 2.602.114 3.68.192 3.683.266 0 .026.855.08 1.898.119 3.032.115 4.313.212 6.173.467.959.131 2.527.29 3.485.354l2.985.199c.685.046 1.387.201 1.559.346.203.17.518.159.889-.032a1.308 1.308 0 011.159-.039c.322.142 1.356.261 2.298.266.942.004 2.071.115 2.51.247.438.132 1.294.259 1.903.282 2.603.099 4.932.363 5.28.598.235.159.443.149.556-.027.118-.181.545-.195 1.211-.039.567.133 1.797.28 2.734.325.938.046 1.832.15 1.988.23.155.08.885.18 1.621.224 1.876.112 3.04.248 4.51.529.699.133 1.517.166 1.819.074.301-.092.551-.064.555.062.004.127.418.23.92.23.501 0 1.179.09 1.505.198.327.109 1.331.202 2.234.208.901.005 1.836.146 2.077.312.24.167.714.302 1.053.3 1.973-.013 3.677.15 4.027.386.22.148.865.343 1.432.433.567.09 1.035.25 1.038.353.005.104.469.204 1.034.222 1.736.057 2.298.206 2.209.586-.062.265.024.28.318.056.563-.431 2.284-.197 3.071.417.363.283.889.508 1.17.499.691-.021 2.509 1.522 2.087 1.771-.179.107-.233.432-.119.724.229.586-.089 1.309-.413.937-.113-.13-.529-.385-.925-.567-.636-.294-.719-.27-.705.2.009.298-.264.606-.623.701-.538.143-.608.073-.442-.445.109-.338.421-.79.694-1.004.433-.34.396-.367-.29-.207-.431.1-.886.186-1.01.192-.125.006-.139.198-.033.427.108.23.038.421-.154.427-.192.006-.353-.112-.358-.262-.004-.15-.233-.187-.508-.084-.275.104-.631.016-.791-.195-.237-.313-.289-.299-.281.078.005.254-.237.563-.537.686-.819.337-3.197.324-3.692-.02-.328-.227-.557-.187-.928.166-.398.377-.495.39-.505.068-.007-.219-.291-.609-.631-.866-.601-.456-.609-.44-.321.57.223.78.186 1.143-.149 1.46-.598.568-1.38.286-1.411-.508-.016-.44-.102-.525-.27-.273-.143.215-.483.296-.811.195-.31-.096-.654-.035-.764.134-.226.349-2.573-.112-2.585-.508-.004-.126.122-.162.28-.082.158.081.364-.047.458-.285.139-.352.057-.374-.444-.116-.338.175-.618.23-.621.123-.003-.107-.283.044-.621.334-.554.476-.617.482-.63.063a.471.471 0 00-.488-.45c-.26.007-.79-.252-1.178-.577-.457-.383-.632-.437-.5-.153.292.623-.049.828-.604.363-.616-.516-1.06-.487-1.043.069.008.245-.166.395-.384.333-.22-.062-.37-.402-.336-.755.056-.568.005-.595-.449-.237-.463.365-.501.316-.391-.507.097-.73.041-.848-.283-.592-.244.192-.321.588-.193.996.199.629.135.674-.921.642-1.141-.033-1.6-.428-1.321-1.135.083-.21-.06-.529-.319-.708-.389-.27-.501-.178-.654.538-.141.66-.358.87-.915.886-.782.024-1.266-.573-.812-1.003.162-.154.001-.403-.393-.607-.366-.19-.569-.212-.448-.05.128.174-.043.305-.413.316-.347.01-.722-.105-.834-.256-.413-.56-.804-.238-.579.476.175.556.124.706-.212.619-.243-.063-.496-.443-.562-.844-.121-.733-.919-1.522-1.236-1.222-.094.089.08.482.386.873.335.428.417.716.205.722-.193.006-.355-.089-.358-.21-.004-.122-.444-.238-.978-.258-.596-.022-.892.072-.764.245.319.43-.331.352-.773-.095-.214-.216-.575-.323-.803-.237-.228.085-.499.04-.604-.102-.105-.14-.53-.188-.946-.104-.415.084-.855.017-.978-.149-.286-.387-2.397-.33-2.385.063.005.164-.151.216-.346.117-.254-.13-.248-.246.021-.405.52-.307-.091-.596-1.713-.81-.916-.12-1.388-.054-1.698.24-.599.568-1.121.525-.889-.073.178-.457.153-.46-.303-.033-.577.542-1.719.459-2.595-.188-.827-.61-1.502-.694-1.251-.156.11.236.062.432-.106.437a.31.31 0 01-.315-.303c-.006-.205-.388-.237-1.108-.094-.954.19-1.101.145-1.116-.336-.018-.584-1.595-1.814-1.91-1.49-.1.105-.003.24.216.303s.405.344.414.627c.021.694-1.077.468-1.496-.309l-.313-.58-.624.592c-.562.534-.709.556-1.471.228-.74-.318-.845-.31-.834.067.008.243-.261.439-.617.45-.347.01-.635-.107-.64-.262-.005-.155-.364-.27-.797-.257-.434.013-.794-.116-.799-.287-.005-.172-.203-.239-.439-.15-.259.097-.419-.014-.403-.28.015-.267-.256-.454-.688-.473-.655-.029-.676.016-.258.55.419.535.396.58-.294.574-.412-.004-.846-.088-.965-.187-.118-.1-.386-.046-.595.118-.51.402-2.127-.191-1.924-.706.18-.457-.209-.482-.672-.044-.24.228-.518.237-.978.035-.5-.22-.679-.19-.809.14-.091.232-.428.43-.748.44-.823.025-2.455-1.47-2.229-2.042.113-.287.056-.385-.153-.262-.183.11-.252.447-.153.75.216.661-.012 1.35-.45 1.363-.174.006-.24-.182-.147-.417.189-.48-.606-.578-.907-.113-.103.157-.427.284-.721.28-.329-.003-.384-.064-.144-.159.214-.085.372-.428.349-.763-.039-.59-.049-.59-.294-.038-.14.314-.269.406-.288.204-.018-.202-.173-.285-.344-.184-.17.1-.319.018-.331-.185-.013-.222-.202-.14-.48.208-.393.494-.503.518-.771.165-.172-.227-.255-.566-.184-.753.073-.197-.054-.274-.301-.18-.51.191-.844.921-.583 1.274.242.328-.238.332-1.292.01-.56-.171-.794-.404-.683-.683.092-.233.029-.42-.139-.414-.168.005-.302.128-.297.273.017.578-1.34.184-1.647-.478-.259-.56-.373-.612-.598-.271-.153.232-.19.65-.083.929.171.443.062.489-.864.357-.583-.082-1.312-.14-1.619-.129-.307.012-.48-.1-.384-.249.097-.148-.034-.263-.29-.255-.256.008-.521.174-.588.37-.095.277-.239.274-.657-.014-.294-.202-.82-.293-1.168-.2-.349.093-.841-.005-1.094-.217-.282-.237-.531-.275-.644-.1-.252.388-1.694.298-2.12-.133-.262-.264-.181-.354.335-.37.612-.018.639-.083.27-.641-.355-.537-.425-.554-.512-.125-.055.273-.364.504-.686.514-.322.01-.768.19-.991.401-.224.212-1.253.44-2.304.51-1.628.109-2.031.032-2.827-.54-.85-.611-2.017-.689-1.586-.106.1.136.043.25-.126.256-.169.005-.384-.147-.478-.337-.136-.278-.173-.277-.184.005-.022.551-2.132.508-2.507-.05-.257-.383-.401-.403-.777-.106-.37.292-.498.293-.638.007-.123-.25-.252-.264-.427-.046-.138.171-.749.317-1.357.322-.934.01-1.094-.08-1.032-.581.04-.326-.16-.754-.444-.951-.456-.316-.49-.275-.291.357.128.408.081.801-.11.914-.185.11-.34.06-.345-.109-.005-.179-.371-.243-.873-.154-.475.085-.863.175-.862.2 0 .026-.406.119-.904.206-.798.141-.886.089-.746-.448.147-.565.119-.575-.383-.144-.674.579-1.276.617-1.293.082-.007-.223-.181-.491-.388-.597-.252-.13-.304-.04-.159.27.159.34.042.467-.444.482-.524.016-.588-.062-.312-.378.28-.32.192-.393-.446-.373-.464.014-.79.185-.783.41.016.519-.502.51-.746-.011-.107-.23-.376-.401-.599-.382-.315.027-.317.062-.004.164.219.072.402.25.407.398.005.158-.254.152-.632-.014-.353-.155-.638-.179-.634-.052.017.542-1.728.363-2.741-.281-1.035-.658-1.077-.663-1.06-.11.022.727-1.071.82-1.55.133-.187-.268-.336-.326-.336-.13.001.204-.41.364-.979.382-.676.02-.935-.086-.834-.342.191-.482-2.011-.578-2.321-.1a.465.465 0 01-.59.145c-.272-.14-.282-.294-.038-.573.201-.229.215-.444.035-.536-.165-.085-.37.115-.455.443l-.155.597-.955-.566c-1.117-.662-1.471-.707-1.212-.154.102.22.018.465-.186.546-.205.082-.096.15.243.152.375.002.502.105.324.264-.161.143-.751.21-1.312.15-.812-.088-1.01-.233-.97-.714.03-.357-.11-.571-.341-.522-.216.045-.399-.076-.408-.27-.011-.234-.113-.207-.309.08-.161.238-.301.305-.311.15-.01-.154-.132-.109-.272.1-.14.21-.838.47-1.552.577-1.098.166-1.401.096-1.971-.453-.609-.588-.654-.596-.481-.082.143.422.031.587-.437.647-.988.124-1.658.138-2.683.055a40.885 40.885 0 00-1.898-.101c-.865-.022-.9-.06-.4-.42.519-.374.513-.402-.095-.525-.415-.083-.639.008-.631.258.007.222-.185.326-.451.244-.255-.079-.634-.042-.841.08-.208.124-.959.218-1.667.21l-2.79-.032c-.952-.01-1.504-.145-1.511-.368-.007-.214-.442-.338-1.115-.318-.607.019-1.1.168-1.095.332.005.164-.142.22-.326.126-.184-.094-.534-.014-.778.178-.306.241-.714.276-1.324.113-.486-.13-1.429-.167-2.096-.084-.856.107-1.151.054-1.001-.178.132-.202.027-.288-.271-.224-.266.057-.72-.143-1.009-.443-.517-.54-.521-.539-.309.08.153.449.079.63-.262.641-.261.008-.574-.118-.693-.28-.12-.161-.414-.22-.654-.13-.243.092-.442-.005-.449-.218-.022-.725-.952-.699-1.462.042-.409.593-.716.714-1.751.692-.707-.016-1.332-.192-1.431-.404-.097-.207-.387-.297-.644-.2-.257.097-.692.022-.966-.166-.43-.293-.471-.253-.297.286.111.345.16.629.11.63-.32.01-1.911-.813-2.15-1.112-.183-.229-.209-.086-.07.385l.218.748-2.763-.024c-1.52-.013-2.908-.145-3.085-.293-.177-.149-.421-.738-.544-1.31-.123-.572-.403-1.088-.622-1.146-.307-.081-.319.07-.05.651.194.416.283.821.2.9-.083.079-.002.376.18.66.257.399.223.519-.153.53-.266.008-.488-.104-.492-.249-.004-.145-.256-.242-.56-.216-.302.026-.858-.033-1.233-.13-.41-.107-.85-.028-1.1.196-.674.606-1.643.475-2.069-.279l-.39-.692-.002.784c-.001.78-.01.783-1.82.703-1-.044-2.483-.066-3.296-.049-1.23.026-1.517-.07-1.713-.57-.209-.535-.267-.549-.516-.123-.219.372-.418.417-.903.204-.429-.188-.62-.183-.615.017.005.16-.204.297-.464.305-.26.008-.47.137-.465.285.013.432-5.885.338-6.525-.104-.443-.305-.564-.305-.67.004-.094.275-.356.208-.973-.252-.464-.345-.643-.41-.399-.142.552.602.242.968-.426.505-.4-.278-.491-.27-.49.045.001.26-.154.213-.475-.142-.262-.29-.568-.441-.68-.335-.111.106-.41-.021-.663-.282-.337-.348-.501-.379-.614-.116a.403.403 0 01-.527.203c-.205-.086-.026.08.397.368.497.338.648.596.426.727-.189.112-.667-.109-1.062-.49-.764-.737-1.742-.93-1.44-.284.175.376-.288 1.029-.74 1.043-.128.004-.303-.276-.39-.622-.156-.615-.164-.616-.361-.04-.183.534-.425.59-2.627.602-1.334.007-2.462-.012-2.507-.043-.244-.171-2.875-.041-3.507.173-.473.161-.911.134-1.21-.074-.312-.216-.538-.226-.673-.03-.376.54-1.572.671-2.01.218-.359-.37-.338-.409.137-.266.346.104.554.034.547-.186-.02-.629-1.201-.439-1.383.223-.143.518-.223.552-.494.206-.178-.227-.321-.268-.319-.09.008.481-.895.727-1.574.428-.343-.151-.668-.154-.764-.006-.2.308-2.728.305-3.332-.004-.283-.145-.348-.112-.193.098.151.204-.024.32-.493.326-.7.01-2.93.308-2.927.392 0 .022-.672.1-1.495.174-.823.074-1.5.053-1.503-.047-.003-.1-.645-.173-1.426-.162-1.045.013-1.416.126-1.407.427.008.268-.202.366-.608.285-.34-.069-.682.022-.758.201-.076.18-.157.097-.179-.185-.037-.465-.084-.47-.522-.054-.455.43-.773.5-3.117.69-.52.042-1.25.173-1.622.29-.372.118-.768.09-.88-.062-.13-.175-.477-.174-.953.004-.522.194-.799.178-.913-.053-.09-.183-.169-.112-.174.16-.006.271-.116.5-.247.51-.994.076-2.847.466-3.294.694-.444.226-.55.159-.569-.365-.02-.518-.082-.559-.318-.211-.24.355-.295.361-.31.033-.009-.22-.104-.316-.21-.215-.107.101-.463.066-.792-.08-.69-.302-.708-.251-.26.714.257.557.232.715-.118.726-.246.008-.534-.105-.641-.25-.219-.295-1.16-.029-1.473.418-.112.16-.586.349-1.052.419-.466.07-1.044.314-1.285.543-.353.334-.56.352-1.064.091-.345-.178-.63-.409-.632-.512-.008-.26-.653-.12-1.49.322-.533.282-.702.29-.71.035-.006-.2-.258-.121-.628.196-.915.786-1.14.315-.432-.907.478-.824.547-1.23.301-1.76-.22-.475-.21-.726.03-.805.193-.064.475-.436.628-.826.152-.39.548-.782.878-.87.33-.088.666-.324.745-.524.158-.4 5.9-2.216 6.423-2.033.069.024.23-.118.357-.316.129-.197 1.553-.621 3.165-.941 1.612-.321 3.285-.668 3.715-.772.432-.104 1.563-.284 2.515-.399.952-.115 2.003-.29 2.337-.388.334-.098 1.395-.24 2.36-.316.963-.075 2.104-.23 2.535-.346.43-.115 1.988-.29 3.462-.388 1.473-.099 2.678-.198 2.678-.22-.001-.021.6-.107 1.336-.19.82-.09 1.341-.031 1.347.154.006.205.148.194.44-.036.236-.187 1.58-.395 2.986-.462 1.405-.068 2.553-.194 2.55-.28-.002-.086 2.302-.26 5.12-.388 2.82-.128 5.339-.244 5.599-.26.26-.014 1.397-.01 2.527.01 1.13.021 2.406-.052 2.837-.162.431-.11 1.248-.122 1.815-.027.568.095 1.029.068 1.025-.06-.004-.128.385-.175.865-.104 1.23.182 12.307-.11 13.719-.362.643-.115 1.242-.147 1.333-.072zm-27.728 6.603c0 .111.203.126.45.034a.43.43 0 00.254-.586c-.158-.34-.242-.345-.45-.034-.14.211-.255.475-.254.586zm60.539-2.266a9.863 9.863 0 01-.108.708c-.05.273.02.431.155.352.37-.22.585-1.291.257-1.28-.157.004-.294.103-.304.22zm-36.58 1.032c.003.069.15.198.326.289.176.09.316.03.311-.134a.308.308 0 00-.324-.289c-.174.006-.314.066-.312.134zm12.495.62c-.103.158-.036.282.148.277.183-.006.33-.137.325-.292-.005-.154-.071-.279-.148-.277-.076.003-.223.134-.325.292zm27.621-.44c.002.068.148.198.324.288.177.09.317.03.312-.133-.005-.164-.151-.294-.325-.289-.173.006-.313.066-.311.134zm-1.807.101c.108.09.381.092.606.004.249-.097.172-.162-.196-.164-.333-.002-.517.07-.41.16zm-1.186.148c-.102.158.043.28.324.272.281-.009.419-.14.307-.291-.112-.152-.258-.274-.324-.272-.066.002-.204.133-.307.291zm-3.314.069c.004.136.329.31.722.386.691.133.694.124.09-.252-.729-.453-.822-.47-.812-.134zm11.364-.191c.002.068.148.198.324.288.177.09.317.03.312-.134-.005-.163-.151-.293-.325-.288-.173.006-.313.066-.311.134zm14.609-.12c.108.09.381.092.606.004.249-.098.172-.162-.196-.164-.333-.002-.517.07-.41.16zm-3.425 1.114c.108.221.18.152.185-.176.005-.297-.075-.46-.177-.364-.101.097-.105.34-.008.54zM20.188 16.703c.022.708.517.661.561-.053.025-.404-.087-.623-.265-.518-.169.1-.302.357-.296.571zm131.105-3.872c-.102.158-.035.282.148.277.184-.006.33-.137.326-.292-.005-.155-.071-.28-.148-.277-.077.002-.223.134-.326.292zm-17.399.687c-.089.227-.289.417-.444.422-.454.014-.339-.478.155-.664.302-.114.398-.034.289.242zM10.757 17.3c.364.368.35.482-.097.721-.745.4-.678.925.07.54.318-.165.695-.212.836-.106.14.106.154-.035.031-.315s-.229-.689-.236-.908c-.006-.22-.242-.392-.524-.384-.433.014-.445.083-.08.453zm157.544-4.092c.108.22.181.152.186-.176.004-.297-.075-.46-.177-.364-.102.096-.106.34-.009.54zM16.734 17.355c.002.069.148.198.325.288.176.09.317.03.311-.133a.308.308 0 00-.324-.289c-.174.006-.314.066-.312.134zm-.942.186c.005.155.151.277.324.272.174-.005.312-.136.308-.29-.005-.156-.151-.278-.325-.273-.173.006-.311.137-.307.291zm153.363-4.13c.01.309.146.558.303.553.158-.005.204-.26.104-.566-.1-.307-.237-.556-.303-.554-.067.002-.113.257-.104.566zm-1.893.057c.005.155.071.28.148.277.076-.002.223-.133.325-.291.103-.158.036-.283-.148-.277-.183.005-.33.136-.325.291zm2.958.526c.108.22.181.152.186-.176.004-.297-.075-.461-.177-.364-.102.096-.106.34-.009.54zM6.705 19.884c.007.207.225.369.485.361.5-.015.608-.267.246-.57-.358-.3-.743-.19-.73.21zm206.336-2.167c.12.161.151.356.071.432-.08.076-.236-.054-.346-.29-.229-.489-.05-.582.275-.142zm31.122 2.75c.232.195.38.207.374.03a.725.725 0 00-.225-.471c-.118-.1-.287-.114-.374-.03-.087.082.014.294.225.47zm17.78 1.19c.002.059.257.273.567.476.511.334.522.324.116-.11-.426-.456-.69-.597-.683-.366zm-4.606 1.443c.071.618.568.772.55.17-.01-.335-.303-.74-.53-.734-.047.001-.056.255-.02.564z" fill="#171717"/><path d="M1 19.214C13.144 14.57 56.397 6.21 132.257 9.926 208.116 13.64 256.36 19.523 271 22" stroke="red"/></svg>