<svg width="532" height="53" fill="none" xmlns="http://www.w3.org/2000/svg"><path fill-rule="evenodd" clip-rule="evenodd" d="M380.091 16.042c-.177.093-7.525-.076-16.33-.377-8.805-.301-19.087-.584-22.849-.63-10.07-.12-12.442-.21-13.152-.501-.352-.144-.79-.182-.976-.084-.433.229-6.989.188-19.315-.12-5.404-.136-10.046-.177-10.317-.092-.271.085-2.987.155-6.035.156-3.049 0-5.636.135-5.752.298-.115.163-.814.144-1.554-.042-1.201-.303-2.799-.396-6.144-.36-.747.008-.953.208-.685.663.359.606.31.603-.712-.046-.9-.573-1.723-.684-4.604-.622-1.93.042-4.834 0-6.456-.092-1.82-.104-2.954-.012-2.965.24-.011.275-.678.294-2.024.06-1.104-.192-2.287-.345-2.63-.338-.342.006-2.719-.045-5.282-.113-2.564-.068-4.92-.051-5.236.037-.697.194-2.602.226-10.325.174-3.25-.022-6.749-.01-7.777.026-4.479.16-9.672.2-14.001.108-2.564-.054-6.207.026-8.095.177-3.509.282-11.084.363-14.883.159-1.166-.063-2.357.087-2.648.333-.43.363-.527.358-.519-.028.01-.446-1.447-.49-6.222-.186-3.587.228-7.024.348-9.968.348-1.882 0-4.962.025-6.845.056-1.883.03-5.243.05-7.467.042-2.223-.008-4.044.008-4.045.035-.002.054-.953.157-3.352.364-.813.07-3.615.142-6.228.159-5.12.033-7.241.087-7.245.183-.002.033-1.683.065-3.736.07-5.965.017-8.487.087-12.144.334-1.887.128-4.972.265-6.856.306l-5.874.126c-1.347.029-2.727.2-3.066.378-.398.21-1.018.182-1.748-.08a3.822 3.822 0 00-2.281-.1c-.633.168-2.667.277-4.52.242-1.855-.035-4.076.06-4.938.21-.862.151-2.547.277-3.745.28-5.121.015-9.703.254-10.387.542-.46.194-.87.172-1.094-.059-.233-.239-1.072-.275-2.384-.103-1.114.147-3.533.282-5.377.301-1.845.019-3.603.113-3.91.209-.306.096-1.741.194-3.19.219-3.69.063-5.98.188-8.872.485-1.374.142-2.984.15-3.577.017-.594-.132-1.085-.107-1.093.056-.008.163-.821.278-1.809.257-.987-.022-2.32.064-2.96.19-.642.125-2.62.202-4.395.17-1.774-.033-3.613.108-4.085.312-.472.205-1.404.358-2.072.34-3.882-.101-7.234.035-7.922.323-.432.181-1.7.405-2.815.497-1.116.091-2.034.276-2.041.409-.008.133-.922.242-2.032.241-3.417-.002-4.523.166-4.345.66.124.344-.046.36-.625.058-1.11-.58-4.495-.354-6.041.404-.712.35-1.747.616-2.3.592-1.359-.057-4.927 1.853-4.095 2.193.354.144.46.566.238.937-.448.746.184 1.69.819 1.225.22-.161 1.039-.472 1.817-.69 1.25-.35 1.413-.316 1.388.288-.016.385.522.793 1.23.931 1.06.208 1.198.12.866-.554-.216-.44-.832-1.037-1.37-1.324-.854-.458-.783-.49.569-.255.849.148 1.744.28 1.99.292.245.013.274.262.065.552-.21.29-.07.541.307.557.378.016.694-.129.702-.322.009-.192.458-.232 1-.086.541.145 1.242.047 1.555-.218.464-.393.567-.372.554.113-.008.328.469.736 1.06.908 1.614.47 6.293.556 7.267.134.644-.279 1.093-.216 1.826.254.785.503.977.525.995.11.012-.282.567-.772 1.235-1.089 1.18-.56 1.197-.54.636.749-.434.995-.358 1.465.302 1.889 1.18.757 2.718.427 2.773-.595.03-.565.198-.672.53-.339.283.283.952.403 1.597.287.61-.11 1.288-.018 1.505.205.447.46 5.062-.032 5.084-.542.006-.162-.242-.215-.552-.118-.31.098-.717-.077-.903-.388-.276-.46-.114-.484.874-.13.666.24 1.216.323 1.222.186.005-.138.557.068 1.225.458 1.092.636 1.216.647 1.24.108.013-.33.444-.582.956-.56.512.021 1.554-.29 2.315-.691.897-.474 1.242-.536.983-.176-.57.79.102 1.07 1.19.494 1.21-.638 2.084-.582 2.054.134-.014.316.328.516.758.446.431-.07.726-.502.655-.958-.112-.734-.011-.767.883-.286.913.49.988.428.766-.637-.195-.944-.084-1.094.555-.75.481.258.634.772.384 1.291-.386.803-.26.863 1.817.869 2.246.006 3.146-.482 2.592-1.407-.164-.274.116-.678.624-.898.765-.33.985-.208 1.291.722.282.856.71 1.136 1.806 1.182 1.538.065 2.487-.685 1.592-1.258-.32-.206-.005-.52.768-.765.721-.228 1.119-.248.883-.044-.251.218.087.393.813.424.683.029 1.422-.104 1.641-.294.81-.702 1.58-.271 1.142.64-.341.708-.239.904.42.806.48-.071.975-.55 1.103-1.063.233-.94 1.799-1.922 2.425-1.521.185.118-.155.617-.756 1.108-.656.537-.816.904-.4.921.381.017.698-.099.705-.255.007-.157.873-.288 1.923-.29 1.173-.003 1.754.132 1.504.35-.624.54.654.467 1.52-.09.42-.269 1.132-.391 1.58-.27.448.12.983.073 1.188-.105.205-.178 1.042-.22 1.86-.094.819.127 1.684.06 1.925-.149.56-.486 4.715-.322 4.693.185-.008.211.298.285.682.165.499-.156.486-.305-.044-.522-1.025-.42.175-.765 3.367-.97 1.802-.116 2.73-.01 3.341.383 1.183.758 2.21.726 1.75-.055-.352-.597-.303-.599.595-.03 1.14.724 3.387.666 5.107-.129 1.623-.75 2.952-.83 2.46-.147-.215.299-.12.554.211.568.331.014.609-.155.618-.377.012-.264.763-.289 2.181-.073 1.878.286 2.167.235 2.193-.385.032-.752 3.129-2.268 3.75-1.836.198.139.008.31-.423.38-.43.072-.795.427-.81.79-.038.894 2.121.65 2.941-.332l.612-.734 1.232.79c1.11.711 1.398.747 2.896.357 1.455-.378 1.661-.363 1.641.122-.013.313.517.578 1.219.607.683.03 1.248-.11 1.257-.31.008-.199.714-.332 1.567-.296.854.036 1.561-.115 1.57-.336.009-.22.397-.298.863-.174.51.137.824.001.792-.343-.033-.345.5-.574 1.35-.58 1.29-.008 1.331.05.512.72-.822.672-.777.73.582.753.811.013 1.664-.077 1.897-.2.233-.122.76-.042 1.171.179 1.007.54 4.186-.154 3.782-.826-.356-.597.41-.613 1.322-.028.474.304 1.021.329 1.925.088.983-.262 1.336-.215 1.593.215.182.303.846.573 1.476.6 1.618.067 4.821-1.788 4.374-2.535-.225-.375-.113-.499.299-.33.361.147.499.585.305.973-.421.842.031 1.74.894 1.776.342.014.471-.225.287-.532-.375-.626 1.188-.72 1.784-.107.203.209.842.386 1.42.394.647.01.756-.067.283-.2-.422-.118-.734-.567-.692-.997.074-.759.093-.76.58-.037.277.411.532.535.567.275.035-.26.339-.36.675-.222.336.137.629.037.651-.224.024-.286.398-.172.946.29.777.653.993.688 1.518.244.337-.284.499-.717.359-.962-.146-.257.103-.35.59-.22 1.004.27 1.666 1.226 1.155 1.668-.475.413.471.438 2.543.07 1.101-.196 1.559-.486 1.34-.85-.182-.305-.06-.543.27-.529.331.014.595.179.587.366-.031.744 2.638.295 3.237-.544.508-.712.732-.774 1.176-.324.301.305.378.845.168 1.2-.332.565-.117.628 1.704.499 1.147-.081 2.579-.125 3.185-.096.604.028.944-.11.753-.305-.19-.195.066-.337.57-.316.504.02 1.026.247 1.159.502.189.362.473.364 1.292.012.578-.249 1.612-.343 2.298-.208.687.134 1.655.03 2.151-.232.554-.293 1.043-.332 1.268-.101.498.51 3.335.457 4.171-.079.514-.33.354-.448-.663-.491-1.203-.05-1.257-.136-.534-.839.696-.676.832-.695 1.007-.139.11.354.719.665 1.353.692.633.027 1.512.279 1.952.56.443.284 2.469.622 4.537.758 3.204.21 3.996.129 5.561-.574 1.667-.75 3.965-.799 3.12-.067-.196.17-.084.321.249.335.333.014.755-.172.938-.414.266-.351.339-.348.362.015.047.711 4.198.748 4.934.044.503-.482.786-.501 1.529-.102.73.392.981.4 1.256.036.239-.316.493-.329.84-.04.272.227 1.475.44 2.671.474 1.837.053 2.152-.056 2.028-.705-.081-.421.31-.964.868-1.206.895-.387.962-.332.574.474-.25.52-.154 1.028.222 1.182.364.149.669.092.678-.125.01-.23.729-.298 1.718-.16.935.129 1.699.262 1.698.294-.002.033.799.17 1.779.305 1.572.217 1.744.153 1.466-.545-.293-.735-.239-.746.752-.169 1.33.775 2.516.85 2.545.162.012-.287.354-.626.76-.753.496-.155.599-.04.315.355-.311.431-.079.6.877.64 1.031.044 1.157-.054.611-.473-.553-.424-.38-.515.876-.462.913.039 1.555.273 1.543.564-.028.667.992.679 1.469.017.208-.29.737-.5 1.174-.466.622.048.625.094.011.212-.431.082-.791.305-.799.495-.008.203.5.207 1.244.009.692-.185 1.253-.203 1.246-.04-.029.698 3.404.544 5.394-.243 2.031-.803 2.115-.807 2.085-.094-.039.935 2.112 1.102 3.051.238.366-.337.659-.406.659-.154 0 .263.81.488 1.929.535 1.33.056 1.839-.07 1.639-.404-.377-.63 3.955-.657 4.567-.03.237.244.76.34 1.163.214.533-.167.552-.367.07-.737-.396-.303-.424-.581-.072-.692.324-.102.728.165.898.591l.31.776 1.875-.688c2.195-.805 2.89-.847 2.384-.146-.2.278-.033.599.37.713.404.114.189.197-.478.185-.738-.014-.987.113-.635.325.317.192 1.479.305 2.582.251 1.597-.078 1.986-.257 1.904-.879-.061-.46.213-.73.669-.657.425.067.785-.08.8-.33.02-.301.222-.262.608.117.319.312.595.406.614.207.019-.199.26-.135.536.14.276.277 1.652.642 3.057.811 2.161.261 2.759.184 3.876-.499 1.195-.73 1.285-.739.946-.085-.278.539-.058.756.865.853 1.944.204 3.263.25 5.279.188a122.45 122.45 0 013.735-.048c1.702.01 1.77-.037.785-.523-1.023-.505-1.013-.542.184-.673.816-.09 1.257.038 1.243.36-.012.286.366.428.889.334.501-.09 1.246-.027 1.656.14.41.168 1.887.322 3.281.342l5.489.08c1.874.028 2.96-.121 2.972-.408.012-.276.868-.417 2.193-.361 1.195.05 2.166.264 2.157.475-.009.21.28.29.642.177.362-.114 1.05.005 1.531.262.604.325 1.407.388 2.608.204.954-.146 2.81-.154 4.124-.018 1.685.175 2.264.12 1.967-.185-.259-.266-.054-.373.532-.278.525.085 1.417-.152 1.983-.527 1.015-.673 1.023-.671.61.116-.3.573-.153.81.518.839.515.021 1.128-.127 1.363-.33.234-.204.814-.266 1.287-.14.478.129.869.012.881-.261.039-.935 1.869-.86 2.878.117.807.782 1.413.952 3.449.967 1.391.011 2.621-.19 2.815-.458.189-.263.758-.366 1.265-.23.506.136 1.361.059 1.9-.171.843-.36.925-.307.586.38-.217.44-.313.804-.213.808.631.027 3.756-.964 4.225-1.34.358-.286.41-.102.14.5l-.425.954 5.437.09c2.99.048 5.721-.061 6.069-.245.347-.183.825-.932 1.063-1.664.238-.732.786-1.384 1.218-1.45.604-.091.627.103.1.841-.377.528-.551 1.046-.386 1.151.164.106.006.485-.351.842-.504.504-.435.66.303.691.525.022.96-.113.968-.3.008-.186.503-.3 1.099-.254.597.047 1.689-.004 2.428-.114.806-.12 1.671 0 2.165.301 1.33.81 3.237.684 4.069-.27l.764-.874.008 1.01c.008 1.005.025 1.01 3.586.985a186.68 186.68 0 016.487.08c2.421.087 2.985-.024 3.368-.661.407-.68.521-.695 1.013-.136.433.49.825.556 1.779.302.842-.224 1.22-.209 1.21.049-.009.206.403.392.915.414.513.021.925.196.917.387-.023.556 11.583.69 12.839.15.871-.375 1.108-.369 1.318.034.188.358.702.282 1.914-.283.911-.425 1.264-.5.784-.166-1.082.752-.471 1.238.842.67.785-.341.966-.326.965.079-.001.334.305.282.933-.162.514-.363 1.115-.544 1.336-.403.22.141.807-.01 1.303-.335.662-.433.985-.466 1.209-.122.168.258.635.386 1.037.284.403-.101.052.105-.779.457-.975.414-1.271.74-.834.919.372.152 1.312-.111 2.087-.586 1.499-.916 3.424-1.122 2.834-.303-.344.477.572 1.338 1.463 1.376.249.01.592-.342.762-.784.303-.786.318-.787.71-.037.364.697.84.779 5.174.89 2.625.068 4.844.092 4.931.054.479-.21 5.658.072 6.903.376.932.227 1.794.212 2.382-.043.612-.264 1.057-.268 1.324-.01.742.714 3.097.933 3.958.369.702-.46.661-.512-.273-.35-.681.12-1.09.02-1.078-.262.034-.81 2.362-.514 2.724.346.283.675.441.722.972.288.349-.284.631-.331.627-.103-.012.62 1.766.976 3.101.62.675-.18 1.314-.169 1.504.026.394.405 5.37.512 6.555.14.558-.175.685-.13.381.134-.296.256.05.413.974.442 1.377.042 5.766.524 5.761.632-.001.029 1.324.159 2.943.29 1.619.13 2.95.132 2.957.004.007-.128 1.269-.194 2.806-.147 2.055.063 2.787.224 2.771.612-.015.345.4.48 1.197.393.672-.073 1.343.058 1.494.293.151.235.309.13.351-.23.07-.599.163-.603 1.028-.048.897.575 1.522.679 6.137 1.025 1.024.076 2.462.276 3.194.444.732.168 1.512.149 1.732-.042.254-.22.938-.203 1.875.046 1.027.274 1.573.265 1.796-.029.177-.232.332-.136.344.214.012.35.231.651.487.67 1.958.14 5.606.723 6.488 1.036.874.311 1.081.229 1.117-.445.036-.667.157-.717.624-.259.476.468.584.478.61.056.017-.282.203-.402.413-.267.211.135.912.104 1.558-.068 1.354-.361 1.391-.295.517.93-.504.707-.453.912.235.94.484.021 1.051-.11 1.261-.293.428-.371 2.28.013 2.9.602.223.211 1.155.475 2.073.586.918.11 2.058.45 2.533.755.696.446 1.105.478 2.094.164.677-.215 1.235-.5 1.241-.633.014-.334 1.284-.126 2.934.481 1.05.386 1.383.404 1.397.076.011-.258.507-.146 1.236.279 1.806 1.052 2.245.455.845-1.15-.944-1.082-1.084-1.61-.603-2.282.429-.602.409-.926-.064-1.039-.379-.09-.937-.581-1.24-1.091-.302-.51-1.083-1.032-1.734-1.16-.651-.127-1.312-.446-1.469-.708-.312-.52-11.622-3.111-12.652-2.898-.134.028-.451-.162-.705-.422-.253-.26-3.058-.869-6.233-1.352-3.175-.483-6.467-1.003-7.316-1.156-.849-.152-3.077-.433-4.95-.622-1.874-.19-3.945-.46-4.602-.602-.657-.142-2.747-.37-4.644-.51-1.897-.139-4.144-.389-4.992-.556-.848-.167-3.915-.46-6.815-.65-2.9-.192-5.272-.372-5.271-.4.001-.028-1.183-.164-2.631-.302-1.614-.154-2.64-.1-2.65.139-.011.264-.29.243-.865-.066-.466-.25-3.111-.577-5.879-.725-2.767-.149-5.027-.36-5.022-.472.005-.11-4.531-.435-10.078-.722-5.548-.287-10.506-.547-11.018-.577-.512-.03-2.749-.074-4.972-.097-2.223-.023-4.736-.173-5.585-.333-.848-.16-2.456-.211-3.572-.114-1.116.098-2.024.043-2.017-.122.007-.165-.759-.242-1.703-.171-2.419.181-24.22-.677-26.999-1.063-1.266-.175-2.446-.243-2.623-.15zm54.604 9.714c-.001.143-.4.154-.886.023-.485-.13-.712-.475-.503-.766.31-.43.475-.434.886-.023.277.278.503.622.503.766zm-119.147-5.55c.02.15.118.563.218.917.099.354-.037.555-.303.446-.729-.298-1.16-1.688-.514-1.661.309.013.579.147.599.297zm71.99 2.919c-.004.088-.291.249-.637.357-.347.11-.624.025-.615-.185.009-.211.296-.372.637-.358.342.014.618.098.615.186zm-24.583.256c.203.208.072.366-.289.35-.361-.015-.651-.19-.642-.39.008-.199.138-.356.289-.35.151.006.439.182.642.39zm-54.357-1.767c-.004.088-.29.249-.637.358-.347.108-.623.025-.614-.186.009-.21.295-.372.637-.358.341.015.618.098.614.186zm3.555.21c-.211.11-.747.101-1.191-.022-.49-.137-.34-.216.385-.203.655.012 1.017.113.806.224zm2.336.241c.203.208-.084.36-.636.336-.553-.023-.826-.198-.606-.388.219-.19.506-.341.636-.336.131.006.403.18.606.388zm6.522.232c-.008.177-.647.386-1.419.467-1.358.142-1.365.13-.179-.328 1.432-.553 1.616-.57 1.598-.139zm-22.364-.739c-.003.088-.29.249-.637.358-.346.108-.623.024-.614-.186.009-.211.296-.372.637-.358.342.015.618.098.614.186zm-28.75-.789c-.212.112-.748.102-1.191-.021-.491-.137-.34-.216.384-.203.655.012 1.018.113.807.224zm6.747 1.585c-.21.28-.354.188-.366-.235-.01-.383.145-.59.346-.462.201.13.211.443.02.697zm218.153 9.3c-.038.912-1.013.83-1.104-.092-.052-.521.167-.8.518-.656.334.136.598.473.586.748zM236.776 20.97c.203.208.072.366-.289.35-.361-.014-.651-.19-.642-.389.008-.2.138-.357.289-.35.151.006.439.181.642.39zm34.243 1.642c.178.297.573.55.878.563.893.038.663-.602-.31-.863-.596-.16-.784-.06-.568.3zM513.36 32.834c-.715.458-.685.605.195.933 1.468.549 1.339 1.221-.133.693-.629-.226-1.37-.304-1.646-.173-.277.131-.305-.052-.065-.408.24-.355.447-.877.459-1.16.012-.282.475-.494 1.029-.47.853.035.877.125.161.585zM203.309 20.716c-.211.28-.354.189-.366-.235-.011-.382.145-.59.346-.461.201.129.21.442.02.696zm298.289 11.93c-.004.087-.29.248-.637.356-.347.11-.623.025-.614-.185.009-.211.295-.372.637-.358.341.015.618.098.614.186zm1.854.28c-.008.2-.294.35-.636.336-.341-.014-.614-.19-.606-.388.009-.2.295-.35.637-.336.341.014.614.189.605.388zM201.63 20.94c-.017.399-.284.714-.593.7-.31-.012-.403-.343-.208-.733.196-.391.463-.707.594-.701.13.005.224.336.207.734zm3.726.157c-.008.2-.138.357-.289.35-.151-.005-.44-.181-.642-.389-.203-.208-.073-.366.289-.35.361.015.65.19.642.39zm-5.819.549c-.21.28-.354.188-.366-.235-.01-.383.145-.59.346-.461.201.128.211.442.02.696zM521.349 36.34c-.012.266-.44.466-.952.444-.983-.041-1.198-.371-.487-.746.703-.371 1.46-.212 1.439.302zM115.294 24.585c-.234.202-.296.452-.137.554.159.101.465-.06.68-.359.447-.62.094-.748-.543-.195zm-61.227 2.192c-.456.24-.746.25-.737.023.009-.206.207-.475.44-.598s.565-.134.737-.023c.172.11-.026.38-.44.598zm-34.982.762c-.003.075-.504.34-1.113.588-1.004.409-1.025.395-.23-.147.838-.57 1.356-.74 1.343-.441zm9.073 2.059c-.136.793-1.114.97-1.08.196.017-.432.59-.942 1.037-.924.092.004.112.332.044.728z" fill="#171717"/><path fill-rule="evenodd" clip-rule="evenodd" d="M454.812 23.552c-.09.076-3.824.07-8.299-.012-4.474-.083-9.699-.127-11.61-.097-5.118.078-6.323.048-6.683-.165-.179-.105-.402-.127-.496-.048-.221.185-3.552.266-9.816.237-2.746-.012-5.105.035-5.243.106-.138.07-1.519.172-3.068.225-1.549.052-2.864.2-2.924.33-.058.128-.414.125-.789-.007-.61-.214-1.422-.26-3.122-.174-.379.02-.485.178-.349.526.18.465.156.463-.362-.023-.457-.43-.874-.501-2.339-.404-.98.066-2.456.083-3.28.04-.925-.05-1.502.04-1.508.237-.006.213-.345.24-1.029.08-.56-.13-1.161-.228-1.335-.217-.174.01-1.382.012-2.685.003-1.302-.009-2.5.044-2.661.118-.354.163-1.322.22-5.247.312-1.652.039-3.43.108-3.953.154-2.277.2-4.916.32-7.116.323-1.303.003-3.154.127-4.114.277-1.784.278-5.634.47-7.564.378-.593-.029-1.198.108-1.347.304-.219.289-.269.286-.264-.014.007-.346-.734-.355-3.161-.037a54.15 54.15 0 01-5.067.44c-.956.033-2.522.105-3.479.16-.957.057-2.665.13-3.795.162s-2.055.075-2.055.097c-.002.04-.485.137-1.705.339-.413.068-1.838.172-3.165.23-2.603.114-3.681.192-3.683.266-.001.026-.855.08-1.899.119-3.031.115-4.313.212-6.173.467a60.8 60.8 0 01-3.484.354l-2.986.199c-.685.046-1.386.201-1.559.346-.203.17-.518.159-.888-.032a1.31 1.31 0 00-1.16-.039c-.321.142-1.355.261-2.297.266-.943.004-2.072.116-2.51.247-.439.132-1.295.259-1.904.282-2.603.099-4.932.363-5.28.598-.235.159-.442.149-.556-.027-.118-.181-.544-.195-1.211-.039-.567.133-1.797.28-2.734.326-.937.046-1.831.148-1.987.228-.156.08-.886.181-1.622.225-1.876.112-3.039.248-4.51.529-.699.133-1.517.166-1.818.074-.302-.092-.551-.064-.555.062-.005.127-.419.23-.921.23-.501 0-1.179.09-1.505.198-.326.109-1.331.202-2.233.208-.902.005-1.837.146-2.077.312-.241.167-.715.302-1.054.3-1.973-.013-3.677.15-4.027.386-.22.148-.864.343-1.432.433-.567.09-1.034.25-1.038.353-.004.104-.469.204-1.033.222-1.737.057-2.299.206-2.21.586.062.265-.024.28-.318.056-.563-.431-2.283-.197-3.071.417-.363.283-.889.508-1.17.499-.691-.021-2.508 1.522-2.087 1.771.18.107.233.432.119.724-.229.586.09 1.309.413.937.113-.13.529-.385.926-.568.635-.293.719-.269.704.2-.009.3.264.607.623.702.539.143.609.073.442-.445-.109-.338-.421-.79-.693-1.004-.433-.34-.397-.367.289-.207.431.1.886.186 1.011.192.124.006.139.198.032.427-.107.23-.038.422.154.427.193.006.354-.112.358-.261.005-.15.233-.188.508-.085.275.104.631.016.791-.195.237-.313.289-.299.282.078-.006.254.236.563.536.686.819.337 3.197.324 3.693-.02.328-.227.556-.187.927.166.398.377.496.39.506.068.006-.219.29-.609.63-.866.601-.456.61-.44.321.57-.222.78-.185 1.143.149 1.46.598.568 1.381.286 1.411-.508.017-.44.102-.525.27-.273.143.215.483.297.811.195.311-.096.655-.035.764.134.227.349 2.573-.112 2.585-.508.004-.126-.122-.162-.28-.082-.158.081-.364-.047-.458-.285-.139-.352-.057-.374.445-.116.338.175.617.23.62.123.004-.107.283.044.622.334.553.476.617.482.629.063a.472.472 0 01.488-.45c.26.007.79-.252 1.178-.577.457-.383.633-.437.5-.153-.291.623.05.828.604.363.616-.516 1.06-.487 1.043.069-.007.245.166.395.385.333s.37-.402.335-.755c-.056-.568-.004-.595.449-.237.463.365.501.316.391-.507-.097-.73-.04-.848.284-.592.244.192.32.588.192.996-.198.629-.135.674.921.642 1.142-.033 1.6-.428 1.321-1.135-.083-.21.061-.529.319-.708.389-.27.501-.178.655.538.141.66.357.87.914.886.782.024 1.266-.574.813-1.003-.163-.154-.002-.403.392-.607.367-.19.569-.212.449-.05-.129.174.043.305.412.316.347.01.723-.105.835-.256.413-.56.803-.238.578.477-.175.555-.123.705.212.618.244-.063.497-.443.563-.844.121-.733.919-1.522 1.236-1.222.094.089-.08.482-.387.873-.335.428-.417.716-.205.722.193.006.355-.089.359-.21.003-.122.444-.238.978-.258.596-.022.891.072.763.245-.319.43.331.352.773-.095.214-.216.576-.323.803-.237.228.085.5.04.604-.102.105-.14.531-.188.946-.104.416.084.856.017.978-.149.286-.387 2.397-.33 2.385.063-.005.164.151.216.346.116.254-.13.248-.245-.021-.404-.52-.307.091-.596 1.713-.81.917-.12 1.388-.054 1.698.24.599.568 1.121.525.889-.072-.177-.458-.152-.46.303-.034.578.542 1.719.459 2.595-.188.827-.61 1.503-.694 1.251-.156-.11.236-.062.432.106.437a.31.31 0 00.315-.303c.006-.205.388-.237 1.108-.094.954.19 1.101.145 1.116-.336.018-.584 1.595-1.814 1.91-1.49.1.105.004.24-.216.303-.218.063-.405.344-.414.627-.021.694 1.077.468 1.496-.309l.313-.58.624.593c.562.532.709.555 1.471.227.74-.318.845-.31.834.067-.008.243.261.439.618.45.347.01.635-.107.639-.262.005-.155.364-.27.798-.257.434.013.793-.116.798-.288.005-.17.203-.238.439-.15.259.098.419-.013.404-.279-.016-.267.255-.454.687-.473.656-.029.676.016.258.55-.419.535-.396.58.295.574.411-.004.845-.088.964-.187.119-.1.386-.047.595.118.51.402 2.127-.191 1.924-.706-.18-.457.21-.482.672-.044.24.228.518.238.978.035.5-.22.679-.19.809.14.092.232.429.43.749.44.822.025 2.454-1.47 2.228-2.042-.113-.287-.056-.385.153-.262.183.11.252.446.153.75-.216.661.012 1.35.45 1.363.174.006.24-.182.147-.417-.189-.48.606-.579.907-.114.103.159.427.285.721.282.329-.004.385-.065.144-.16-.214-.085-.371-.428-.349-.763.039-.59.049-.59.295-.038.14.314.269.406.287.204.018-.202.173-.285.344-.184.17.1.32.018.331-.185.013-.222.203-.14.48.208.394.494.503.518.771.165.172-.227.255-.566.185-.753-.074-.197.053-.273.3-.18.51.191.844.921.583 1.274-.242.328.239.331 1.293.01.56-.171.793-.404.683-.683-.092-.233-.03-.42.138-.414.168.005.302.128.298.273-.018.578 1.339.184 1.646-.478.26-.56.374-.612.598-.271.153.232.19.65.083.929-.17.443-.061.489.865.357.583-.082 1.311-.14 1.618-.129.308.012.48-.1.384-.249-.096-.148.034-.263.291-.255.256.008.52.174.587.37.095.277.24.274.657-.013.294-.203.82-.294 1.168-.201.349.093.841-.005 1.094-.217.282-.237.531-.275.645-.1.252.388 1.693.298 2.119-.133.262-.264.181-.354-.335-.37-.612-.018-.639-.083-.27-.641.356-.537.425-.554.512-.125.055.273.364.504.686.514.322.01.768.19.991.401.225.212 1.253.44 2.304.51 1.628.109 2.031.032 2.828-.54.849-.611 2.017-.689 1.586-.106-.1.136-.044.25.125.256.17.005.385-.147.478-.337.136-.278.173-.277.184.005.022.551 2.132.508 2.507-.05.257-.383.401-.403.778-.106.37.292.497.293.638.006.122-.25.251-.263.427-.046.138.172.748.318 1.356.323.934.01 1.094-.08 1.032-.581-.039-.326.16-.754.444-.951.456-.316.49-.275.291.357-.128.408-.081.801.11.914.185.11.34.06.345-.109.006-.179.371-.243.873-.154.475.085.863.175.863.2-.001.026.405.119.903.206.799.141.886.089.746-.448-.147-.565-.119-.575.383-.144.674.579 1.277.617 1.293.082.007-.223.181-.491.388-.597.252-.13.305-.04.159.27-.159.34-.041.467.444.482.525.016.588-.062.312-.378-.28-.32-.192-.393.446-.373.464.014.79.185.783.41-.016.519.503.51.747-.012.106-.229.376-.4.598-.381.316.027.317.062.005.164-.22.072-.403.25-.407.398-.005.158.253.152.632-.014.352-.155.637-.179.633-.052-.017.542 1.729.363 2.742-.281 1.034-.658 1.077-.663 1.06-.11-.022.727 1.07.82 1.55.133.186-.268.336-.326.335-.13-.001.204.41.364.979.381.676.021.935-.085.834-.34-.19-.483 2.011-.579 2.321-.102.12.185.386.25.59.146.272-.14.282-.294.038-.573-.2-.229-.214-.444-.035-.536.165-.085.37.115.455.443l.156.597.954-.566c1.118-.662 1.471-.707 1.212-.154-.102.22-.018.465.187.546.205.082.095.15-.244.152-.375.002-.502.105-.324.264.161.143.752.21 1.313.15.811-.088 1.009-.233.969-.714-.03-.357.11-.571.341-.522.216.045.4-.076.408-.27.011-.234.114-.207.309.08.161.238.301.305.311.15.01-.154.133-.109.272.1.14.21.838.47 1.552.577 1.098.166 1.402.096 1.971-.453.609-.588.655-.596.481-.082-.143.422-.031.587.438.647a11.53 11.53 0 002.682.055 40.959 40.959 0 011.898-.101c.865-.022.9-.06.4-.42-.518-.374-.513-.402.095-.525.415-.083.639.008.631.258-.006.222.185.326.452.244.254-.079.633-.042.841.08.208.124.958.218 1.666.21l2.79-.032c.952-.01 1.504-.145 1.511-.368.007-.214.442-.338 1.115-.318.608.019 1.101.168 1.096.332-.005.163.141.22.325.126.185-.094.534-.014.778.178.306.241.714.276 1.325.113.485-.13 1.428-.167 2.096-.084.856.107 1.15.054 1-.178-.131-.202-.027-.288.271-.224.266.057.721-.143 1.009-.443.517-.54.522-.539.31.08-.154.449-.08.63.261.641.262.008.574-.118.693-.28.12-.161.415-.22.655-.13.242.092.442-.005.448-.218.022-.725.952-.699 1.462.042.409.593.716.714 1.751.692.707-.016 1.333-.192 1.432-.404.096-.207.386-.297.643-.2.257.096.692.022.967-.166.429-.293.47-.254.296.286-.111.345-.161.629-.11.63.321.01 1.911-.813 2.151-1.112.182-.229.208-.086.07.385l-.219.748 2.763-.024c1.52-.013 2.908-.145 3.085-.293.177-.149.422-.738.544-1.31.123-.572.403-1.088.623-1.146.307-.081.318.07.048.651-.192.416-.282.821-.199.9.084.079.003.376-.18.66-.257.399-.222.519.153.53.266.008.488-.104.492-.249.005-.145.257-.242.56-.216.303.026.858-.032 1.234-.13.409-.107.849-.028 1.099.196.674.606 1.644.475 2.069-.279l.39-.692.002.784c.002.78.01.783 1.82.703 1-.044 2.483-.066 3.296-.049 1.231.026 1.518-.07 1.714-.57.208-.535.266-.549.515-.123.219.373.418.417.904.204.428-.189.62-.183.614.017-.005.16.204.297.464.305.261.008.47.137.465.286-.013.43 5.885.337 6.525-.105.444-.305.564-.305.67.004.094.275.356.207.973-.252.464-.345.644-.41.399-.142-.552.602-.242.968.426.505.4-.278.492-.27.49.045-.001.26.155.213.475-.142.262-.29.568-.441.68-.335.112.105.41-.021.663-.282.338-.348.502-.379.615-.116a.402.402 0 00.526.203c.205-.086.026.08-.397.368-.496.338-.647.596-.426.727.189.112.667-.109 1.062-.49.764-.737 1.743-.93 1.441-.284-.176.376.288 1.029.74 1.043.127.004.302-.276.39-.622.156-.615.163-.616.361-.04.183.534.425.59 2.627.602 1.334.007 2.461-.012 2.506-.043.244-.171 2.875-.041 3.507.173.473.161.911.134 1.211-.073.311-.216.538-.227.673-.032.375.542 1.571.672 2.01.219.358-.37.337-.409-.138-.266-.346.104-.554.034-.547-.186.019-.629 1.202-.439 1.384.223.142.518.222.552.493.206.178-.227.321-.268.319-.09-.008.481.895.727 1.574.428.344-.151.669-.154.764-.006.2.308 2.728.305 3.332-.004.283-.145.348-.112.193.098-.151.203.024.32.494.326.7.01 2.929.308 2.926.392 0 .022.673.1 1.495.174.823.074 1.499.053 1.503-.047.004-.1.646-.173 1.426-.162 1.045.013 1.416.126 1.407.427-.008.268.202.366.608.285.341-.069.682.022.758.202.076.179.157.096.179-.186.037-.465.085-.47.523-.054.454.43.772.5 3.116.69.521.042 1.251.173 1.622.29.372.118.768.09.881-.062.129-.175.477-.174.953.004.521.194.798.178.912-.053.091-.184.169-.112.175.16.005.271.116.5.246.51.994.076 2.847.466 3.295.694.443.226.548.159.568-.365.02-.518.082-.559.318-.211.241.355.296.361.31.033.009-.22.104-.316.21-.215.107.101.464.066.792-.08.689-.302.708-.251.261.714-.258.557-.232.715.117.726.246.007.534-.105.642-.25.218-.295 1.159-.029 1.472.418.113.16.586.349 1.052.419.466.07 1.045.314 1.286.543.352.334.56.352 1.064.091.344-.178.628-.409.632-.513.008-.26.653-.12 1.49.323.532.282.702.29.709.035.007-.2.258-.121.628.196.915.786 1.14.315.432-.907-.477-.824-.547-1.23-.301-1.76.22-.475.21-.726-.03-.805-.192-.064-.475-.436-.627-.826-.153-.39-.548-.782-.879-.87-.33-.088-.666-.324-.745-.524-.157-.4-5.899-2.216-6.423-2.033-.068.024-.229-.118-.357-.316-.128-.197-1.553-.621-3.165-.942-1.612-.32-3.284-.667-3.715-.771-.431-.104-1.563-.284-2.515-.398-.951-.116-2.003-.29-2.337-.389-.333-.098-1.395-.24-2.359-.316-.964-.075-2.105-.23-2.535-.346-.431-.115-1.989-.29-3.463-.388-1.473-.099-2.678-.198-2.677-.22 0-.021-.601-.107-1.337-.19-.82-.09-1.341-.031-1.347.154-.006.205-.148.194-.439-.036-.236-.187-1.58-.395-2.986-.462-1.406-.068-2.554-.194-2.551-.28.002-.086-2.302-.26-5.121-.388-2.819-.127-5.337-.244-5.598-.26-.26-.014-1.397-.01-2.526.01-1.13.021-2.407-.052-2.838-.162-.431-.11-1.247-.122-1.815-.027-.568.095-1.028.068-1.025-.06.004-.128-.385-.175-.865-.104-1.23.182-12.307-.11-13.718-.362-.643-.115-1.243-.147-1.333-.072zm27.727 6.603c-.001.111-.203.126-.45.034a.43.43 0 01-.254-.586c.159-.34.243-.345.45-.034.141.211.255.475.254.586zM422 27.888c.01.117.058.436.108.71.05.272-.019.43-.154.35-.37-.218-.586-1.29-.258-1.28.157.005.294.104.304.22zm36.579 1.033c-.002.069-.148.198-.324.288-.177.09-.317.03-.312-.133a.307.307 0 01.325-.288c.173.005.313.065.311.133zm-12.494.62c.103.158.036.282-.147.277-.184-.006-.331-.137-.326-.292.005-.154.071-.279.148-.277.077.003.223.134.325.292zm-27.62-.44c-.003.069-.149.198-.325.288-.177.09-.317.03-.312-.133.005-.164.151-.294.325-.289.173.006.314.066.312.134zm1.806.101c-.108.09-.38.092-.605.004-.249-.097-.173-.162.195-.164.333-.002.517.07.41.16zm1.186.148c.103.158-.043.28-.324.272-.281-.009-.419-.14-.307-.291.112-.152.258-.274.324-.272.067.002.205.133.307.291zm3.314.069c-.004.136-.329.31-.722.386-.691.133-.694.124-.09-.252.729-.453.823-.47.812-.134zm-11.363-.191c-.003.068-.149.198-.325.288-.177.09-.317.03-.312-.134.005-.163.151-.293.325-.288.173.005.314.066.312.134zm-14.61-.12c-.108.09-.38.092-.605.004-.249-.098-.173-.162.195-.164.333-.002.517.07.41.16zm3.425 1.114c-.107.221-.18.152-.185-.176-.005-.297.075-.46.177-.364.102.097.106.34.008.54zm110.847 3.481c-.022.708-.517.661-.561-.053-.025-.404.087-.623.265-.518.169.1.303.357.296.571zm-131.105-3.872c.102.158.036.282-.148.277-.184-.006-.33-.137-.325-.292.004-.154.071-.28.147-.277.077.002.223.134.326.292zm17.399.687c.09.227.29.417.445.422.453.014.338-.478-.156-.664-.302-.114-.398-.034-.289.242zM522.501 34.3c-.364.368-.349.482.097.721.745.4.678.925-.069.54-.319-.165-.696-.212-.836-.106-.141.106-.155-.035-.032-.316.123-.28.229-.688.236-.907.007-.22.242-.392.524-.384.433.014.445.083.08.453zm-157.544-4.092c-.108.22-.18.152-.186-.176-.004-.297.075-.46.177-.364.102.096.106.34.009.54zm151.567 4.147c-.002.069-.148.198-.325.289-.176.09-.316.03-.311-.134a.307.307 0 01.324-.288c.174.005.314.065.312.133zm.942.186c-.005.155-.151.277-.324.272-.174-.005-.312-.136-.307-.29.005-.156.15-.278.324-.273.174.006.312.137.307.291zm-153.363-4.13c-.009.309-.146.558-.303.553-.157-.005-.204-.26-.104-.566.101-.307.237-.556.304-.554.066.002.113.257.103.566zm1.893.057c-.004.155-.071.28-.147.277-.077-.002-.223-.133-.326-.291-.102-.158-.036-.283.148-.277.184.005.33.136.325.291zm-2.958.526c-.108.22-.18.152-.186-.176-.004-.297.076-.461.177-.364.102.096.106.34.009.54zm163.515 5.89c-.006.207-.224.369-.485.361-.499-.015-.607-.267-.245-.57.357-.3.742-.19.73.21zm-206.336-2.167c-.119.161-.151.356-.071.432.081.076.237-.054.347-.29.228-.489.049-.581-.276-.142zm-31.122 2.75c-.232.195-.38.207-.374.03a.73.73 0 01.225-.471c.119-.1.287-.114.375-.03.087.082-.015.294-.226.47zm-17.78 1.19c-.002.059-.257.273-.567.476-.511.334-.522.324-.116-.11.427-.456.69-.597.683-.366zm4.607 1.443c-.072.618-.569.772-.55.17.01-.335.302-.74.529-.734.047.001.056.255.021.564z" fill="#171717"/></svg>