<svg width="24" height="24" viewBox="0 0 24 24" fill="none" xmlns="http://www.w3.org/2000/svg">
<path d="M23 12.0663C22.9996 9.95126 22.397 7.88064 21.2635 6.09951C20.13 4.31838 18.513 2.90132 16.604 2.0161C14.695 1.13087 12.5738 0.814542 10.4917 1.10455C8.40956 1.39456 6.45359 2.27876 4.85534 3.65249C3.2571 5.02622 2.08349 6.83195 1.47344 8.85593C0.863401 10.8799 0.842471 13.0374 1.41313 15.073C1.98379 17.1085 3.12215 18.937 4.69344 20.3418C6.26473 21.7467 8.20317 22.6692 10.2793 23V15.2681H7.49V12.0663H10.2793V9.63129C10.2793 6.85635 11.9214 5.32262 14.4357 5.32262C15.2595 5.33401 16.0814 5.40534 16.895 5.53608V8.26358H15.5121C15.2757 8.2287 15.0344 8.24854 14.8067 8.3216C14.5791 8.39466 14.3709 8.519 14.1982 8.68519C14.0255 8.85137 13.8927 9.055 13.8099 9.28059C13.7272 9.50619 13.6967 9.7478 13.7207 9.98705V12.0663H16.7693L16.2821 15.2681H13.7207V23C16.3079 22.5877 18.664 21.26 20.365 19.2556C22.0661 17.2513 23.0004 14.702 23 12.0663Z" fill="#1877F2"/>
</svg>
