<svg width="24" height="24" viewBox="0 0 24 24" fill="none" xmlns="http://www.w3.org/2000/svg">
<path d="M16.4461 1H7.55392C3.94007 1 1 3.94007 1 7.55392V16.4461C1 20.0599 3.94007 23 7.55392 23H16.4461C20.0599 23 23 20.0599 23 16.4461V7.55392C23 3.94007 20.0599 1 16.4461 1ZM20.7868 16.4461C20.7868 18.8434 18.8434 20.7868 16.4461 20.7868H7.55392C5.15663 20.7868 3.2132 18.8434 3.2132 16.4461V7.55392C3.2132 5.15659 5.15663 3.2132 7.55392 3.2132H16.4461C18.8434 3.2132 20.7868 5.15659 20.7868 7.55392V16.4461Z" fill="url(#paint0_linear)"/>
<path d="M12 6.31003C8.86258 6.31003 6.31006 8.86255 6.31006 12C6.31006 15.1374 8.86258 17.69 12 17.69C15.1375 17.69 17.69 15.1374 17.69 12C17.69 8.86251 15.1375 6.31003 12 6.31003ZM12 15.4768C10.0799 15.4768 8.52326 13.9202 8.52326 12C8.52326 10.0798 10.0799 8.52323 12 8.52323C13.9202 8.52323 15.4768 10.0798 15.4768 12C15.4768 13.9202 13.9202 15.4768 12 15.4768Z" fill="url(#paint1_linear)"/>
<path d="M17.7008 7.71625C18.4538 7.71625 19.0643 7.10582 19.0643 6.35282C19.0643 5.59981 18.4538 4.98938 17.7008 4.98938C16.9478 4.98938 16.3374 5.59981 16.3374 6.35282C16.3374 7.10582 16.9478 7.71625 17.7008 7.71625Z" fill="url(#paint2_linear)"/>
<defs>
<linearGradient id="paint0_linear" x1="12" y1="22.936" x2="12" y2="1.17088" gradientUnits="userSpaceOnUse">
<stop stop-color="#E09B3D"/>
<stop offset="0.3" stop-color="#C74C4D"/>
<stop offset="0.6" stop-color="#C21975"/>
<stop offset="1" stop-color="#7024C4"/>
</linearGradient>
<linearGradient id="paint1_linear" x1="12" y1="22.936" x2="12" y2="1.17089" gradientUnits="userSpaceOnUse">
<stop stop-color="#E09B3D"/>
<stop offset="0.3" stop-color="#C74C4D"/>
<stop offset="0.6" stop-color="#C21975"/>
<stop offset="1" stop-color="#7024C4"/>
</linearGradient>
<linearGradient id="paint2_linear" x1="17.7008" y1="22.936" x2="17.7008" y2="1.17096" gradientUnits="userSpaceOnUse">
<stop stop-color="#E09B3D"/>
<stop offset="0.3" stop-color="#C74C4D"/>
<stop offset="0.6" stop-color="#C21975"/>
<stop offset="1" stop-color="#7024C4"/>
</linearGradient>
</defs>
</svg>
