<svg width="24" height="24" viewBox="0 0 24 24" fill="none" xmlns="http://www.w3.org/2000/svg">
<path d="M19.0385 19.0384H16.0769V14.4231C16.0769 13.3154 16.0769 11.8923 14.5385 11.8923C13 11.8923 12.7692 13.0769 12.7692 14.3077V19.023H9.79231V9.50002H12.6385V10.8H12.6769C12.9619 10.3135 13.3736 9.91347 13.868 9.64253C14.3625 9.3716 14.9212 9.23993 15.4846 9.26156C18.4846 9.26156 19.0385 11.2385 19.0385 13.8077V19.0384ZM6.44615 8.19234C6.10472 8.19539 5.77008 8.09693 5.48471 7.90946C5.19933 7.72199 4.97609 7.45396 4.84331 7.13939C4.71053 6.82483 4.67421 6.4779 4.73895 6.14265C4.80368 5.80741 4.96657 5.49895 5.20692 5.25643C5.44727 5.01392 5.75426 4.84828 6.08892 4.78054C6.42357 4.71279 6.77081 4.74601 7.08656 4.87596C7.40231 5.00591 7.67233 5.22674 7.86235 5.51042C8.05238 5.7941 8.15383 6.12784 8.15385 6.46928C8.15486 6.69584 8.11099 6.92036 8.02476 7.12987C7.93853 7.33938 7.81164 7.52973 7.65144 7.68994C7.49123 7.85014 7.30088 7.97702 7.09136 8.06325C6.88185 8.14948 6.65733 8.19336 6.43077 8.19234H6.44615ZM7.91538 19.0384H4.96154V9.50002H7.93077L7.91538 19.0384ZM20.5154 2.00008H3.47692C3.28499 1.99805 3.09453 2.03385 2.91643 2.10543C2.73833 2.17701 2.57608 2.28296 2.43893 2.41725C2.30178 2.55154 2.19243 2.71153 2.11712 2.88808C2.04181 3.06463 2.00201 3.25429 2 3.44623V20.5538C2.00201 20.7457 2.04181 20.9354 2.11712 21.1119C2.19243 21.2885 2.30178 21.4485 2.43893 21.5827C2.57608 21.717 2.73833 21.823 2.91643 21.8946C3.09453 21.9662 3.28499 22.0019 3.47692 21.9999H20.5154C20.9037 22.004 21.2779 21.8542 21.5561 21.5832C21.8343 21.3122 21.9939 20.9421 22 20.5538V3.43853C21.9919 3.05155 21.8314 2.68339 21.5535 2.41405C21.2755 2.14471 20.9024 1.99595 20.5154 2.00008Z" fill="#0A66C2"/>
<path d="M19.0383 19.0383H16.0767V14.423C16.0767 13.3153 16.0767 11.8922 14.5383 11.8922C12.9998 11.8922 12.7691 13.0768 12.7691 14.3076V19.0229H9.79214V9.49992H12.6383V10.7999H12.6767C12.9617 10.3134 13.3734 9.91337 13.8679 9.64243C14.3623 9.3715 14.921 9.23983 15.4844 9.26146C18.4844 9.26146 19.0383 11.2384 19.0383 13.8076V19.0383ZM6.44598 8.19224C6.10455 8.19529 5.76991 8.09683 5.48454 7.90936C5.19916 7.72189 4.97592 7.45386 4.84314 7.1393C4.71036 6.82473 4.67404 6.47781 4.73877 6.14256C4.80351 5.80731 4.96639 5.49885 5.20675 5.25634C5.4471 5.01382 5.75409 4.84818 6.08874 4.78044C6.4234 4.7127 6.77064 4.74591 7.08639 4.87586C7.40214 5.00581 7.67216 5.22664 7.86218 5.51032C8.0522 5.794 8.15366 6.12774 8.15367 6.46918C8.15469 6.69574 8.11082 6.92026 8.02459 7.12977C7.93835 7.33928 7.81147 7.52963 7.65127 7.68984C7.49106 7.85004 7.30071 7.97692 7.09119 8.06316C6.88168 8.14939 6.65716 8.19326 6.4306 8.19224H6.44598ZM7.91521 19.0383H4.96137V9.49992H7.9306L7.91521 19.0383Z" fill="white"/>
</svg>
