<svg width="24" height="24" viewBox="0 0 24 24" fill="none" xmlns="http://www.w3.org/2000/svg">
<path d="M7.544 22C16.608 22 21.6 14.6787 21.6 8.33308C21.6 8.12234 21.6 7.9194 21.6 7.70866C22.5428 7.0248 23.3551 6.18468 24 5.22661C23.1052 5.62647 22.1528 5.88972 21.176 6.00713C22.2032 5.40871 22.9713 4.46508 23.336 3.35336C22.3712 3.91675 21.3124 4.31039 20.208 4.51633C19.5321 3.81421 18.6555 3.32636 17.692 3.11602C16.7286 2.90569 15.7225 2.98256 14.8043 3.33668C13.8862 3.69081 13.0982 4.30585 12.5425 5.10209C11.9869 5.89833 11.6892 6.83905 11.688 7.80233C11.6892 8.17264 11.7322 8.54169 11.816 8.90286C9.85667 8.80252 7.9409 8.30103 6.19324 7.43099C4.44557 6.56095 2.90511 5.34184 1.672 3.85289C1.04039 4.90952 0.846799 6.16179 1.13088 7.35316C1.41496 8.54454 2.15522 9.58484 3.2 10.261C2.41999 10.2376 1.65718 10.0315 0.976 9.65997C0.972089 9.6806 0.972089 9.70177 0.976 9.72241C0.985955 10.8264 1.38377 11.8936 2.10302 12.7459C2.82227 13.5983 3.81942 14.1841 4.928 14.4055C4.50539 14.5161 4.06955 14.5713 3.632 14.5694C3.32062 14.5687 3.00998 14.5399 2.704 14.4836C3.0187 15.4384 3.63112 16.2736 4.45578 16.8725C5.28044 17.4714 6.27618 17.8041 7.304 17.8242C5.56082 19.1588 3.40782 19.8819 1.192 19.877C0.79438 19.887 0.396497 19.8766 0 19.8458C2.25146 21.2536 4.86982 22.0013 7.544 22Z" fill="#1DA1F2"/>
</svg>
