<svg width="24" height="24" viewBox="0 0 24 24" fill="none" xmlns="http://www.w3.org/2000/svg">
<path d="M23.4972 6.15484C23.3633 5.64017 23.0964 5.17026 22.7236 4.79277C22.3509 4.41527 21.8855 4.14361 21.3747 4.00532C19.4997 3.5 11.9997 3.5 11.9997 3.5C11.9997 3.5 4.49966 3.5 2.62466 4.00532C2.11382 4.14361 1.64844 4.41527 1.27568 4.79277C0.902929 5.17026 0.636068 5.64017 0.502159 6.15484C0.155508 8.08344 -0.0127106 10.0402 -0.000341032 12C-0.0127106 13.9598 0.155508 15.9166 0.502159 17.8452C0.636068 18.3598 0.902929 18.8297 1.27568 19.2072C1.64844 19.5847 2.11382 19.8564 2.62466 19.9947C4.49216 20.5 11.9997 20.5 11.9997 20.5C11.9997 20.5 19.4997 20.5 21.3747 19.9947C21.8855 19.8564 22.3509 19.5847 22.7236 19.2072C23.0964 18.8297 23.3633 18.3598 23.4972 17.8452C23.8438 15.9166 24.012 13.9598 23.9997 12C24.012 10.0402 23.8438 8.08344 23.4972 6.15484Z" fill="#FF0000"/>
<path d="M9.54688 15.59L15.8169 11.9999L9.54688 8.40988V15.59Z" fill="white"/>
</svg>
