<svg width="24" height="24" fill="none" xmlns="http://www.w3.org/2000/svg"><path d="M23 12.066c0-2.115-.603-4.185-1.736-5.966a11.02 11.02 0 00-4.66-4.084A10.94 10.94 0 004.855 3.652a11.074 11.074 0 00-3.382 5.204 11.134 11.134 0 00-.06 6.217 11.078 11.078 0 003.28 5.269A10.97 10.97 0 0010.28 23v-7.732H7.49v-3.202h2.79V9.631c0-2.775 1.641-4.308 4.156-4.308a16.98 16.98 0 012.459.213v2.728h-1.383a1.562 1.562 0 00-1.314.421 1.583 1.583 0 00-.477 1.302v2.08h3.048l-.487 3.201h-2.561V23a10.983 10.983 0 006.644-3.744A11.109 11.109 0 0023 12.066z" fill="#1877F2"/></svg>