<svg width="24" height="24" fill="none" xmlns="http://www.w3.org/2000/svg"><path d="M16.446 1H7.554A6.561 6.561 0 001 7.554v8.892A6.561 6.561 0 007.554 23h8.892A6.561 6.561 0 0023 16.446V7.554A6.561 6.561 0 0016.446 1zm4.34 15.446a4.34 4.34 0 01-4.34 4.34H7.554a4.34 4.34 0 01-4.34-4.34V7.554a4.34 4.34 0 014.34-4.34h8.892a4.34 4.34 0 014.34 4.34v8.892z" fill="url(#paint0_linear)"/><path d="M12 6.31A5.696 5.696 0 006.31 12 5.696 5.696 0 0012 17.69 5.696 5.696 0 0017.69 12 5.696 5.696 0 0012 6.31zm0 9.167a3.477 3.477 0 110-6.954 3.477 3.477 0 010 6.954z" fill="url(#paint1_linear)"/><path d="M17.7 7.716a1.363 1.363 0 100-2.727 1.363 1.363 0 000 2.727z" fill="url(#paint2_linear)"/><defs><linearGradient id="paint0_linear" x1="12" y1="22.936" x2="12" y2="1.171" gradientUnits="userSpaceOnUse"><stop stop-color="#E09B3D"/><stop offset=".3" stop-color="#C74C4D"/><stop offset=".6" stop-color="#C21975"/><stop offset="1" stop-color="#7024C4"/></linearGradient><linearGradient id="paint1_linear" x1="12" y1="22.936" x2="12" y2="1.171" gradientUnits="userSpaceOnUse"><stop stop-color="#E09B3D"/><stop offset=".3" stop-color="#C74C4D"/><stop offset=".6" stop-color="#C21975"/><stop offset="1" stop-color="#7024C4"/></linearGradient><linearGradient id="paint2_linear" x1="17.701" y1="22.936" x2="17.701" y2="1.171" gradientUnits="userSpaceOnUse"><stop stop-color="#E09B3D"/><stop offset=".3" stop-color="#C74C4D"/><stop offset=".6" stop-color="#C21975"/><stop offset="1" stop-color="#7024C4"/></linearGradient></defs></svg>