<svg width="24" height="24" fill="none" xmlns="http://www.w3.org/2000/svg"><path d="M19.038 19.038h-2.961v-4.615c0-1.108 0-2.53-1.539-2.53-1.538 0-1.769 1.184-1.769 2.415v4.715H9.792V9.5h2.847v1.3h.038a3.116 3.116 0 012.808-1.538c3 0 3.553 1.976 3.553 4.546v5.23zM6.446 8.192A1.723 1.723 0 118.025 7.13 1.716 1.716 0 016.43 8.192h.015zm1.47 10.846H4.961V9.5H7.93l-.016 9.538zM20.515 2H3.475A1.462 1.462 0 002 3.446v17.108A1.461 1.461 0 003.477 22h17.038A1.47 1.47 0 0022 20.554V3.439A1.47 1.47 0 0020.515 2z" fill="#0A66C2"/><path d="M19.038 19.038h-2.961v-4.615c0-1.108 0-2.53-1.539-2.53-1.538 0-1.769 1.184-1.769 2.415v4.715H9.792V9.5h2.846v1.3h.039a3.116 3.116 0 012.807-1.539c3 0 3.554 1.977 3.554 4.547v5.23zM6.446 8.192A1.723 1.723 0 118.025 7.13 1.716 1.716 0 016.43 8.192h.015zm1.47 10.846H4.96V9.5h2.97l-.016 9.538z" fill="#fff"/></svg>