<svg width="24" height="24" fill="none" xmlns="http://www.w3.org/2000/svg"><path d="M7.544 22C16.608 22 21.6 14.679 21.6 8.333V7.71A9.893 9.893 0 0024 5.227c-.895.4-1.847.663-2.824.78a4.815 4.815 0 002.16-2.654 9.747 9.747 0 01-3.128 1.163 4.959 4.959 0 00-2.516-1.4 5.044 5.044 0 00-2.888.22 4.909 4.909 0 00-2.261 1.766 4.727 4.727 0 00-.727 3.8 14.25 14.25 0 01-5.623-1.471 13.923 13.923 0 01-4.521-3.578 4.692 4.692 0 00-.541 3.5A4.794 4.794 0 003.2 10.261 4.957 4.957 0 01.976 9.66a.168.168 0 000 .062 4.753 4.753 0 001.127 3.024 4.966 4.966 0 002.825 1.66 5.193 5.193 0 01-2.224.078 4.82 4.82 0 001.752 2.388c.824.6 1.82.932 2.848.952a10.023 10.023 0 01-6.112 2.053c-.398.01-.796 0-1.192-.031A14.224 14.224 0 007.544 22z" fill="#1DA1F2"/></svg>