<svg width="24" height="24" fill="none" xmlns="http://www.w3.org/2000/svg"><path d="M23.497 6.155a3.02 3.02 0 00-.773-1.362 2.996 2.996 0 00-1.35-.788C19.5 3.5 12 3.5 12 3.5s-7.5 0-9.375.505a3.003 3.003 0 00-2.123 2.15A31.903 31.903 0 000 12c-.013 1.96.156 3.917.502 5.845a3.007 3.007 0 002.123 2.15C4.492 20.5 12 20.5 12 20.5s7.5 0 9.375-.505c.51-.139.976-.41 1.349-.788a3.02 3.02 0 00.773-1.362c.347-1.928.515-3.885.503-5.845a31.914 31.914 0 00-.503-5.845z" fill="red"/><path d="M9.547 15.59l6.27-3.59-6.27-3.59v7.18z" fill="#fff"/></svg>