<svg width="539" height="143" viewBox="0 0 539 143" fill="none" xmlns="http://www.w3.org/2000/svg">
<mask id="mask0" style="mask-type:alpha" maskUnits="userSpaceOnUse" x="-7" y="-8" width="552" height="159">
<path d="M112 38.9999C58.5003 57.9999 2.81386 71.806 3.50012 89C4.77732 121 118.5 135 266.5 132C439.5 128.5 536.021 94.7511 534.666 60.7956C533.457 30.4999 411.1 5.58882 263 11.4999C215.478 13.3966 163.009 13.4837 124.5 20" stroke="black" stroke-width="15"/>
</mask>
<g mask="url(#mask0)">
<path fill-rule="evenodd" clip-rule="evenodd" d="M225.187 7.13776C224.417 7.79372 223.791 7.86364 223.052 7.37483C221.608 6.41986 215.205 8.93582 214.18 10.8604C213.596 11.9572 213.529 11.6789 213.914 9.75694L214.429 7.18637L210.764 7.69782C205.406 8.44635 203.852 8.52693 202.93 8.10405C201.741 7.55864 196.398 8.01215 195.265 8.75468C194.632 9.16891 194.174 9.09099 193.932 8.52626C193.636 7.83567 193.02 7.82568 190.812 8.47432C188.937 9.02506 187.57 9.07301 186.519 8.62549C185.343 8.12403 184.575 8.28918 183.278 9.32207C181.864 10.4482 180.98 10.5954 178.032 10.1985C176.082 9.93541 174.11 9.8202 173.65 9.94207C173.19 10.0633 170.744 10.2551 168.214 10.3676C160.904 10.6933 160.688 10.7186 160.688 11.2547C160.688 11.535 159.502 11.6249 158.052 11.4558C155.696 11.1801 155.466 11.2986 155.883 12.5699C156.197 13.5249 155.963 13.9924 155.174 13.9924C154.528 13.9924 153.998 13.5429 153.998 12.9935C153.998 12.3275 153.162 11.9945 151.49 11.9945C150.04 11.9945 148.981 12.3462 148.981 12.827C148.98 13.3411 147.686 13.6934 145.593 13.7486C141.739 13.8499 140.519 14.4459 142.315 15.3503C143.148 15.7698 143.208 15.9729 142.5 15.9803C141.925 15.9856 141.455 16.4398 141.455 16.9892C141.455 17.5386 140.89 17.9881 140.2 17.9881C139.51 17.9881 138.946 17.5386 138.946 16.9892C138.946 16.4398 139.322 15.9902 139.782 15.9902C140.242 15.9902 140.618 15.6906 140.618 15.3243C140.618 14.32 138.353 14.5251 137.847 15.5747C137.578 16.1328 136.624 16.3725 135.409 16.1874C133.564 15.907 133.438 16.0615 133.755 18.2225C134.081 20.4461 136.151 22.0031 137.206 20.8184C137.473 20.5194 138.727 20.2217 139.991 20.1578C141.256 20.0938 142.762 20.0073 143.336 19.9653C143.912 19.9233 145.228 20.0958 146.263 20.3482C147.668 20.6912 148.145 20.5387 148.145 19.7469C148.145 18.8845 148.543 18.8079 150.29 19.3366C153.517 20.3136 156.507 20.1458 156.507 18.987C156.507 18.3657 157.296 17.9881 158.598 17.9881C159.819 17.9881 160.688 18.371 160.688 18.9084C160.688 20.1697 167.304 20.2497 167.908 18.9957C168.148 18.4962 169.351 18.1033 170.579 18.122C174.835 18.1872 175.741 17.9834 175.741 16.9599C175.741 16.3945 176.212 15.9803 176.786 16.0402C177.361 16.0995 178.691 16.1128 179.742 16.0688C181.379 16.0016 181.526 15.8011 180.768 14.6737C180.047 13.5988 180.118 13.4283 181.157 13.7453C181.858 13.9598 182.431 14.5525 182.431 15.0626C182.431 15.5727 182.955 15.9902 183.596 15.9902C184.236 15.9902 184.975 16.4351 185.237 16.9785C185.936 18.4303 196.021 18.0447 198.319 16.4784C200.085 15.2737 202.098 14.8934 201.306 15.9143C201.054 16.2386 201.793 16.6475 202.949 16.824C204.104 16.9998 205.254 16.8793 205.505 16.5563C205.756 16.2326 206.311 16.1407 206.74 16.3519C207.168 16.5623 207.518 16.4171 207.518 16.0295C207.518 15.6419 208.293 15.3243 209.24 15.3243C210.187 15.3243 210.729 15.624 210.445 15.9902C210.127 16.3998 211.315 16.6176 213.532 16.5563C215.935 16.4897 216.385 16.3652 214.881 16.1827C213.275 15.9876 212.768 15.6173 213.116 14.8948C213.384 14.3374 213.834 14.1309 214.115 14.4359C214.906 15.2957 218.233 16.6562 219.545 16.6562C220.192 16.6562 222.455 15.3529 224.573 13.7593C227.21 11.7761 228.424 11.2061 228.424 11.9512C228.424 12.5493 227.289 13.5735 225.9 14.2261C223.06 15.5627 223.3 16.6562 226.432 16.6562C227.769 16.6562 228.313 16.3858 227.941 15.9063C227.524 15.3689 227.781 15.3443 228.847 15.8191C230.729 16.6582 233.442 16.1234 233.442 14.9134C233.442 14.4073 233.818 13.9924 234.278 13.9924C234.738 13.9924 235.114 14.392 235.114 14.8801C235.114 16.2733 244.963 16.1141 245.436 14.7136C245.729 13.8445 245.808 13.8639 245.888 14.8248C246 16.1674 247.698 16.3578 249.163 15.1911C249.924 14.5851 250.167 14.5818 250.167 15.1771C250.167 16.0482 264.853 16.0102 266.611 15.1352C267.147 14.8681 267.776 15.0266 268.01 15.4868C268.337 16.1254 268.636 16.0948 269.282 15.3563C269.746 14.8242 269.943 14.1535 269.72 13.8652C269.496 13.5775 269.897 13.5202 270.611 13.738C271.325 13.9564 271.909 14.4879 271.909 14.9201C271.909 15.7785 273.506 15.9743 279.853 15.8943C282.153 15.865 287.045 15.9097 290.725 15.9929C302.445 16.2586 303.169 16.2273 303.498 15.4415C303.721 14.9067 304.203 14.9747 305.068 15.6633C306.642 16.9166 311.82 16.9426 315.508 15.7152C317.944 14.9047 318.56 14.9047 319.951 15.7152C321.927 16.866 323.651 16.9719 322.251 15.8571C320.885 14.7696 320.99 13.9924 322.502 13.9924C323.192 13.9924 323.756 14.4419 323.756 14.9913C323.756 15.5407 324.415 16.0149 325.22 16.0442C326.024 16.0742 327.812 16.1694 329.192 16.256C330.572 16.3425 331.977 16.0935 332.315 15.7026C332.726 15.2271 332.933 15.267 332.942 15.8238C332.949 16.2819 333.801 16.6515 334.836 16.6462C336.145 16.6389 336.388 16.4691 335.633 16.0875C334.761 15.6473 334.79 15.3796 335.784 14.7229C336.791 14.0577 337.187 14.1562 337.927 15.2564C338.47 16.0642 339.337 16.4531 340.086 16.224C340.776 16.0136 341.804 16.1454 342.374 16.517C344.058 17.6165 346.815 17.7204 348.297 16.7408C349.196 16.1474 349.68 16.0888 349.68 16.5749C349.68 17.3681 352.382 17.6118 353.277 16.8993C354.481 15.941 360.477 16.0036 361.165 16.9818C361.892 18.0174 365.474 18.3038 370.825 17.7543C372.566 17.5752 375.107 17.6838 376.47 17.9948C377.833 18.3064 378.948 18.3197 378.948 18.0247C378.948 17.7297 379.889 17.4886 381.039 17.4886C382.189 17.4886 383.13 17.8656 383.13 18.3264C383.13 19.3273 386.279 20.1198 386.659 19.2141C386.803 18.8671 388.327 18.3311 390.044 18.0227C392.844 17.5199 393.165 17.5998 393.165 18.7986C393.165 19.9806 393.524 20.0805 396.301 19.6676C398.026 19.4112 399.145 19.4352 398.788 19.7209C397.851 20.4734 403.416 21.8559 404.589 21.162C405.156 20.8257 405.784 20.877 406.101 21.2852C406.399 21.6695 408.063 21.9838 409.799 21.9838C411.535 21.9838 413.227 22.1996 413.558 22.4633C414.495 23.2092 422.726 23.2245 423.897 22.4833C424.648 22.0071 424.942 22.1343 424.942 22.9341C424.942 23.8245 425.737 24.0389 428.914 24.0036C431.098 23.979 434.151 24.1528 435.697 24.3899C437.514 24.6682 438.727 24.5371 439.129 24.0189C439.606 23.4043 440.024 23.4249 440.918 24.1069C442.614 25.3995 446.423 26.6308 447.088 26.1014C448.128 25.2729 451.646 25.5686 452.106 26.5236C452.462 27.2621 452.814 27.2921 453.766 26.6634C454.972 25.8663 457.078 26.3111 456.377 27.2142C456.051 27.6331 458.412 27.7256 461.528 27.4153C462.103 27.358 462.603 26.7866 462.639 26.146C462.692 25.2143 462.803 25.181 463.193 25.9795C463.461 26.5289 464.241 27.3074 464.927 27.7096C465.613 28.1119 465.927 28.7585 465.626 29.1461C465.288 29.5823 465.686 29.7248 466.674 29.519C467.551 29.3366 469.637 29.7042 471.308 30.3355C472.981 30.9675 476.215 31.4849 478.496 31.4849C480.776 31.4849 482.643 31.7446 482.643 32.0616C482.643 32.3793 483.207 32.639 483.897 32.639C484.587 32.639 485.152 32.3074 485.152 31.9018C485.152 31.4962 485.716 31.3371 486.406 31.5482C487.096 31.7586 487.66 31.6408 487.66 31.2865C487.66 30.2269 489.949 30.5566 490.498 31.6947C491.248 33.2517 491.194 33.305 488.855 33.305C486.812 33.305 486.777 33.3622 488.161 34.4644C489.198 35.2902 489.715 35.3881 489.96 34.804C490.193 34.2466 491.184 34.519 493.053 35.6551C494.793 36.712 496.336 37.1628 497.252 36.8831C498.109 36.6214 498.996 36.8199 499.425 37.3699C499.823 37.8814 500.82 38.3003 501.64 38.3003C502.46 38.3009 503.178 38.6759 503.236 39.1327C503.293 39.5902 503.387 40.2162 503.445 40.5232C503.736 42.0849 511.075 43.3262 511.075 41.8138C511.075 41.3663 511.662 41.6666 512.378 42.4811C513.095 43.2962 513.475 44.2279 513.224 44.5515C512.614 45.3374 514.307 46.339 517.162 46.8824C518.546 47.1461 520.405 48.3848 521.761 49.9457C523.013 51.3875 524.5 52.5783 525.067 52.5922C525.633 52.6062 526.353 53.4313 526.666 54.4269C526.98 55.4219 527.93 56.8284 528.777 57.5529C529.823 58.4473 530.122 59.3097 529.705 60.2394C529.367 60.9919 529.174 62.7886 529.275 64.2311C529.376 65.6742 528.897 67.5362 528.211 68.3699C527.525 69.2037 526.964 70.3452 526.964 70.9079C526.964 71.4699 526.587 71.8549 526.126 71.7636C525.665 71.6717 524.812 72.3463 524.23 73.262C523.647 74.1777 522.331 75.2226 521.304 75.5842C520.278 75.9458 519.438 76.7549 519.438 77.3823C519.438 78.0103 518.906 78.7628 518.256 79.0558C517.606 79.3488 516.947 80.4876 516.793 81.5864C516.588 83.0415 516.054 83.6029 514.827 83.6522C512.617 83.7414 508.664 85.415 506.077 87.3569C504.938 88.212 503.908 88.8453 503.787 88.7634C503.168 88.3465 495.399 91.1268 493.736 92.3608C493.154 92.7924 492.678 93.5016 492.678 93.9365C492.678 94.3893 491.99 94.5844 491.07 94.3926C490.186 94.2088 488.295 94.6231 486.869 95.3143C485.442 96.0049 483.733 96.5703 483.07 96.5703C482.407 96.5703 480.473 97.5439 478.771 98.7333C477.07 99.9234 474.987 100.803 474.143 100.689C473.062 100.543 472.608 100.892 472.608 101.869C472.608 103.038 472.258 103.185 470.38 102.81C468.536 102.441 468.243 102.554 468.681 103.463C469.035 104.197 468.774 104.562 467.893 104.562C467.065 104.562 466.754 104.19 467.057 103.563C467.384 102.884 467.012 102.564 465.892 102.564C464.986 102.564 464.246 102.814 464.246 103.119C464.246 103.424 463.776 103.725 463.2 103.787C454.009 104.785 449.377 106.195 449.033 108.098C448.801 109.391 448.654 109.43 447.557 108.489C446.313 107.425 446.271 107.428 439.017 109.191C437.329 109.601 434.539 110.08 432.815 110.256C431.093 110.431 429.249 110.862 428.72 111.211C428.192 111.561 425.526 112.044 422.796 112.284C420.043 112.526 416.075 113.467 413.884 114.398C410.712 115.745 409.693 115.916 408.71 115.267C407.817 114.676 407.038 114.65 405.817 115.171C404.898 115.563 402.862 115.883 401.292 115.883C399.723 115.883 397.272 116.346 395.846 116.913C394.249 117.548 389.979 118.069 384.732 118.27C380.045 118.45 375.561 118.874 374.766 119.213C373.972 119.552 370.731 119.877 367.564 119.937C364.397 119.997 360.291 120.447 358.44 120.937C356.59 121.426 352.639 121.881 349.66 121.948C345.868 122.033 343.656 122.434 342.28 123.286C340.573 124.343 340.158 124.378 339.116 123.548C338.243 122.853 337.362 122.76 335.881 123.208C334.762 123.547 332.423 123.801 330.683 123.772C328.943 123.744 327.143 123.785 326.683 123.864C326.223 123.944 324.662 123.958 323.214 123.896C321.765 123.834 320.332 124.104 320.028 124.495C319.725 124.886 318.604 125.206 317.537 125.206C316.471 125.206 315.139 125.647 314.577 126.186C313.735 126.995 313.363 127.014 312.459 126.294C311.101 125.212 301.52 125.482 299.751 126.652C298.803 127.279 298.393 127.261 297.855 126.567C297.342 125.905 294.823 125.711 287.876 125.796C277.718 125.921 274.431 126.544 274.393 128.353C274.368 129.448 274.3 129.443 273.459 128.29C272.723 127.282 272.409 127.219 271.811 127.957C271.232 128.672 270.972 128.577 270.603 127.509C270.283 126.586 269.343 126.101 267.676 126C266.325 125.918 265.219 126.116 265.219 126.44C265.219 126.765 264.09 126.924 262.71 126.796C261.33 126.669 260.202 126.836 260.202 127.168C260.202 128.032 257.639 128.361 255.115 127.822C253.49 127.475 252.711 127.672 251.972 128.615C251.431 129.304 250.352 129.868 249.575 129.868C248.474 129.868 248.383 129.69 249.163 129.069C251.29 127.375 250.132 126.872 244.299 126.956C241.072 127.002 238.235 126.788 237.997 126.481C237.361 125.662 233.58 127.21 233.159 128.462C232.87 129.326 232.78 129.297 232.702 128.311C232.615 127.218 231.911 127.105 226.125 127.266C222.56 127.365 218.81 127.68 217.791 127.965C216.701 128.272 215.721 128.203 215.407 127.799C215.115 127.422 214.301 127.289 213.599 127.503C212.898 127.718 211.901 127.632 211.384 127.312C208.672 125.634 205.085 126.225 203.956 128.536C203.569 129.33 203.456 129.293 203.403 128.359C203.356 127.526 202.667 127.191 201.037 127.211C199.773 127.225 197.808 127.155 196.673 127.054C194.397 126.852 193.145 128.967 194.999 129.88C195.563 130.158 195.766 130.718 195.45 131.125C194.621 132.194 193.302 132.036 193.302 130.867C193.302 130.317 192.912 129.868 192.436 129.868C191.864 129.868 191.889 129.394 192.512 128.467C193.418 127.118 193.298 127.076 189.195 127.302C186.001 127.478 184.939 127.309 184.939 126.623C184.939 125.886 184.696 125.869 183.685 126.538C182.924 127.041 182.431 127.094 182.431 126.673C182.431 126.267 180.264 125.976 177.204 125.971C174.33 125.967 167.776 125.863 162.643 125.741C157.508 125.62 153.482 125.746 153.696 126.021C154.214 126.689 151.56 125.888 149.108 124.637C147.684 123.911 146.765 123.824 145.763 124.322C144.993 124.705 143.641 124.778 142.709 124.488C140.245 123.722 133.977 123.778 130.259 124.601C127.809 125.142 126.855 125.123 126.388 124.522C126.036 124.068 123.653 123.684 120.859 123.633C116.79 123.557 115.627 123.798 114.068 125.04C111.727 126.904 110.115 127.028 111.52 125.236C112.704 123.726 111.794 122.588 110.332 123.752C108.891 124.9 107.614 124.719 108.841 123.541C109.414 122.992 109.742 122.527 109.57 122.508C109.4 122.49 106.88 122.309 103.972 122.105C99.2317 121.773 98.4641 121.896 96.5374 123.304L94.389 124.873L94.941 123.042C95.5422 121.047 95.5974 121.07 89.8165 120.875C87.8613 120.808 86.2624 121.028 86.2624 121.363C86.2624 121.698 85.6712 121.501 84.9487 120.925C84.2253 120.349 82.9709 119.879 82.1606 119.879C81.3503 119.879 80.4472 119.687 80.1528 119.453C79.8593 119.219 78.1968 118.951 76.4599 118.858C68.4378 118.428 63.3175 117.801 62.2923 117.124C61.4644 116.577 60.8263 116.616 59.8303 117.275C58.6914 118.027 58.3201 117.983 57.4061 116.988C56.5949 116.105 56.2169 116.028 55.8874 116.68C55.5429 117.361 55.2912 117.371 54.7184 116.727C54.3161 116.276 53.1128 116.041 52.0441 116.205C50.9745 116.37 47.9958 115.915 45.4235 115.195C42.852 114.474 40.0749 114.056 39.2537 114.263C38.338 114.494 37.7551 114.301 37.7476 113.763C37.7376 113.117 37.516 113.149 36.9047 113.885C36.1947 114.74 35.8652 114.672 34.6184 113.416C33.8164 112.608 30.9974 111.293 28.3524 110.493C25.7073 109.693 23.544 108.84 23.544 108.599C23.544 108.357 22.2269 108.281 20.6171 108.431C17.9261 108.681 17.6902 108.561 17.6902 106.948C17.6902 105.523 17.2094 105.118 15.1179 104.785C13.3025 104.496 11.9076 103.57 10.3764 101.638C9.18311 100.132 8.29585 98.7992 8.40456 98.674C8.51411 98.5488 8.05836 98.0993 7.39187 97.6751C6.72622 97.2509 5.946 95.1838 5.6575 93.0827C5.19756 89.7223 5.33638 89.1616 6.81319 88.4271C7.7364 87.9682 8.49153 86.9154 8.49153 86.0876C8.49153 85.2605 8.85028 84.5832 9.28848 84.5832C9.72667 84.5832 10.7109 83.5343 11.4744 82.2524C12.2379 80.9704 13.3852 79.9215 14.0225 79.9215C14.6597 79.9215 15.1815 79.5439 15.1815 79.0831C15.1815 78.6216 15.9341 77.8697 16.854 77.4122C17.7739 76.9547 18.5265 76.0184 18.5265 75.3318C18.5265 74.6192 19.2883 73.9246 20.3027 73.7135C21.731 73.4159 21.9735 73.0103 21.5412 71.6378C21.016 69.9729 22.0922 69.267 23.1258 70.5982C23.4102 70.9645 23.9562 71.2642 24.3401 71.2642C25.3795 71.2642 26.148 69.2603 25.4489 68.3739C25.1144 67.9491 24.948 67.0773 25.081 66.436C25.2131 65.7954 24.8995 65.2706 24.3836 65.2706C23.8676 65.2706 23.6711 65.5616 23.947 65.9173C24.223 66.2729 23.5063 66.7517 22.354 66.9821C21.2016 67.2125 20.0317 67.9704 19.7541 68.6663C19.4773 69.3629 18.8995 69.9323 18.4705 69.9323C18.0415 69.9323 17.6902 70.2972 17.6902 70.7434C17.6902 71.1896 16.6893 72.2398 15.4667 73.0769C14.2432 73.9133 12.83 75.2719 12.3266 76.0943C11.8231 76.9174 10.1975 78.0402 8.71481 78.5896C7.22964 79.1397 6.01123 80.1027 6.00119 80.7333C5.98949 81.4745 5.54042 81.7422 4.72843 81.4945C3.27336 81.0497 3.14792 81.8148 4.28355 84.1949C4.95421 85.5981 4.80536 86.0137 3.42388 86.6024C2.50569 86.9939 1.98554 87.6113 2.26819 87.9755C2.55084 88.3391 2.30164 89.0977 1.7146 89.6611C0.921 90.4229 0.882534 90.9843 1.56575 91.856C2.12854 92.5726 2.1946 93.3911 1.73801 93.9658C0.721138 95.2451 0.767131 98.5682 1.80157 98.5682C2.2615 98.5682 2.66792 99.3926 2.70388 100.4C2.73984 101.406 2.95977 101.857 3.19141 101.398C3.73915 100.319 4.98766 100.319 4.86892 101.398C4.71421 102.804 7.8978 107.226 9.06436 107.226C9.66897 107.226 10.164 107.647 10.164 108.162C10.164 108.75 10.7477 108.977 11.7303 108.773C12.8024 108.549 13.8744 109.094 15.1322 110.5C16.1415 111.629 17.6953 112.553 18.5834 112.553C19.4723 112.553 20.199 113.003 20.199 113.552C20.199 114.101 20.7634 114.551 21.4533 114.551C22.1432 114.551 22.7077 114.876 22.7077 115.272C22.7077 115.669 23.1785 115.856 23.753 115.688C24.3284 115.521 24.7089 115.057 24.5993 114.658C24.4898 114.259 24.9606 114.104 25.6446 114.313C26.3287 114.522 26.8889 115.077 26.8889 115.545C26.8889 116.376 31.6664 118.547 33.4961 118.547C34.0021 118.547 34.4152 118.801 34.4152 119.111C34.4152 119.422 35.5817 119.702 37.0084 119.735C38.4342 119.767 40.2714 120.277 41.0909 120.868C42.0911 121.588 43.3003 121.797 44.7696 121.504C46.054 121.247 46.9588 121.346 46.9588 121.742C46.9588 122.114 47.7115 122.261 48.6313 122.07C50.5187 121.676 50.8248 120.823 49.2585 120.319C48.684 120.135 49.0603 119.96 50.0948 119.931C51.1827 119.901 51.9763 120.272 51.9763 120.812C51.9763 121.924 56.6334 123.51 59.2935 123.304C60.3279 123.224 61.175 123.437 61.175 123.778C61.175 124.808 63.8176 125.281 65.0443 124.47C65.9333 123.882 66.1925 123.943 66.1925 124.739C66.1925 125.515 67.4695 125.857 71.419 126.14C74.2941 126.346 77.7176 126.481 79.0289 126.443C81.1764 126.379 81.3662 126.188 80.9464 124.517C80.6186 123.212 80.8619 122.546 81.7676 122.269C83.7211 121.673 83.9786 121.781 83.4125 122.956C83.0128 123.786 83.282 123.954 84.5774 123.684C86.7249 123.237 86.7416 123.971 84.6125 125.193C83.093 126.065 83.0688 126.233 84.2997 127.317C85.243 128.146 86.05 128.317 87.0401 127.895C87.8354 127.556 88.9493 127.546 89.6124 127.873C90.2555 128.189 91.0507 128.316 91.3786 128.154C91.7072 127.993 93.0419 128.186 94.3456 128.585C95.6493 128.984 98.597 129.444 100.897 129.609C103.196 129.773 105.784 130.08 106.646 130.292C107.667 130.542 108.015 130.419 107.642 129.939C106.784 128.834 108.479 129.051 109.677 130.201C111.147 131.612 112.186 131.44 112.186 129.787C112.186 128.752 112.467 128.548 113.231 129.023C113.807 129.382 115.5 130.002 116.994 130.403C119.545 131.086 119.712 131.035 119.712 129.578C119.712 128.586 120.315 127.9 121.382 127.678C122.696 127.404 122.898 127.548 122.331 128.355C121.069 130.152 124.102 131.792 128.654 131.776C130.865 131.768 134.275 132.054 136.233 132.41C138.311 132.788 139.985 132.81 140.255 132.462C140.509 132.134 140.318 131.866 139.831 131.866C139.345 131.866 138.946 131.632 138.946 131.346C138.946 130.523 143.682 129.318 144.783 129.86C145.435 130.181 145.106 130.499 143.825 130.786L141.873 131.223L143.776 132.498C146.193 134.116 157.996 134.354 158.745 132.799C159.343 131.559 160.688 131.604 160.688 132.865C160.688 133.479 161.472 133.864 162.723 133.864C164.435 133.864 164.747 133.551 164.687 131.899C164.636 130.463 164.164 129.881 162.933 129.735C161.464 129.56 161.41 129.429 162.512 128.706C163.581 128.005 164.084 128.356 165.786 130.992L167.796 134.106L168.271 132.153C168.531 131.079 168.453 129.541 168.097 128.734C167.596 127.598 167.724 127.352 168.669 127.64C169.338 127.845 169.893 128.355 169.9 128.774C169.907 129.229 170.206 129.166 170.643 128.617C171.67 127.326 173.406 128.381 172.791 129.924C172.512 130.626 172.659 131.2 173.119 131.2C173.579 131.2 174.194 131.799 174.486 132.532C174.778 133.264 175.556 133.864 176.215 133.864C176.874 133.864 177.413 134.163 177.413 134.53C177.413 135.417 180.442 135.377 182.592 134.461C183.916 133.897 184.482 133.935 185.033 134.627C185.59 135.327 185.753 135.269 185.763 134.363C185.778 132.974 188.042 132.833 189.891 134.107C190.618 134.606 192.623 135.187 194.347 135.397C196.793 135.694 197.483 135.557 197.483 134.776C197.483 133.771 199.515 133.949 202.456 135.209C203.122 135.495 204.52 135.471 205.563 135.154C206.701 134.81 207.658 134.837 207.956 135.221C208.685 136.16 214.009 136.003 214.42 135.029C214.675 134.428 215.1 134.392 215.953 134.9C216.603 135.287 219.297 135.679 221.939 135.771C226.188 135.918 226.977 135.736 228.773 134.193L230.803 132.449L231.077 133.989C231.334 135.435 231.681 135.52 236.787 135.384C239.776 135.305 242.599 135.209 243.059 135.17C243.518 135.132 249.033 135.308 255.313 135.56C266.025 135.99 266.756 135.942 267.132 134.775C267.487 133.676 267.545 133.667 267.631 134.696C267.717 135.736 268.649 136.156 270.41 135.95C271.682 135.8 295.875 135.053 298.042 135.096C299.306 135.122 300.341 134.862 300.341 134.519C300.341 134.142 301.111 134.129 302.292 134.488C303.366 134.813 304.743 134.833 305.354 134.532C305.969 134.229 307.09 134.297 307.868 134.685C308.742 135.119 310.51 135.179 312.543 134.845C314.341 134.548 316.154 134.372 316.571 134.452C316.989 134.534 317.6 134.253 317.928 133.83C318.379 133.249 318.967 133.248 320.322 133.826C321.31 134.246 322.461 134.422 322.879 134.217C323.298 134.011 325.997 133.696 328.877 133.518C331.757 133.339 334.357 132.88 334.655 132.496C334.953 132.113 335.914 131.81 336.793 131.824C338.993 131.858 341.458 131.854 343.199 131.816C344.003 131.798 344.662 131.352 344.662 130.825C344.662 130.299 345.227 129.868 345.917 129.868C346.607 129.868 347.171 130.168 347.171 130.534C347.171 130.9 347.712 131.2 348.373 131.2C349.228 131.2 349.562 130.421 349.528 128.504C349.503 127.021 349.714 125.622 349.998 125.396C350.284 125.17 350.516 125.769 350.516 126.729C350.516 128.677 352.114 131.866 353.091 131.866C354.657 131.866 356.37 130.979 356.37 130.169C356.37 128.669 358.235 128.266 359.384 129.517C360.672 130.92 363.483 130.375 362.755 128.864C362.475 128.283 362.749 127.87 363.414 127.87C364.041 127.87 364.77 128.32 365.035 128.869C365.299 129.418 366.375 129.833 367.424 129.791C368.84 129.733 368.954 129.635 367.868 129.409C366.169 129.055 365.885 127.87 367.499 127.87C368.102 127.87 369.323 128.295 370.215 128.814C371.359 129.48 372.144 129.554 372.883 129.065C373.621 128.578 373.931 128.603 373.931 129.151C373.931 129.667 374.844 129.792 376.649 129.524C379.551 129.091 380.536 128.958 388.983 127.855C391.973 127.464 395.172 126.87 396.092 126.532C397.011 126.195 398.705 125.951 399.855 125.989C402.843 126.091 408.495 125.202 409.43 124.484C409.866 124.149 410.937 123.874 411.81 123.874C412.681 123.874 414.394 123.315 415.615 122.63C417.126 121.783 418.367 121.556 419.506 121.918C422.151 122.757 423.259 122.629 422.736 121.543C422.431 120.911 422.747 120.545 423.598 120.545C424.337 120.545 424.942 120.844 424.942 121.21C424.942 121.577 425.506 121.876 426.196 121.876C427.678 121.876 427.692 121.803 426.635 119.589C426.105 118.479 426.105 117.881 426.635 117.881C427.084 117.881 427.451 118.33 427.451 118.88C427.451 119.429 428.172 119.879 429.054 119.879C429.935 119.879 430.782 120.169 430.935 120.524C431.098 120.902 432.809 120.712 435.062 120.066C437.974 119.23 439.144 118.469 439.869 116.939L440.827 114.917L442.101 116.364C443.313 117.742 443.538 117.766 446.791 116.852C448.67 116.324 450.489 116.031 450.834 116.201C451.178 116.37 451.291 115.804 451.084 114.942C450.715 113.403 452.579 111.653 453.146 113.007C453.305 113.386 453.923 114.228 454.52 114.878C455.478 115.921 455.989 115.964 458.879 115.247C460.681 114.8 463.751 113.862 465.7 113.161C467.65 112.461 469.821 111.887 470.525 111.887C471.229 111.887 473.295 111.138 475.117 110.222C476.938 109.307 478.974 108.557 479.64 108.557C480.306 108.557 481.348 108.182 481.956 107.725C482.564 107.267 484.325 106.812 485.868 106.714C487.413 106.616 489.472 106.091 490.445 105.549C491.418 105.006 492.883 104.562 493.701 104.562C494.518 104.562 495.187 104.112 495.187 103.563C495.187 103.003 495.933 102.564 496.885 102.564C497.82 102.564 498.801 102.114 499.065 101.565C499.33 101.016 500.457 100.566 501.569 100.566C502.956 100.566 503.84 100.043 504.385 98.9011C505.163 97.2722 506.894 96.583 506.894 97.9022C506.894 98.8871 508.507 98.7107 509.941 97.5692C510.63 97.0198 511.831 96.5703 512.609 96.5703C513.388 96.5703 514.395 95.9203 514.849 95.1265C515.303 94.332 516.425 93.3584 517.341 92.9622C518.258 92.5659 519.839 91.5677 520.855 90.7432C521.871 89.9195 523.003 89.2322 523.37 89.2169C523.737 89.2009 524.978 88.2473 526.128 87.0965C527.278 85.9457 529.256 84.2189 530.525 83.2599C533.6 80.9324 538.49 73.1155 536.148 74.2683C534.456 75.1014 535.05 71.9534 537.207 68.6543C538.505 66.6691 539.272 64.871 538.911 64.6586C538.549 64.4455 538.252 62.1986 538.252 59.6653C538.25 56.5773 537.905 54.967 537.206 54.7812C536.632 54.6287 536.163 54.1119 536.163 53.6325C536.163 53.1523 535.633 52.5982 534.987 52.4011C534.341 52.2033 533.56 51.1258 533.25 50.0064C532.942 48.8869 532.342 47.8001 531.917 47.5909C531.492 47.3825 531.132 46.5547 531.115 45.7523C531.098 44.9498 530.252 43.532 529.234 42.6016C526.699 40.2848 521.11 37.0736 521.11 37.9327C521.11 38.3176 520.546 38.6326 519.856 38.6326C519.166 38.6326 518.602 38.3808 518.602 38.0738C518.602 37.7662 517.661 37.1728 516.511 36.7559C515.361 36.3384 514.411 35.4666 514.399 34.8173C514.378 33.612 509.626 31.3071 507.161 31.3071C506.426 31.3071 505.289 30.7823 504.634 30.1417C503.816 29.3406 503.313 29.2234 503.026 29.7674C502.743 30.3029 502.062 30.1231 500.916 29.21C499.74 28.2737 498.606 27.9853 497.205 28.265C496.073 28.4915 495.187 28.3743 495.187 27.9987C495.187 26.9118 489.189 24.2254 485.57 23.6906C483.73 23.4189 481.839 22.9428 481.368 22.6331C479.636 21.4943 470.9 19.5311 464.795 18.9091C462.883 18.7146 460.096 18.3018 458.601 17.9921C456.76 17.6112 455.883 17.6644 455.883 18.1579C455.883 18.5581 455.036 18.2631 454.002 17.5013C452.821 16.6322 450.563 15.9942 447.939 15.7871C445.639 15.6053 441.876 15.1212 439.576 14.7103C437.277 14.3001 433.216 13.8472 430.552 13.7034C427.887 13.5602 425.253 13.1546 424.698 12.8023C424.143 12.45 421.053 12.1344 417.834 12.1004C412.065 12.0398 410.694 11.9033 408.217 11.1461C405.966 10.4582 398.182 10.1772 398.182 10.7838C398.182 11.1095 397.487 11.0795 396.638 10.7172C395.576 10.2644 394.793 10.2984 394.129 10.8271C393.4 11.4072 393.165 11.3679 393.165 10.6686C393.165 9.99402 392.879 10.054 392.112 10.8884C390.924 12.1817 387.558 12.0585 386.491 10.6833C386.033 10.0939 384.937 9.94207 383.173 10.2231C381.381 10.5081 380.717 10.4116 381.098 9.9201C381.45 9.46725 380.944 9.50255 379.743 10.0147C378.157 10.6906 377.663 10.6533 376.879 9.79956C376.029 8.87389 375.833 8.88255 374.98 9.88147C374.099 10.9144 374.025 10.9104 373.98 9.83019C373.953 9.18955 373.836 8.63748 373.722 8.60418C373.607 8.57155 369.773 8.41172 365.203 8.24989C360.632 8.0874 356.433 7.65054 355.87 7.27894C355.169 6.81544 354.661 6.84141 354.258 7.36018C353.874 7.85432 352.612 7.95022 350.629 7.63522C345.451 6.81211 342.154 6.87937 342.154 7.80837C342.154 8.2792 341.777 8.66478 341.317 8.66478C340.857 8.66478 340.576 8.32781 340.69 7.91559C340.806 7.50336 339.958 7.08514 338.809 6.98592C337.659 6.88669 335.872 6.58968 334.836 6.32529C333.412 5.96235 332.955 6.10753 332.955 6.92199C332.955 7.51468 333.394 7.99883 333.931 7.99883C334.467 7.99883 334.625 8.22325 334.28 8.49696C333.936 8.77133 333.181 8.48031 332.603 7.85032C331.174 6.29333 327.277 6.18411 323.869 7.60525C321.653 8.52893 320.854 8.60418 320.106 7.95754C319.389 7.33887 319.413 7.25296 320.202 7.60725C320.844 7.89561 321.247 7.67651 321.247 7.03919C321.247 6.46847 320.767 6.00098 320.18 6.00098C318.879 6.00098 315.36 7.81503 313.93 9.22218C313.021 10.1172 312.885 10.0553 312.885 8.74736C312.885 7.54598 312.548 7.32822 311.213 7.66585C310.021 7.96686 309.54 7.78573 309.54 7.03453C309.54 6.2627 308.811 6.01363 306.822 6.10553C305.327 6.17546 303.496 6.46914 302.751 6.75883C302.006 7.04852 301.169 7.10446 300.891 6.8827C300.612 6.66027 296.932 6.39322 292.713 6.28867C286.912 6.14549 284.565 6.34794 283.084 7.12111C281.44 7.97885 281.053 7.99417 280.679 7.217C280.21 6.24405 277.136 6.07356 275.407 6.92465C274.848 7.19969 274.569 7.6552 274.787 7.93623C275.006 8.21726 274.67 9.03239 274.042 9.74629C273.067 10.8544 270.285 11.2633 267.728 10.6746C267.021 10.5121 271.442 9.11363 272.221 9.25415C272.622 9.32607 272.716 8.89919 272.43 8.3045C272.143 7.71047 271.909 6.94663 271.909 6.60832C271.909 6.25071 269.19 6.15614 265.428 6.38257C257.784 6.84207 257.92 6.8434 254.975 6.28334C253.216 5.94837 252.675 6.08955 252.675 6.8827C252.675 7.80171 252.414 7.81103 250.376 6.96461C247.227 5.65668 240.97 5.74126 238.488 7.1251C237.059 7.92224 236.377 8.01881 236.142 7.45808C235.656 6.29732 231.318 6.49378 230.026 7.73445C229.014 8.7054 228.794 8.68476 227.595 7.50536C226.474 6.40321 226.114 6.34794 225.187 7.13776ZM235.95 8.99776C235.95 9.54717 235.574 10.034 235.114 10.0799C234.654 10.1259 233.888 10.2005 233.412 10.2464C232.934 10.2924 232.187 10.7792 231.752 11.3286C230.627 12.7451 230.668 10.969 231.798 9.28678C232.818 7.76974 235.95 7.55198 235.95 8.99776ZM191.629 10.2904C191.629 10.4522 191.253 10.7692 190.793 10.9956C190.333 11.222 189.957 11.0895 189.957 10.7019C189.957 10.3143 190.333 9.99668 190.793 9.99668C191.253 9.99668 191.629 10.1285 191.629 10.2904ZM166.997 13.9451C166.175 15.0046 164.85 14.1416 165.435 12.9275C165.757 12.2596 166.213 12.1317 166.748 12.5579C167.198 12.9169 167.311 13.5409 166.997 13.9451ZM371.422 12.9935C371.422 13.5429 370.869 13.9924 370.194 13.9924C369.446 13.9924 369.154 13.6021 369.447 12.9935C369.712 12.4441 370.265 11.9945 370.675 11.9945C371.086 11.9945 371.422 12.4441 371.422 12.9935ZM380.143 12.494C379.727 12.769 379.105 13.2931 378.762 13.6594C378.406 14.0397 378.132 13.8252 378.125 13.1599C378.118 12.512 378.731 11.9945 379.506 11.9945C380.272 11.9945 380.559 12.219 380.143 12.494ZM163.197 13.9924C163.197 14.3587 162.821 14.6583 162.361 14.6583C161.901 14.6583 161.525 14.3587 161.525 13.9924C161.525 13.6261 161.901 13.3264 162.361 13.3264C162.821 13.3264 163.197 13.6261 163.197 13.9924ZM189.73 13.7287C189.453 13.9498 188.731 13.9737 188.128 13.7813C187.461 13.5688 187.659 13.411 188.633 13.379C189.515 13.3504 190.008 13.5076 189.73 13.7287ZM393.165 14.709C393.165 15.0239 392.6 15.1099 391.91 14.8994C391.22 14.6883 390.656 14.2574 390.656 13.9418C390.656 13.6268 391.22 13.5409 391.91 13.7513C392.6 13.9624 393.165 14.3933 393.165 14.709ZM410.726 13.9924C410.726 14.3587 410.067 14.6537 409.262 14.6484C408.011 14.6397 407.981 14.5438 409.053 13.9924C410.631 13.1799 410.726 13.1799 410.726 13.9924ZM147.726 15.3243C148.011 15.6906 147.844 15.9902 147.358 15.9902C146.871 15.9902 146.472 15.6906 146.472 15.3243C146.472 14.958 146.638 14.6583 146.841 14.6583C147.044 14.6583 147.442 14.958 147.726 15.3243ZM366.405 15.3243C366.405 15.6906 366.006 15.9902 365.519 15.9902C365.033 15.9902 364.866 15.6906 365.15 15.3243C365.435 14.958 365.833 14.6583 366.036 14.6583C366.239 14.6583 366.405 14.958 366.405 15.3243ZM387.273 16.9525C388.033 17.6824 388.067 17.9881 387.387 17.9881C386.856 17.9881 386.205 17.5386 385.941 16.9892C385.676 16.4398 384.935 15.9902 384.295 15.9902C383.654 15.9902 383.13 15.6799 383.13 15.301C383.13 14.4386 385.735 15.4768 387.273 16.9525ZM376.213 15.7265C375.935 15.9476 375.214 15.9716 374.611 15.7791C373.944 15.5667 374.142 15.4089 375.116 15.3769C375.997 15.3483 376.491 15.5054 376.213 15.7265ZM131.141 17.7663C130.052 18.6334 130.606 19.9859 132.047 19.976C133.204 19.968 133.269 19.8441 132.358 19.3839C131.724 19.0643 131.464 18.4696 131.78 18.0627C132.412 17.2482 132.02 17.0664 131.141 17.7663ZM407.154 19.7222C406.877 19.9433 406.155 19.9673 405.552 19.7748C404.885 19.5624 405.083 19.4046 406.057 19.3726C406.938 19.344 407.432 19.5011 407.154 19.7222ZM409.89 20.6519C409.89 21.0182 409.513 21.3178 409.053 21.3178C408.593 21.3178 408.217 21.0182 408.217 20.6519C408.217 20.2856 408.593 19.9859 409.053 19.9859C409.513 19.9859 409.89 20.2856 409.89 20.6519ZM419.088 20.9849C419.088 21.5343 418.712 21.9838 418.252 21.9838C417.792 21.9838 417.416 21.5343 417.416 20.9849C417.416 20.4355 417.792 19.9859 418.252 19.9859C418.712 19.9859 419.088 20.4355 419.088 20.9849ZM442.503 22.3561C442.503 22.9268 442.127 23.2091 441.667 22.9827C441.207 22.7563 440.831 22.2895 440.831 21.9445C440.831 21.5995 441.207 21.3178 441.667 21.3178C442.127 21.3178 442.503 21.7853 442.503 22.3561ZM473.444 28.3103C473.444 28.8597 472.88 29.3093 472.19 29.3093C471.5 29.3093 470.936 28.8597 470.936 28.3103C470.936 27.7609 471.5 27.3114 472.19 27.3114C472.88 27.3114 473.444 27.7609 473.444 28.3103ZM502.43 34.1374C502.199 34.5956 502.009 34.2206 502.009 33.305C502.009 32.3893 502.199 32.015 502.43 32.4725C502.663 32.9307 502.663 33.6799 502.43 34.1374ZM108.423 41.9623C108.139 42.3286 108.305 42.6283 108.792 42.6283C109.278 42.6283 109.677 42.3286 109.677 41.9623C109.677 41.5961 109.512 41.2964 109.309 41.2964C109.105 41.2964 108.707 41.5961 108.423 41.9623ZM97.2657 44.6261C97.2657 45.5418 97.4556 45.9167 97.6872 45.4586C97.9197 45.0011 97.9197 44.2519 97.6872 43.7937C97.4556 43.3362 97.2657 43.7104 97.2657 44.6261ZM79.728 45.4346C78.4251 46.4721 78.4569 47.4817 79.7815 47.0995C80.3568 46.9336 81.4615 47.2373 82.2376 47.7747C83.0136 48.3128 84.048 48.5552 84.5372 48.3148C85.7289 47.7281 85.6695 46.624 84.4469 46.624C83.9084 46.624 82.8488 46.1785 82.0937 45.6344C81.0342 44.8705 80.4931 44.8252 79.728 45.4346ZM68.4805 48.3541C68.2053 48.5732 68.1819 49.1706 68.4286 49.6827C68.7882 50.4292 68.1359 50.5325 65.1363 50.2048C62.7547 49.9451 61.1859 50.0676 60.818 50.5411C60.5002 50.9507 60.639 51.2856 61.1257 51.2856C61.6124 51.2856 62.0113 51.9975 62.0113 52.8673C62.0113 54.1106 62.4587 54.4489 64.1019 54.4489C65.5745 54.4489 66.1925 54.0866 66.1925 53.2236C66.1925 51.875 68.5214 50.629 70.1655 51.0985C70.8646 51.2983 71.0252 51.0113 70.6505 50.2334C70.2675 49.4396 70.4005 49.2225 71.0678 49.5508C71.6064 49.8159 72.0462 49.7473 72.0462 49.3983C72.0462 49.0494 71.4508 48.5825 70.7233 48.3601C69.1001 47.864 69.0951 47.864 68.4805 48.3541ZM73.7187 49.7813C73.7187 51.0093 75.2641 51.4162 76.8479 50.6057C78.0337 49.9984 78.0547 49.9171 76.9567 50.1842C76.2074 50.3666 75.173 50.1795 74.657 49.7686C73.9637 49.2165 73.7187 49.2199 73.7187 49.7813ZM55.7394 51.9516C55.4551 52.3179 55.6215 52.6175 56.1082 52.6175C56.5949 52.6175 56.9938 53.0424 56.9938 53.5612C56.9938 54.9284 58.9255 55.2367 60.0277 54.0453C60.7393 53.2762 60.7025 52.812 59.878 52.156C58.581 51.1225 56.4636 51.0179 55.7394 51.9516ZM50.0948 53.7423C49.2895 53.9102 48.6313 54.5881 48.6313 55.2487C48.6313 55.9093 47.9966 56.8616 47.2206 57.3644C45.9921 58.1596 45.8767 58.1343 46.3317 57.168C46.6419 56.5067 46.3676 55.9093 45.6518 55.6902C44.9912 55.4885 44.4501 55.6137 44.4501 55.9679C44.4501 56.3229 43.8856 56.6132 43.1957 56.6132C42.5058 56.6132 41.9414 56.9036 41.9414 57.2586C41.9414 57.6128 41.4154 57.7427 40.7715 57.5456C38.9033 56.9749 38.6691 58.1629 40.3759 59.5601C41.7566 60.6909 41.9414 60.7108 41.9414 59.7266C41.9414 59.1132 42.5058 58.6111 43.1957 58.6111C43.8856 58.6111 44.4501 59.0813 44.4501 59.6566C44.4501 61.4054 48.0593 60.5224 48.7225 58.6111C49.0863 57.5636 49.3321 57.3784 49.384 58.1116C49.4776 59.4129 50.7412 59.6646 51.6034 58.5532C51.9119 58.1549 52.8686 57.9758 53.7291 58.1549C55.0069 58.4206 55.1474 58.2648 54.5001 57.3012C54.0644 56.6532 53.9365 55.9406 54.2158 55.7182C54.7719 55.2747 52.928 53.2362 52.0834 53.3607C51.794 53.4034 50.9001 53.5752 50.0948 53.7423ZM55.3213 55.9473C54.2492 56.4987 54.2793 56.5946 55.5304 56.6033C56.3357 56.6086 56.9938 56.3136 56.9938 55.9473C56.9938 55.1348 56.8993 55.1348 55.3213 55.9473ZM33.415 60.9226C29.11 63.1342 28.6584 63.7016 30.8611 64.1325C31.6656 64.2897 31.102 64.297 29.6067 64.1485C26.7936 63.8688 25.8637 64.8151 28.2378 65.5403C29.0941 65.802 29.4286 66.4367 29.1527 67.2765C28.9135 68.0043 29.059 68.6004 29.4763 68.6004C29.8927 68.6004 30.2339 68.001 30.2339 67.2685C30.2339 65.8167 30.8502 65.6356 32.6682 66.5519C34.038 67.2425 36.9239 66.0531 36.9239 64.7985C36.9239 64.3203 37.5327 64.1365 38.3873 64.3556C39.5673 64.6579 39.6183 64.5993 38.6499 64.0526C37.6707 63.4992 37.6456 63.1862 38.5136 62.3531C39.3774 61.5246 39.3674 61.1031 38.4601 60.1188C37.3972 58.9654 37.148 59.0047 33.415 60.9226ZM16.4359 75.2599C16.7244 75.6315 16.0989 75.9212 15.0218 75.9158C13.468 75.9072 13.3359 75.7793 14.3453 75.2599C15.9015 74.4594 15.8145 74.4594 16.4359 75.2599ZM504.803 92.5746C505.088 92.9409 504.712 93.2406 503.967 93.2406C503.223 93.2406 502.847 92.9409 503.131 92.5746C503.415 92.2083 503.792 91.9086 503.967 91.9086C504.143 91.9086 504.519 92.2083 504.803 92.5746ZM490.458 99.5957C490.185 100.161 489.783 100.481 489.564 100.306C489.345 100.132 489.413 99.669 489.717 99.2787C490.541 98.2159 491.023 98.4223 490.458 99.5957ZM487.949 103.591C487.676 104.157 487.274 104.476 487.055 104.302C486.836 104.128 486.904 103.665 487.208 103.274C488.033 102.212 488.514 102.418 487.949 103.591ZM468.427 105.894C468.427 106.26 468.028 106.56 467.541 106.56C467.055 106.56 466.888 106.26 467.172 105.894C467.457 105.527 467.855 105.228 468.058 105.228C468.261 105.228 468.427 105.527 468.427 105.894ZM471.354 105.894C471.638 106.26 471.283 106.56 470.567 106.56C469.85 106.56 469.263 106.26 469.263 105.894C469.263 105.527 469.617 105.228 470.05 105.228C470.483 105.228 471.069 105.527 471.354 105.894ZM415.743 119.213C415.743 119.579 415.367 119.879 414.907 119.879C414.447 119.879 414.071 119.579 414.071 119.213C414.071 118.846 414.447 118.547 414.907 118.547C415.367 118.547 415.743 118.846 415.743 119.213ZM92.3954 125.272C92.7784 125.501 92.4966 125.869 91.7682 126.091C90.8141 126.383 90.4436 126.098 90.4436 125.074C90.4436 124.293 90.7263 123.924 91.0708 124.255C91.4154 124.586 92.0116 125.044 92.3954 125.272ZM106.942 126.274C106.664 126.495 105.943 126.519 105.34 126.327C104.672 126.115 104.871 125.957 105.845 125.925C106.726 125.896 107.22 126.053 106.942 126.274ZM312.049 128.869C312.049 129.443 311.294 129.868 310.274 129.868C308.791 129.868 308.67 129.703 309.54 128.869C310.113 128.32 310.912 127.87 311.315 127.87C311.718 127.87 312.049 128.32 312.049 128.869ZM220.48 129.202C220.764 129.568 220.388 129.868 219.644 129.868C218.899 129.868 218.523 129.568 218.807 129.202C219.092 128.836 219.468 128.536 219.644 128.536C219.819 128.536 220.196 128.836 220.48 129.202ZM187.448 129.454C187.448 129.591 186.884 130.078 186.194 130.534C185.166 131.213 184.939 131.167 184.939 130.282C184.939 129.688 185.504 129.202 186.194 129.202C186.884 129.202 187.448 129.315 187.448 129.454ZM242.64 129.496C242.64 129.657 242.264 129.974 241.804 130.201C241.344 130.427 240.968 130.295 240.968 129.907C240.968 129.52 241.344 129.202 241.804 129.202C242.264 129.202 242.64 129.334 242.64 129.496ZM205.497 131.2C206.149 131.2 206.682 131.799 206.682 132.532C206.682 133.264 206.467 133.864 206.204 133.864C205.243 133.864 203.75 132.164 203.57 130.867C203.469 130.134 203.594 129.91 203.849 130.367C204.104 130.825 204.845 131.2 205.497 131.2ZM170.723 132.532C170.723 133.39 171.146 133.862 171.769 133.697C172.344 133.545 172.814 133.02 172.814 132.532C172.814 132.044 172.344 131.519 171.769 131.366C171.146 131.201 170.723 131.673 170.723 132.532ZM223.978 132.657C223.711 133.188 223.513 133.03 223.473 132.254C223.437 131.552 223.634 131.159 223.912 131.38C224.189 131.601 224.22 132.176 223.978 132.657ZM226.334 134.53C226.618 134.896 226.263 135.195 225.547 135.195C224.83 135.195 224.243 134.896 224.243 134.53C224.243 134.163 224.597 133.864 225.03 133.864C225.463 133.864 226.049 134.163 226.334 134.53Z" fill="#EFE1CC"/>
</g>
</svg>
