<svg width="532" height="53" viewBox="0 0 532 53" fill="none" xmlns="http://www.w3.org/2000/svg">
<path fill-rule="evenodd" clip-rule="evenodd" d="M380.091 16.0421C379.914 16.1355 372.566 15.9657 363.761 15.6649C354.956 15.3637 344.674 15.0809 340.912 15.0357C330.842 14.9145 328.47 14.8241 327.76 14.534C327.408 14.3901 326.97 14.3523 326.784 14.4501C326.351 14.679 319.795 14.6379 307.469 14.3292C302.065 14.1942 297.423 14.1529 297.152 14.238C296.881 14.323 294.165 14.3933 291.117 14.3941C288.068 14.3949 285.481 14.529 285.365 14.6921C285.25 14.8552 284.551 14.8363 283.811 14.6499C282.61 14.3475 281.012 14.2537 277.667 14.2902C276.92 14.2983 276.714 14.4979 276.982 14.9529C277.341 15.5594 277.292 15.5562 276.27 14.9066C275.37 14.3339 274.547 14.2231 271.666 14.2853C269.736 14.327 266.832 14.2856 265.21 14.193C263.39 14.0891 262.256 14.1814 262.245 14.4338C262.234 14.708 261.567 14.7274 260.221 14.4933C259.117 14.301 257.934 14.1485 257.591 14.1548C257.249 14.1607 254.872 14.1099 252.309 14.0418C249.745 13.9738 247.389 13.9906 247.073 14.0786C246.376 14.2727 244.471 14.3049 236.748 14.2529C233.498 14.231 229.999 14.2433 228.971 14.2794C224.492 14.4384 219.299 14.4784 214.97 14.3871C212.406 14.3332 208.763 14.413 206.875 14.5643C203.366 14.8457 195.791 14.9265 191.992 14.7229C190.826 14.6604 189.635 14.8105 189.344 15.0562C188.914 15.4194 188.817 15.4139 188.825 15.0275C188.835 14.5816 187.378 14.5384 182.603 14.842C179.016 15.0704 175.579 15.1901 172.635 15.1899C170.753 15.1901 167.673 15.2149 165.79 15.2455C163.907 15.2765 160.547 15.2953 158.323 15.2877C156.1 15.28 154.279 15.2962 154.278 15.3234C154.276 15.3766 153.325 15.4796 150.926 15.6869C150.113 15.7571 147.311 15.8285 144.698 15.8458C139.578 15.8794 137.457 15.933 137.453 16.0286C137.451 16.062 135.77 16.0938 133.717 16.0995C127.752 16.1164 125.23 16.1858 121.573 16.433C119.686 16.5607 116.601 16.6982 114.717 16.7386C112.834 16.7793 110.19 16.836 108.843 16.8649C107.496 16.8938 106.116 17.0642 105.777 17.2433C105.379 17.4537 104.759 17.425 104.029 17.1628C103.289 16.8973 102.498 16.8629 101.748 17.0627C101.115 17.2313 99.0808 17.3404 97.2273 17.3052C95.3731 17.2699 93.1515 17.3646 92.2898 17.5152C91.4281 17.6661 89.7432 17.7921 88.5455 17.7958C83.424 17.8101 78.8417 18.0488 78.1584 18.3368C77.6973 18.5314 77.2889 18.5095 77.0642 18.278C76.831 18.0393 75.9915 18.0032 74.6803 18.1754C73.5663 18.3219 71.1469 18.4573 69.3029 18.4761C67.4583 18.4946 65.6995 18.5885 65.3931 18.6848C65.0874 18.7808 63.6518 18.8792 62.2039 18.9038C58.513 18.9668 56.2234 19.0921 53.3313 19.3893C51.9568 19.5306 50.3472 19.5383 49.7537 19.4062C49.1602 19.2742 48.669 19.2992 48.6615 19.4622C48.6534 19.6247 47.8398 19.7403 46.8523 19.719C45.8653 19.6974 44.5324 19.7828 43.8913 19.9085C43.2496 20.0343 41.2726 20.111 39.4973 20.0787C37.7226 20.0464 35.8841 20.187 35.412 20.3913C34.94 20.596 34.0079 20.7487 33.3399 20.7314C29.4581 20.6296 26.1056 20.766 25.4185 21.0538C24.986 21.2355 23.7188 21.4589 22.6033 21.5505C21.4872 21.6421 20.5687 21.8266 20.5618 21.9598C20.5543 22.0933 19.6403 22.2022 18.5299 22.2015C15.113 22.1994 14.0073 22.3673 14.185 22.8605C14.3092 23.2054 14.1393 23.2214 13.5604 22.9191C12.4496 22.339 9.0653 22.5655 7.51863 23.3235C6.8066 23.6723 5.77208 23.9386 5.21941 23.9153C3.86011 23.8581 0.292343 25.7678 1.12405 26.1076C1.47751 26.2524 1.58479 26.6741 1.362 27.0453C0.914438 27.7909 1.54586 28.7358 2.18068 28.2705C2.40148 28.1089 3.21954 27.798 3.99823 27.5797C5.24717 27.2296 5.4112 27.2637 5.38576 27.8678C5.36955 28.2528 5.9085 28.6608 6.61617 28.7995C7.67676 29.0074 7.81358 28.9195 7.48244 28.2449C7.26586 27.8041 6.6496 27.2081 6.11242 26.9207C5.25831 26.4628 5.32933 26.4309 6.68052 26.666C7.52966 26.8135 8.42487 26.9451 8.67067 26.958C8.91583 26.9713 8.94519 27.2196 8.73638 27.5101C8.52695 27.8006 8.66506 28.0513 9.04323 28.0672C9.42141 28.0831 9.7373 27.9383 9.74543 27.7452C9.75354 27.5526 10.2031 27.5134 10.745 27.6589C11.2863 27.8043 11.9865 27.7061 12.3 27.441C12.7645 27.0481 12.8668 27.0691 12.8545 27.554C12.8457 27.8816 13.323 28.2903 13.9142 28.4621C15.528 28.9313 20.2073 29.0181 21.1806 28.5965C21.825 28.3175 22.274 28.3795 23.0075 28.8502C23.7925 29.3534 23.9844 29.3749 24.0019 28.9606C24.0138 28.6785 24.5694 28.1881 25.2372 27.8712C26.4172 27.3103 26.4344 27.331 25.8725 28.6196C25.4393 29.6147 25.5147 30.0852 26.1749 30.5088C27.3555 31.2656 28.8928 30.9364 28.9476 29.9145C28.9783 29.3491 29.1458 29.2422 29.4782 29.5751C29.7612 29.8577 30.4299 29.9776 31.0749 29.8615C31.6854 29.7515 32.3627 29.8439 32.5797 30.0667C33.0269 30.5264 37.6422 30.0347 37.6637 29.5251C37.6705 29.3628 37.4221 29.3099 37.1119 29.4072C36.8011 29.5047 36.3954 29.3302 36.2088 29.0194C35.9333 28.5594 36.0948 28.5353 37.0827 28.8897C37.7488 29.1289 38.299 29.2123 38.3047 29.0746C38.3105 28.9374 38.8617 29.1434 39.5296 29.5326C40.6219 30.1692 40.7465 30.1799 40.7692 29.641C40.7831 29.3114 41.2136 29.0593 41.7259 29.0809C42.2382 29.1024 43.2796 28.7915 44.0405 28.3896C44.9376 27.9158 45.2829 27.8542 45.0239 28.2144C44.4544 29.0046 45.1263 29.2832 46.2143 28.7083C47.4244 28.0695 48.2978 28.1263 48.2677 28.8423C48.2544 29.1577 48.5962 29.3582 49.0265 29.2878C49.4575 29.2175 49.7518 28.7865 49.6814 28.3304C49.5687 27.5957 49.6696 27.5629 50.5644 28.0436C51.4775 28.5337 51.5516 28.4723 51.3303 27.4068C51.1349 26.4629 51.2457 26.313 51.885 26.6567C52.3662 26.915 52.5194 27.4286 52.2692 27.9481C51.8827 28.7507 52.0083 28.8108 54.0864 28.8167C56.3318 28.8231 57.232 28.3346 56.6781 27.4104C56.5136 27.1361 56.7943 26.7321 57.3019 26.5122C58.0667 26.1813 58.2867 26.3041 58.5934 27.2342C58.8746 28.0899 59.3026 28.3699 60.3986 28.416C61.9374 28.4809 62.8859 27.7313 61.9912 27.1578C61.6708 26.9524 61.9857 26.6387 62.7594 26.3934C63.48 26.1647 63.8777 26.1448 63.6421 26.349C63.3909 26.5666 63.7288 26.7423 64.4553 26.7729C65.1384 26.8016 65.8767 26.6695 66.0963 26.4792C66.9059 25.7768 67.6759 26.2079 67.2376 27.1186C66.8967 27.8266 66.9992 28.0225 67.6584 27.9247C68.1372 27.8538 68.6333 27.3755 68.7606 26.862C68.9943 25.9221 70.5598 24.9395 71.1855 25.3406C71.3708 25.4591 71.0307 25.9581 70.4303 26.4487C69.7738 26.9856 69.614 27.3529 70.0307 27.3705C70.4113 27.3865 70.7284 27.2714 70.735 27.1146C70.7416 26.9578 71.6075 26.8274 72.6583 26.8248C73.831 26.8223 74.4125 26.9571 74.162 27.1741C73.5377 27.7155 74.816 27.6417 75.6824 27.0857C76.1024 26.8161 76.8136 26.694 77.262 26.8145C77.7105 26.9346 78.2449 26.8878 78.4502 26.7099C78.6549 26.5324 79.4921 26.4901 80.3104 26.6163C81.1287 26.7426 81.9944 26.6756 82.2346 26.4673C82.795 25.9812 86.9498 26.1449 86.9284 26.6523C86.9195 26.8631 87.2262 26.9373 87.6101 26.8171C88.1087 26.6607 88.0957 26.5117 87.5655 26.2949C86.5406 25.8759 87.7414 25.5303 90.9326 25.3255C92.7346 25.2094 93.6632 25.3157 94.2744 25.7075C95.4574 26.4659 96.4839 26.434 96.0235 25.6534C95.6716 25.0563 95.7209 25.054 96.6194 25.6238C97.7597 26.3466 100.006 26.2895 101.726 25.4941C103.349 24.7436 104.678 24.6643 104.186 25.3474C103.971 25.646 104.066 25.9015 104.397 25.9154C104.728 25.9293 105.006 25.7596 105.015 25.5384C105.027 25.2743 105.778 25.2494 107.196 25.4651C109.074 25.751 109.363 25.7004 109.389 25.08C109.421 24.3285 112.518 22.8122 113.139 23.2443C113.337 23.3826 113.147 23.5538 112.716 23.6245C112.286 23.6957 111.921 24.0507 111.906 24.414C111.868 25.3085 114.027 25.0646 114.847 24.0818L115.459 23.3482L116.691 24.138C117.801 24.8494 118.089 24.8848 119.587 24.4951C121.042 24.117 121.248 24.1323 121.228 24.6172C121.215 24.9305 121.745 25.1948 122.447 25.2243C123.13 25.2531 123.695 25.1137 123.704 24.9145C123.712 24.7153 124.418 24.5817 125.271 24.6177C126.125 24.6537 126.832 24.5027 126.841 24.2822C126.85 24.0616 127.238 23.9836 127.704 24.1085C128.214 24.2453 128.528 24.1091 128.496 23.7652C128.463 23.4199 128.996 23.1913 129.846 23.1857C131.136 23.1773 131.177 23.2352 130.358 23.9046C129.536 24.5767 129.581 24.6348 130.94 24.6576C131.751 24.6707 132.604 24.5811 132.837 24.4585C133.07 24.3355 133.597 24.4158 134.008 24.6366C135.015 25.1775 138.194 24.4831 137.79 23.8105C137.434 23.2143 138.2 23.1983 139.112 23.7831C139.586 24.0868 140.133 24.1116 141.037 23.8707C142.02 23.6088 142.373 23.6563 142.63 24.0855C142.812 24.3888 143.476 24.6588 144.106 24.6853C145.724 24.7535 148.927 22.898 148.48 22.1514C148.255 21.7762 148.367 21.6521 148.779 21.8204C149.14 21.9684 149.278 22.4063 149.084 22.794C148.663 23.6361 149.115 24.5335 149.978 24.5698C150.32 24.5842 150.449 24.3447 150.265 24.0377C149.89 23.412 151.453 23.3189 152.049 23.9314C152.252 24.1395 152.891 24.3166 153.469 24.3254C154.116 24.3349 154.225 24.2582 153.752 24.1258C153.33 24.0071 153.018 23.5579 153.06 23.1276C153.134 22.3695 153.153 22.3681 153.64 23.0914C153.917 23.5022 154.172 23.6257 154.207 23.366C154.242 23.1062 154.546 23.0062 154.882 23.1437C155.218 23.2812 155.511 23.1807 155.533 22.9204C155.557 22.6341 155.931 22.7482 156.479 23.2091C157.256 23.863 157.472 23.8978 157.997 23.4545C158.334 23.1705 158.496 22.7372 158.356 22.4922C158.21 22.2354 158.459 22.1425 158.946 22.2729C159.95 22.5426 160.612 23.4979 160.101 23.9404C159.626 24.3528 160.572 24.3785 162.644 24.0098C163.745 23.8138 164.203 23.5236 163.984 23.1592C163.802 22.8551 163.924 22.6175 164.254 22.6314C164.585 22.6453 164.849 22.8096 164.841 22.9965C164.81 23.7407 167.479 23.2922 168.078 22.4525C168.586 21.7414 168.81 21.6793 169.254 22.1287C169.555 22.4338 169.632 22.9743 169.422 23.3294C169.09 23.8937 169.305 23.9568 171.126 23.8278C172.273 23.7466 173.705 23.7035 174.311 23.7316C174.915 23.7599 175.255 23.6229 175.064 23.4274C174.874 23.2321 175.13 23.0895 175.634 23.1107C176.138 23.1319 176.66 23.3578 176.793 23.613C176.982 23.9747 177.266 23.9772 178.085 23.6246C178.663 23.3761 179.697 23.2825 180.383 23.417C181.07 23.5515 182.038 23.4471 182.534 23.1847C183.088 22.892 183.577 22.8531 183.802 23.0835C184.3 23.5947 187.137 23.5411 187.973 23.0052C188.487 22.6753 188.327 22.5568 187.31 22.514C186.107 22.4633 186.053 22.3783 186.776 21.6752C187.472 20.9988 187.608 20.9799 187.783 21.5362C187.893 21.8902 188.502 22.2014 189.136 22.2281C189.769 22.2548 190.648 22.5069 191.088 22.7885C191.531 23.0716 193.557 23.4098 195.625 23.5459C198.829 23.7567 199.621 23.675 201.186 22.9718C202.853 22.2221 205.151 22.173 204.306 22.9051C204.11 23.0753 204.222 23.2263 204.555 23.2403C204.888 23.2543 205.31 23.0678 205.493 22.8263C205.759 22.4747 205.832 22.4777 205.855 22.8415C205.902 23.5524 210.053 23.589 210.789 22.885C211.292 22.4033 211.575 22.384 212.318 22.7832C213.048 23.1753 213.299 23.1823 213.574 22.819C213.813 22.5026 214.067 22.4901 214.414 22.7782C214.686 23.0056 215.889 23.2195 217.085 23.2535C218.922 23.3059 219.237 23.1965 219.113 22.5484C219.032 22.1267 219.423 21.584 219.981 21.3423C220.876 20.9548 220.943 21.0099 220.555 21.8157C220.305 22.3352 220.401 22.8442 220.777 22.9983C221.141 23.1468 221.446 23.0904 221.455 22.8727C221.465 22.6424 222.184 22.5754 223.173 22.7125C224.108 22.8418 224.872 22.9749 224.871 23.0075C224.869 23.0401 225.67 23.1775 226.65 23.3124C228.222 23.5289 228.394 23.465 228.116 22.7668C227.823 22.0325 227.877 22.0206 228.868 22.5982C230.198 23.3733 231.384 23.4487 231.413 22.7602C231.425 22.473 231.767 22.1344 232.173 22.0071C232.669 21.8516 232.772 21.9677 232.488 22.3618C232.177 22.7931 232.409 22.9621 233.365 23.0024C234.396 23.0458 234.522 22.9484 233.976 22.5293C233.423 22.1051 233.596 22.0144 234.852 22.0673C235.765 22.1058 236.407 22.3403 236.395 22.6312C236.367 23.2983 237.387 23.3096 237.864 22.6477C238.072 22.3571 238.601 22.1476 239.038 22.1816C239.66 22.2303 239.663 22.2761 239.049 22.3935C238.618 22.4763 238.258 22.6988 238.25 22.8885C238.242 23.0921 238.75 23.096 239.494 22.8977C240.186 22.7132 240.747 22.6954 240.74 22.8584C240.711 23.5563 244.144 23.4016 246.134 22.6154C248.165 21.812 248.249 21.8083 248.219 22.5211C248.18 23.4558 250.331 23.6233 251.27 22.7588C251.636 22.4219 251.929 22.3533 251.929 22.6051C251.929 22.8681 252.739 23.0927 253.858 23.1399C255.188 23.1959 255.697 23.0704 255.497 22.7362C255.12 22.1068 259.452 22.0788 260.064 22.7068C260.301 22.9501 260.824 23.0465 261.227 22.9201C261.76 22.7529 261.779 22.5534 261.297 22.1833C260.901 21.8797 260.873 21.6017 261.225 21.491C261.549 21.3893 261.953 21.6555 262.123 22.0821L262.433 22.8577L264.308 22.1701C266.503 21.365 267.198 21.3228 266.692 22.0242C266.492 22.3024 266.659 22.6229 267.062 22.7367C267.466 22.851 267.251 22.9341 266.584 22.9216C265.846 22.9079 265.597 23.0353 265.949 23.2474C266.266 23.4389 267.428 23.5517 268.531 23.4981C270.128 23.4202 270.517 23.241 270.435 22.6193C270.374 22.1582 270.648 21.8885 271.104 21.9615C271.529 22.0294 271.889 21.8813 271.904 21.6324C271.924 21.331 272.126 21.3696 272.512 21.7487C272.831 22.0614 273.107 22.1547 273.126 21.9559C273.145 21.7572 273.386 21.8206 273.662 22.0967C273.938 22.3729 275.314 22.7377 276.719 22.9072C278.88 23.1684 279.478 23.0913 280.595 22.4083C281.79 21.6772 281.88 21.669 281.541 22.3234C281.263 22.8617 281.483 23.0792 282.406 23.1761C284.35 23.3799 285.669 23.4268 287.685 23.364C288.713 23.3318 290.393 23.3101 291.42 23.3159C293.122 23.3252 293.19 23.2791 292.205 22.7925C291.182 22.2875 291.192 22.2513 292.389 22.1199C293.205 22.0306 293.646 22.1576 293.632 22.4792C293.62 22.7657 293.998 22.9079 294.521 22.8135C295.022 22.7235 295.767 22.7868 296.177 22.9543C296.587 23.1221 298.064 23.2757 299.458 23.296C300.853 23.3163 303.323 23.3525 304.947 23.3766C306.821 23.4044 307.907 23.2549 307.919 22.9677C307.931 22.6918 308.787 22.5508 310.112 22.6066C311.307 22.6569 312.278 22.8709 312.269 23.0816C312.26 23.2924 312.549 23.3724 312.911 23.2589C313.273 23.1453 313.961 23.2636 314.442 23.5214C315.046 23.8458 315.849 23.9087 317.05 23.7249C318.004 23.5789 319.86 23.5711 321.174 23.7074C322.859 23.8821 323.438 23.8274 323.141 23.5221C322.882 23.2561 323.087 23.1487 323.673 23.2441C324.198 23.3293 325.09 23.0923 325.656 22.717C326.671 22.0443 326.679 22.0458 326.266 22.8334C325.966 23.406 326.113 23.6433 326.784 23.6716C327.299 23.6932 327.912 23.5446 328.147 23.3415C328.381 23.138 328.961 23.0757 329.434 23.2026C329.912 23.3309 330.303 23.2142 330.315 22.9408C330.354 22.0064 332.184 22.081 333.193 23.058C334 23.8398 334.606 24.0097 336.642 24.0254C338.033 24.0361 339.263 23.8357 339.457 23.5671C339.646 23.3044 340.215 23.201 340.722 23.337C341.228 23.473 342.083 23.3958 342.622 23.1656C343.465 22.806 343.547 22.8592 343.208 23.5469C342.991 23.9866 342.895 24.3501 342.995 24.3543C343.626 24.3808 346.751 23.3896 347.22 23.0142C347.578 22.7278 347.63 22.9121 347.36 23.5139L346.935 24.4676L352.372 24.5573C355.362 24.6063 358.093 24.4967 358.441 24.3133C358.788 24.1298 359.266 23.3808 359.504 22.6489C359.742 21.9169 360.29 21.2645 360.722 21.1992C361.326 21.1079 361.349 21.3022 360.822 22.0404C360.445 22.5681 360.271 23.0861 360.436 23.1913C360.6 23.2966 360.442 23.6756 360.085 24.0331C359.581 24.5373 359.65 24.6929 360.388 24.724C360.913 24.7461 361.348 24.6113 361.356 24.4244C361.364 24.2376 361.859 24.1231 362.455 24.1703C363.052 24.2172 364.144 24.1656 364.883 24.056C365.689 23.9365 366.554 24.0567 367.048 24.3572C368.378 25.1671 370.285 25.0407 371.117 24.0874L371.881 23.2126L371.889 24.2226C371.897 25.2276 371.914 25.2323 375.475 25.2081C377.443 25.1948 380.362 25.2307 381.962 25.2879C384.383 25.3746 384.947 25.2642 385.33 24.6269C385.737 23.9471 385.851 23.9319 386.343 24.4907C386.776 24.9809 387.168 25.0475 388.122 24.7931C388.964 24.5691 389.342 24.5843 389.332 24.8418C389.323 25.0479 389.735 25.2343 390.247 25.2559C390.76 25.2775 391.172 25.452 391.164 25.6435C391.141 26.1987 402.747 26.3338 404.003 25.7928C404.874 25.4181 405.111 25.424 405.321 25.8265C405.509 26.1853 406.023 26.1093 407.235 25.5443C408.146 25.1191 408.499 25.0443 408.019 25.3782C406.937 26.1304 407.548 26.6155 408.861 26.0471C409.646 25.7068 409.827 25.7217 409.826 26.1269C409.825 26.4614 410.131 26.4086 410.759 25.9649C411.273 25.6019 411.874 25.4208 412.095 25.5618C412.315 25.7031 412.902 25.5526 413.398 25.2274C414.06 24.7942 414.383 24.7613 414.607 25.1049C414.775 25.3627 415.242 25.4908 415.644 25.3891C416.047 25.2878 415.696 25.4936 414.865 25.8465C413.89 26.2604 413.594 26.5864 414.031 26.7648C414.403 26.9169 415.343 26.6535 416.118 26.179C417.617 25.2629 419.542 25.0573 418.952 25.8763C418.608 26.3531 419.524 27.2145 420.415 27.252C420.664 27.2625 421.007 26.9095 421.177 26.4678C421.48 25.6821 421.495 25.6813 421.887 26.4314C422.251 27.1277 422.727 27.2098 427.061 27.3215C429.686 27.3893 431.905 27.4134 431.992 27.3754C432.471 27.1652 437.65 27.4471 438.895 27.751C439.827 27.9785 440.689 27.963 441.277 27.7084C441.889 27.4435 442.334 27.4398 442.601 27.6974C443.343 28.4118 445.698 28.6314 446.559 28.0665C447.261 27.6063 447.22 27.5545 446.286 27.7179C445.605 27.8369 445.196 27.7374 445.208 27.4549C445.242 26.6447 447.57 26.9408 447.932 27.8014C448.215 28.4758 448.373 28.5228 448.904 28.0891C449.253 27.8045 449.535 27.7579 449.531 27.986C449.519 28.6062 451.297 28.9623 452.632 28.6067C453.307 28.4265 453.946 28.4371 454.136 28.6316C454.53 29.0371 459.506 29.1436 460.691 28.7716C461.249 28.597 461.376 28.6419 461.072 28.9059C460.776 29.162 461.122 29.3187 462.046 29.3475C463.423 29.3902 467.812 29.8719 467.807 29.9798C467.806 30.0088 469.131 30.1389 470.75 30.2695C472.369 30.4001 473.7 30.4021 473.707 30.274C473.714 30.1462 474.976 30.0796 476.513 30.1269C478.568 30.1896 479.3 30.3513 479.284 30.7392C479.269 31.0836 479.684 31.2197 480.481 31.1325C481.153 31.0588 481.824 31.1905 481.975 31.4251C482.126 31.6596 482.284 31.5556 482.326 31.1942C482.396 30.5964 482.489 30.5919 483.354 31.1468C484.251 31.7216 484.876 31.8259 489.491 32.1715C490.515 32.2484 491.953 32.4483 492.685 32.6159C493.417 32.7839 494.197 32.7648 494.417 32.5742C494.671 32.3538 495.355 32.3706 496.292 32.6201C497.319 32.8938 497.865 32.8852 498.088 32.5913C498.265 32.3593 498.42 32.4554 498.432 32.8053C498.444 33.1552 498.663 33.4561 498.919 33.4745C500.877 33.6147 504.525 34.1979 505.407 34.5115C506.281 34.8222 506.488 34.7399 506.524 34.0658C506.56 33.3991 506.681 33.349 507.148 33.8073C507.624 34.2754 507.732 34.2854 507.758 33.8631C507.775 33.5812 507.961 33.461 508.171 33.5957C508.382 33.7305 509.083 33.7001 509.729 33.5278C511.083 33.1669 511.12 33.2334 510.246 34.4584C509.742 35.1646 509.793 35.3699 510.481 35.3989C510.965 35.4193 511.532 35.2872 511.742 35.1052C512.17 34.7335 514.022 35.1181 514.642 35.7073C514.865 35.9184 515.797 36.1822 516.715 36.2927C517.633 36.4036 518.773 36.7433 519.248 37.0481C519.944 37.4943 520.353 37.5264 521.342 37.2121C522.019 36.9975 522.577 36.7127 522.583 36.579C522.597 36.2448 523.867 36.4532 525.517 37.06C526.567 37.4459 526.9 37.4643 526.914 37.1359C526.925 36.878 527.421 36.9899 528.15 37.415C529.956 38.4674 530.395 37.8702 528.995 36.2653C528.051 35.1829 527.911 34.6549 528.392 33.9829C528.821 33.3813 528.801 33.0572 528.328 32.9444C527.949 32.8541 527.391 32.3629 527.088 31.8528C526.786 31.343 526.005 30.8214 525.354 30.6939C524.703 30.5663 524.042 30.2475 523.885 29.9855C523.573 29.4644 512.263 26.874 511.233 27.0875C511.099 27.1152 510.782 26.9248 510.528 26.6645C510.275 26.4046 507.47 25.7963 504.295 25.3132C501.12 24.8298 497.828 24.3098 496.979 24.1572C496.13 24.0047 493.902 23.7244 492.029 23.5348C490.155 23.3448 488.084 23.0741 487.427 22.9328C486.77 22.7912 484.68 22.5621 482.783 22.4234C480.886 22.2844 478.639 22.0341 477.791 21.8671C476.943 21.7 473.876 21.4072 470.976 21.2161C468.076 21.0251 465.704 20.8454 465.705 20.8171C465.706 20.7889 464.522 20.6526 463.074 20.5147C461.46 20.3611 460.434 20.4152 460.424 20.6538C460.413 20.9179 460.134 20.8967 459.559 20.588C459.093 20.3373 456.448 20.0107 453.68 19.8626C450.913 19.7141 448.653 19.5022 448.658 19.3913C448.663 19.2809 444.127 18.9556 438.58 18.6687C433.032 18.382 428.074 18.1224 427.562 18.0918C427.05 18.0612 424.813 18.0177 422.59 17.9949C420.367 17.972 417.854 17.8223 417.005 17.6621C416.157 17.5019 414.549 17.4509 413.433 17.5483C412.317 17.646 411.409 17.5911 411.416 17.426C411.423 17.2608 410.657 17.1839 409.713 17.2548C407.294 17.4363 385.493 16.5784 382.714 16.1925C381.448 16.0166 380.268 15.9491 380.091 16.0421ZM434.695 25.7561C434.694 25.8993 434.295 25.9098 433.809 25.7794C433.324 25.649 433.097 25.3042 433.306 25.0133C433.616 24.5834 433.781 24.5791 434.192 24.99C434.469 25.268 434.695 25.6124 434.695 25.7561ZM315.548 20.2052C315.568 20.3555 315.666 20.7689 315.766 21.1232C315.865 21.4775 315.729 21.6782 315.463 21.5694C314.734 21.2713 314.303 19.8807 314.949 19.9079C315.258 19.9209 315.528 20.0549 315.548 20.2052ZM387.538 23.125C387.534 23.213 387.247 23.3736 386.901 23.4823C386.554 23.5911 386.277 23.5073 386.286 23.2965C386.295 23.0857 386.582 22.9247 386.923 22.9391C387.265 22.9535 387.541 23.037 387.538 23.125ZM362.955 23.3809C363.158 23.589 363.027 23.7467 362.666 23.7315C362.305 23.7163 362.015 23.5408 362.024 23.3416C362.032 23.1425 362.162 22.9847 362.313 22.991C362.464 22.9974 362.752 23.1728 362.955 23.3809ZM308.598 21.6144C308.594 21.7024 308.308 21.863 307.961 21.9718C307.614 22.0805 307.338 21.9967 307.347 21.7859C307.356 21.5751 307.642 21.4142 307.984 21.4285C308.325 21.4429 308.602 21.5264 308.598 21.6144ZM312.153 21.8233C311.942 21.9348 311.406 21.9253 310.962 21.8018C310.472 21.6654 310.622 21.5857 311.347 21.5988C312.002 21.6108 312.364 21.7117 312.153 21.8233ZM314.489 22.0653C314.692 22.2734 314.405 22.4246 313.853 22.4013C313.3 22.378 313.027 22.2033 313.247 22.013C313.466 21.8227 313.753 21.6715 313.883 21.677C314.014 21.6825 314.286 21.8572 314.489 22.0653ZM321.011 22.2975C321.003 22.4736 320.364 22.6835 319.592 22.7642C318.234 22.9055 318.227 22.8943 319.413 22.436C320.845 21.8827 321.029 21.8666 321.011 22.2975ZM298.647 21.5581C298.644 21.6461 298.357 21.8068 298.01 21.9155C297.664 22.0243 297.387 21.9404 297.396 21.7296C297.405 21.5189 297.692 21.3579 298.033 21.3723C298.375 21.3867 298.651 21.4701 298.647 21.5581ZM269.897 20.7692C269.685 20.8808 269.149 20.8713 268.706 20.7477C268.215 20.6113 268.366 20.5317 269.09 20.5448C269.745 20.5568 270.108 20.6577 269.897 20.7692ZM276.644 22.3537C276.434 22.634 276.29 22.542 276.278 22.1188C276.268 21.7359 276.423 21.5284 276.624 21.6574C276.825 21.7863 276.835 22.0998 276.644 22.3537ZM494.797 31.6545C494.759 32.5657 493.784 32.484 493.693 31.5619C493.641 31.0406 493.86 30.7625 494.211 30.9057C494.545 31.0423 494.809 31.3793 494.797 31.6545ZM236.776 20.9692C236.979 21.1773 236.848 21.3351 236.487 21.3199C236.126 21.3046 235.836 21.1292 235.845 20.93C235.853 20.7308 235.983 20.573 236.134 20.5794C236.285 20.5857 236.573 20.7611 236.776 20.9692ZM271.019 22.6113C271.197 22.9079 271.592 23.1611 271.897 23.174C272.79 23.2116 272.56 22.5724 271.587 22.3112C270.991 22.1512 270.803 22.2506 271.019 22.6113ZM513.36 32.8343C512.645 33.2925 512.675 33.4389 513.555 33.7673C515.023 34.316 514.894 34.9883 513.422 34.4598C512.793 34.2337 512.052 34.156 511.776 34.287C511.499 34.418 511.471 34.2346 511.711 33.879C511.951 33.5238 512.158 33.0017 512.17 32.7192C512.182 32.4368 512.645 32.2248 513.199 32.2481C514.052 32.284 514.076 32.3743 513.36 32.8343ZM203.309 20.7164C203.098 20.9967 202.955 20.9046 202.943 20.4815C202.932 20.0986 203.088 19.8911 203.289 20.02C203.49 20.1489 203.499 20.4624 203.309 20.7164ZM501.598 32.6451C501.594 32.7331 501.308 32.8938 500.961 33.0025C500.614 33.1113 500.338 33.0274 500.347 32.8167C500.356 32.6059 500.642 32.4449 500.984 32.4593C501.325 32.4737 501.602 32.5571 501.598 32.6451ZM503.452 32.926C503.444 33.1252 503.158 33.2764 502.816 33.2621C502.475 33.2477 502.202 33.0729 502.21 32.8737C502.219 32.6746 502.505 32.5233 502.847 32.5377C503.188 32.5521 503.461 32.7269 503.452 32.926ZM201.63 20.9403C201.613 21.3386 201.346 21.6539 201.037 21.6409C200.727 21.6279 200.634 21.2974 200.829 20.9065C201.025 20.5157 201.292 20.2004 201.423 20.2059C201.553 20.2114 201.647 20.5419 201.63 20.9403ZM205.356 21.0972C205.348 21.2964 205.218 21.4542 205.067 21.4478C204.916 21.4415 204.627 21.266 204.425 21.058C204.222 20.8499 204.352 20.6921 204.714 20.7073C205.075 20.7225 205.364 20.898 205.356 21.0972ZM199.537 21.6459C199.327 21.9262 199.183 21.8342 199.171 21.411C199.161 21.0282 199.316 20.8207 199.517 20.9496C199.718 21.0785 199.728 21.392 199.537 21.6459ZM521.349 36.3402C521.337 36.606 520.909 36.8057 520.397 36.7841C519.414 36.7427 519.199 36.413 519.91 36.038C520.613 35.667 521.37 35.8263 521.349 36.3402ZM115.294 24.5846C115.06 24.7873 114.998 25.0369 115.157 25.1386C115.316 25.2404 115.622 25.0791 115.837 24.7802C116.284 24.1597 115.931 24.0324 115.294 24.5846ZM54.0672 26.7769C53.611 27.0178 53.3207 27.027 53.3303 26.8003C53.3389 26.5942 53.5369 26.325 53.7704 26.2021C54.0033 26.0787 54.3353 26.068 54.5073 26.1787C54.6793 26.2889 54.4813 26.5582 54.0672 26.7769ZM19.0852 27.5389C19.082 27.6138 18.5813 27.8786 17.9718 28.1269C16.968 28.5356 16.9468 28.522 17.7428 27.9801C18.5799 27.4109 19.0978 27.2408 19.0852 27.5389ZM28.1585 29.5979C28.0218 30.391 27.0445 30.5683 27.0771 29.7943C27.0953 29.3623 27.6686 28.8516 28.1145 28.8704C28.207 28.8743 28.2268 29.2017 28.1585 29.5979Z" fill="#171717"/>
<path fill-rule="evenodd" clip-rule="evenodd" d="M454.812 23.5525C454.722 23.628 450.988 23.6221 446.513 23.5395C442.039 23.4566 436.814 23.4132 434.903 23.4426C429.785 23.521 428.58 23.4914 428.22 23.2785C428.041 23.1728 427.818 23.1511 427.724 23.2301C427.503 23.4151 424.172 23.4956 417.908 23.4672C415.162 23.4549 412.803 23.5024 412.665 23.5731C412.527 23.6437 411.146 23.7448 409.597 23.7976C408.048 23.8504 406.733 23.9988 406.673 24.1273C406.615 24.2559 406.259 24.2532 405.884 24.1212C405.274 23.9071 404.462 23.8617 402.762 23.9474C402.383 23.9664 402.277 24.1248 402.413 24.4733C402.593 24.9378 402.569 24.9362 402.051 24.4496C401.594 24.0206 401.177 23.9487 399.712 24.0463C398.732 24.1118 397.256 24.1294 396.432 24.0853C395.507 24.0359 394.93 24.1269 394.924 24.323C394.918 24.5359 394.579 24.5624 393.895 24.4038C393.335 24.2735 392.734 24.1754 392.56 24.1861C392.386 24.1965 391.178 24.1979 389.875 24.189C388.573 24.1801 387.375 24.2335 387.214 24.3071C386.86 24.4697 385.892 24.5274 381.967 24.6192C380.315 24.658 378.537 24.7274 378.014 24.7731C375.737 24.9731 373.098 25.0931 370.898 25.0964C369.595 25.0985 367.744 25.2229 366.784 25.3726C365 25.651 361.15 25.8435 359.22 25.7506C358.627 25.7221 358.022 25.8589 357.873 26.0546C357.654 26.3438 357.604 26.3412 357.609 26.0412C357.616 25.695 356.875 25.6864 354.448 26.0038C352.624 26.2425 350.877 26.3943 349.381 26.4445C348.425 26.4769 346.859 26.5489 345.902 26.6049C344.945 26.6612 343.237 26.7334 342.107 26.7655C340.977 26.7977 340.052 26.8414 340.052 26.8625C340.05 26.9039 339.567 27 338.347 27.202C337.934 27.2705 336.509 27.3738 335.182 27.432C332.579 27.5458 331.501 27.6237 331.499 27.698C331.498 27.7239 330.644 27.7774 329.6 27.817C326.569 27.9323 325.287 28.0293 323.427 28.2838C322.468 28.4152 320.9 28.5747 319.943 28.6383C318.985 28.7022 317.642 28.7915 316.957 28.837C316.272 28.8825 315.571 29.0384 315.398 29.1831C315.195 29.3532 314.88 29.3416 314.51 29.1506C314.134 28.9572 313.732 28.9441 313.35 29.112C313.029 29.2537 311.995 29.3732 311.053 29.3776C310.11 29.382 308.981 29.4935 308.543 29.6251C308.104 29.757 307.248 29.8837 306.639 29.907C304.036 30.0058 301.707 30.2696 301.359 30.5047C301.124 30.6637 300.917 30.6537 300.803 30.4779C300.685 30.2966 300.259 30.283 299.592 30.4391C299.025 30.5718 297.795 30.7183 296.858 30.7645C295.921 30.8105 295.027 30.9135 294.871 30.9934C294.715 31.0731 293.985 31.1741 293.249 31.218C291.373 31.3301 290.21 31.4665 288.739 31.7467C288.04 31.8799 287.222 31.9134 286.921 31.8212C286.619 31.7289 286.37 31.7567 286.366 31.8833C286.361 32.0096 285.947 32.1132 285.445 32.1136C284.944 32.1137 284.266 32.2028 283.94 32.3113C283.614 32.4199 282.609 32.5133 281.707 32.5186C280.805 32.524 279.87 32.6646 279.63 32.8312C279.389 32.9982 278.915 33.1326 278.576 33.1306C276.603 33.1181 274.899 33.2814 274.549 33.5165C274.329 33.6649 273.685 33.86 273.117 33.9502C272.55 34.0404 272.083 34.1992 272.079 34.3027C272.075 34.4065 271.61 34.5066 271.046 34.5251C269.309 34.582 268.747 34.7312 268.836 35.1109C268.898 35.3764 268.812 35.3918 268.518 35.1671C267.955 34.736 266.235 34.9696 265.447 35.5844C265.084 35.8672 264.558 36.0916 264.277 36.083C263.586 36.0618 261.769 37.6049 262.19 37.8544C262.37 37.9606 262.423 38.2861 262.309 38.5779C262.08 39.1642 262.399 39.8866 262.722 39.5147C262.835 39.3855 263.251 39.1302 263.648 38.9475C264.283 38.6544 264.367 38.6781 264.352 39.1473C264.343 39.4463 264.616 39.7537 264.975 39.8492C265.514 39.9923 265.584 39.9218 265.417 39.404C265.308 39.0656 264.996 38.6137 264.724 38.3998C264.291 38.0591 264.327 38.0332 265.013 38.1925C265.444 38.2924 265.899 38.3792 266.024 38.385C266.148 38.3911 266.163 38.5833 266.056 38.8123C265.949 39.0413 266.018 39.2335 266.21 39.2394C266.403 39.2453 266.564 39.1274 266.568 38.9775C266.573 38.8278 266.801 38.7898 267.076 38.8934C267.351 38.9969 267.707 38.9087 267.867 38.6977C268.104 38.3848 268.156 38.3993 268.149 38.7758C268.143 39.0302 268.385 39.3392 268.685 39.4624C269.504 39.7989 271.882 39.786 272.378 39.4422C272.706 39.2146 272.934 39.2551 273.305 39.6077C273.703 39.9848 273.801 39.9982 273.811 39.6764C273.817 39.4573 274.101 39.0673 274.441 38.8099C275.042 38.3544 275.051 38.3702 274.762 39.3798C274.54 40.1594 274.577 40.5232 274.911 40.8406C275.509 41.4077 276.292 41.1258 276.322 40.3319C276.339 39.8926 276.424 39.8068 276.592 40.0595C276.735 40.2739 277.075 40.3555 277.403 40.2543C277.714 40.1585 278.058 40.2186 278.167 40.3878C278.394 40.7369 280.74 40.2763 280.752 39.8805C280.756 39.7544 280.63 39.7176 280.472 39.7984C280.314 39.8794 280.108 39.7509 280.014 39.5129C279.875 39.1607 279.957 39.1393 280.459 39.3973C280.797 39.5715 281.076 39.6268 281.079 39.5199C281.083 39.4133 281.362 39.5638 281.701 39.8543C282.254 40.3296 282.318 40.3358 282.33 39.9172C282.338 39.6612 282.558 39.4582 282.818 39.4662C283.078 39.4741 283.608 39.215 283.996 38.8901C284.453 38.5071 284.629 38.4533 284.496 38.7373C284.205 39.3602 284.546 39.5649 285.1 39.1001C285.716 38.5838 286.16 38.6128 286.143 39.169C286.136 39.414 286.309 39.5637 286.528 39.5017C286.747 39.4397 286.898 39.1003 286.863 38.7475C286.807 38.1793 286.859 38.1522 287.312 38.5099C287.775 38.8746 287.813 38.8256 287.703 38.0026C287.606 37.2735 287.663 37.1553 287.987 37.411C288.231 37.6032 288.307 37.9991 288.179 38.4066C287.981 39.036 288.044 39.0805 289.1 39.0494C290.242 39.0159 290.7 38.6214 290.421 37.9138C290.338 37.7037 290.482 37.3854 290.74 37.2061C291.129 36.9362 291.241 37.0277 291.395 37.7442C291.536 38.4035 291.752 38.6134 292.309 38.6304C293.091 38.6544 293.575 38.0565 293.122 37.6267C292.959 37.4728 293.12 37.2241 293.514 37.0204C293.881 36.8306 294.083 36.8084 293.963 36.9708C293.834 37.144 294.006 37.2745 294.375 37.2858C294.722 37.2965 295.098 37.1813 295.21 37.0298C295.623 36.4709 296.013 36.7923 295.788 37.5065C295.613 38.0617 295.665 38.212 296 38.1248C296.244 38.0616 296.497 37.6819 296.563 37.2813C296.684 36.5479 297.482 35.7586 297.799 36.0591C297.893 36.1479 297.719 36.541 297.412 36.932C297.077 37.3598 296.995 37.6476 297.207 37.6541C297.4 37.66 297.562 37.5653 297.566 37.4435C297.569 37.3217 298.01 37.2056 298.544 37.1857C299.14 37.1636 299.435 37.2583 299.307 37.4309C298.988 37.8618 299.638 37.7826 300.08 37.3363C300.294 37.1199 300.656 37.013 300.883 37.0988C301.111 37.1843 301.383 37.1388 301.487 36.9973C301.592 36.8561 302.018 36.8088 302.433 36.8928C302.849 36.9767 303.289 36.91 303.411 36.7442C303.697 36.3574 305.808 36.4133 305.796 36.8074C305.791 36.9711 305.947 37.0234 306.142 36.9235C306.396 36.7936 306.39 36.6783 306.121 36.5191C305.601 36.2115 306.212 35.9228 307.834 35.7092C308.751 35.5882 309.222 35.6548 309.532 35.9483C310.131 36.5166 310.653 36.4743 310.421 35.8765C310.244 35.4191 310.269 35.4165 310.724 35.8432C311.302 36.3846 312.443 36.3019 313.319 35.6552C314.146 35.045 314.822 34.9606 314.57 35.4992C314.46 35.7346 314.508 35.9312 314.676 35.9363C314.844 35.9414 314.986 35.805 314.991 35.6331C314.997 35.4281 315.379 35.3958 316.099 35.5389C317.053 35.7286 317.2 35.6844 317.215 35.2026C317.233 34.6189 318.81 33.3891 319.125 33.7138C319.225 33.8177 319.129 33.9538 318.909 34.0161C318.691 34.0787 318.504 34.3604 318.495 34.6426C318.474 35.3374 319.572 35.1111 319.991 34.3344L320.304 33.7547L320.928 34.3465C321.49 34.8795 321.637 34.9021 322.399 34.574C323.139 34.2557 323.244 34.264 323.233 34.6406C323.225 34.8839 323.494 35.08 323.851 35.0909C324.198 35.1015 324.486 34.9836 324.49 34.8289C324.495 34.6742 324.854 34.5585 325.288 34.5717C325.722 34.585 326.081 34.4558 326.086 34.2845C326.091 34.1132 326.289 34.046 326.525 34.1349C326.784 34.2324 326.944 34.1213 326.929 33.855C326.913 33.5876 327.184 33.4011 327.616 33.3822C328.272 33.3535 328.292 33.3978 327.874 33.9312C327.455 34.4669 327.478 34.5112 328.169 34.5056C328.58 34.5019 329.014 34.4178 329.133 34.3186C329.252 34.2192 329.519 34.2725 329.728 34.4368C330.238 34.8393 331.855 34.246 331.652 33.731C331.472 33.2744 331.862 33.2489 332.324 33.6871C332.564 33.9146 332.842 33.9245 333.302 33.7221C333.802 33.502 333.981 33.5328 334.111 33.8614C334.203 34.0937 334.54 34.2918 334.86 34.3016C335.682 34.3268 337.314 32.8321 337.088 32.2604C336.975 31.9731 337.032 31.8749 337.241 31.9984C337.424 32.1071 337.493 32.4445 337.394 32.7487C337.178 33.4094 337.406 34.098 337.844 34.1114C338.018 34.1167 338.084 33.9287 337.991 33.6936C337.802 33.2145 338.597 33.1155 338.898 33.5805C339.001 33.7385 339.325 33.865 339.619 33.8619C339.948 33.8582 340.004 33.7968 339.763 33.7022C339.549 33.6174 339.392 33.2741 339.414 32.9394C339.453 32.3499 339.463 32.3485 339.709 32.9014C339.849 33.2154 339.978 33.307 339.996 33.1048C340.014 32.9026 340.169 32.8198 340.34 32.9208C340.51 33.0217 340.66 32.9387 340.671 32.7364C340.684 32.5137 340.874 32.5959 341.151 32.9442C341.545 33.4383 341.654 33.4616 341.922 33.1086C342.094 32.8824 342.177 32.5434 342.107 32.3557C342.033 32.1589 342.16 32.0825 342.407 32.1754C342.917 32.3675 343.251 33.0974 342.99 33.4496C342.748 33.7778 343.229 33.7815 344.283 33.4599C344.843 33.2889 345.076 33.0559 344.966 32.7769C344.874 32.544 344.936 32.3575 345.104 32.3627C345.272 32.3678 345.406 32.4908 345.402 32.6359C345.384 33.214 346.741 32.8202 347.048 32.1584C347.308 31.5978 347.422 31.5459 347.646 31.887C347.799 32.1186 347.836 32.5367 347.729 32.8158C347.559 33.2594 347.668 33.3047 348.594 33.1734C349.177 33.0907 349.905 33.0328 350.212 33.0442C350.52 33.0558 350.692 32.9437 350.596 32.7952C350.5 32.6469 350.63 32.5318 350.887 32.5397C351.143 32.5475 351.407 32.7139 351.474 32.9096C351.569 33.1871 351.714 33.1842 352.131 32.8965C352.425 32.6938 352.951 32.6034 353.299 32.696C353.648 32.7886 354.14 32.6911 354.393 32.4789C354.675 32.2423 354.924 32.2038 355.038 32.3787C355.29 32.7668 356.731 32.6766 357.157 32.2465C357.419 31.9817 357.338 31.8925 356.822 31.8767C356.21 31.858 356.183 31.7929 356.552 31.2349C356.908 30.6981 356.977 30.6811 357.064 31.1098C357.119 31.3826 357.428 31.6137 357.75 31.6235C358.072 31.6334 358.518 31.814 358.741 32.025C358.966 32.2371 359.994 32.4648 361.045 32.535C362.673 32.6437 363.076 32.5668 363.873 31.9942C364.722 31.3839 365.89 31.3064 365.459 31.889C365.359 32.0245 365.415 32.1397 365.584 32.1449C365.754 32.1501 365.969 31.9981 366.062 31.8076C366.198 31.5302 366.235 31.5313 366.246 31.8132C366.268 32.364 368.378 32.3213 368.753 31.7624C369.01 31.38 369.154 31.3602 369.531 31.6572C369.901 31.949 370.028 31.9501 370.169 31.6635C370.291 31.4139 370.42 31.3998 370.596 31.6175C370.734 31.7892 371.344 31.9346 371.952 31.9405C372.886 31.9497 373.046 31.8594 372.984 31.3586C372.945 31.0328 373.144 30.605 373.428 30.4079C373.884 30.0918 373.918 30.1334 373.719 30.7653C373.591 31.1728 373.638 31.5662 373.829 31.6793C374.014 31.7883 374.169 31.7392 374.174 31.5702C374.18 31.3913 374.545 31.327 375.047 31.4164C375.522 31.5008 375.91 31.5909 375.91 31.6163C375.909 31.6416 376.315 31.7345 376.813 31.8224C377.612 31.9634 377.699 31.9109 377.559 31.3739C377.412 30.8091 377.44 30.799 377.942 31.2302C378.616 31.8089 379.219 31.8471 379.235 31.3123C379.242 31.0892 379.416 30.8206 379.623 30.7149C379.875 30.5858 379.928 30.6741 379.782 30.9847C379.623 31.3248 379.741 31.452 380.226 31.4668C380.751 31.4829 380.814 31.4051 380.538 31.0892C380.258 30.7695 380.346 30.6962 380.984 30.7157C381.448 30.7299 381.774 30.901 381.767 31.1268C381.751 31.645 382.27 31.6364 382.514 31.1145C382.62 30.8855 382.89 30.7138 383.112 30.7327C383.428 30.7598 383.429 30.7953 383.117 30.897C382.897 30.9686 382.714 31.1474 382.71 31.2948C382.705 31.4529 382.963 31.4473 383.342 31.2806C383.694 31.1256 383.979 31.1022 383.975 31.2288C383.958 31.7708 385.704 31.592 386.717 30.9478C387.751 30.2896 387.794 30.2853 387.777 30.8389C387.755 31.5649 388.847 31.6581 389.327 30.9711C389.513 30.7034 389.663 30.6452 389.662 30.8406C389.661 31.0447 390.072 31.2051 390.641 31.2225C391.317 31.2432 391.576 31.1371 391.475 30.8811C391.285 30.3992 393.486 30.3033 393.796 30.7801C393.916 30.9649 394.182 31.0307 394.386 30.9258C394.658 30.7868 394.668 30.6317 394.424 30.3528C394.224 30.124 394.21 29.9087 394.389 29.8168C394.554 29.7323 394.759 29.932 394.844 30.2601L395 30.8567L395.954 30.291C397.072 29.6286 397.425 29.5839 397.166 30.1369C397.064 30.3562 397.148 30.602 397.353 30.6835C397.558 30.7652 397.448 30.8334 397.109 30.8351C396.734 30.8371 396.607 30.9403 396.785 31.0989C396.946 31.242 397.537 31.3097 398.098 31.2491C398.909 31.1614 399.107 31.0156 399.067 30.5346C399.037 30.1778 399.177 29.9639 399.408 30.0126C399.624 30.0581 399.808 29.937 399.816 29.7436C399.827 29.5093 399.93 29.5359 400.125 29.8234C400.286 30.0606 400.426 30.1283 400.436 29.9737C400.446 29.8192 400.569 29.8643 400.708 30.0738C400.848 30.2834 401.546 30.5429 402.26 30.6504C403.358 30.816 403.662 30.7459 404.231 30.1969C404.84 29.609 404.886 29.6011 404.712 30.1147C404.569 30.5372 404.681 30.7022 405.15 30.7616C406.137 30.8865 406.807 30.9002 407.832 30.817C408.354 30.7744 409.209 30.7288 409.73 30.7157C410.595 30.6938 410.63 30.6568 410.13 30.2961C409.612 29.9218 409.617 29.8935 410.225 29.7711C410.64 29.6877 410.864 29.7788 410.856 30.0286C410.85 30.2511 411.041 30.3549 411.308 30.2727C411.562 30.1943 411.941 30.2307 412.149 30.3536C412.357 30.4768 413.107 30.5708 413.815 30.5626C414.524 30.5545 415.779 30.5402 416.605 30.5311C417.557 30.5206 418.109 30.386 418.116 30.1629C418.123 29.9486 418.558 29.8245 419.231 29.8451C419.839 29.8637 420.332 30.0131 420.327 30.1768C420.322 30.3405 420.468 30.3977 420.652 30.3034C420.837 30.209 421.186 30.289 421.43 30.4809C421.736 30.7223 422.144 30.7573 422.755 30.5941C423.24 30.4645 424.183 30.4266 424.851 30.5099C425.707 30.6166 426.001 30.5642 425.851 30.3324C425.72 30.1304 425.824 30.0436 426.122 30.1076C426.388 30.1647 426.843 29.9655 427.131 29.6646C427.648 29.1252 427.653 29.1261 427.441 29.7445C427.287 30.1939 427.361 30.3755 427.702 30.386C427.964 30.394 428.276 30.2681 428.395 30.1065C428.515 29.9446 428.81 29.8863 429.05 29.9767C429.292 30.0681 429.492 29.9708 429.498 29.7584C429.52 29.0327 430.45 29.0592 430.96 29.8001C431.369 30.3929 431.676 30.5144 432.711 30.4917C433.418 30.4762 434.044 30.2996 434.143 30.0878C434.239 29.8808 434.529 29.7908 434.786 29.8876C435.043 29.9845 435.478 29.9099 435.753 29.7221C436.182 29.4286 436.223 29.4685 436.049 30.008C435.938 30.3528 435.888 30.6366 435.939 30.6381C436.26 30.6479 437.85 29.8252 438.09 29.5259C438.272 29.2975 438.298 29.4396 438.16 29.9112L437.941 30.6586L440.704 30.635C442.224 30.6218 443.612 30.49 443.789 30.3417C443.966 30.1934 444.211 29.604 444.333 29.0319C444.456 28.4599 444.736 27.9442 444.956 27.8862C445.263 27.8049 445.274 27.9553 445.004 28.5372C444.812 28.9531 444.722 29.3581 444.805 29.4369C444.889 29.5158 444.808 29.8126 444.625 30.0962C444.368 30.496 444.403 30.6156 444.778 30.6271C445.044 30.6352 445.266 30.5232 445.27 30.3781C445.275 30.2329 445.527 30.1356 445.83 30.162C446.133 30.1882 446.688 30.1295 447.064 30.0317C447.473 29.9252 447.913 30.0037 448.163 30.2284C448.837 30.8341 449.807 30.7033 450.232 29.9494L450.622 29.2574L450.624 30.041C450.626 30.8207 450.634 30.8241 452.444 30.7443C453.444 30.7003 454.927 30.6782 455.74 30.6952C456.971 30.721 457.258 30.6256 457.454 30.1245C457.662 29.59 457.72 29.5763 457.969 30.0015C458.188 30.3745 458.387 30.4194 458.873 30.2057C459.301 30.0175 459.493 30.0228 459.487 30.2228C459.482 30.3828 459.691 30.5205 459.951 30.5284C460.212 30.5364 460.421 30.6647 460.416 30.8135C460.403 31.2448 466.301 31.1508 466.941 30.7094C467.385 30.4037 467.505 30.4043 467.611 30.713C467.705 30.9882 467.967 30.9205 468.584 30.4613C469.048 30.1156 469.228 30.0516 468.983 30.3189C468.431 30.9212 468.741 31.2871 469.409 30.8236C469.809 30.5461 469.901 30.5545 469.899 30.869C469.898 31.1285 470.054 31.0823 470.374 30.7272C470.636 30.4368 470.942 30.286 471.054 30.3916C471.166 30.4975 471.464 30.3706 471.717 30.1098C472.055 29.7622 472.219 29.7312 472.332 29.994C472.416 30.1911 472.653 30.2826 472.858 30.1968C473.063 30.1113 472.884 30.277 472.461 30.565C471.965 30.9029 471.814 31.161 472.035 31.2919C472.224 31.4036 472.702 31.1831 473.097 30.8016C473.861 30.065 474.84 29.8725 474.538 30.5182C474.362 30.8941 474.826 31.5468 475.278 31.5607C475.405 31.5646 475.58 31.2847 475.668 30.9391C475.824 30.3242 475.831 30.3233 476.029 30.8986C476.212 31.4327 476.454 31.4883 478.656 31.5008C479.99 31.5084 481.117 31.4891 481.162 31.4581C481.406 31.2868 484.037 31.4169 484.669 31.6314C485.142 31.792 485.58 31.7651 485.88 31.5575C486.191 31.3415 486.418 31.3309 486.553 31.5263C486.928 32.0679 488.124 32.198 488.563 31.7449C488.921 31.3758 488.9 31.3363 488.425 31.4791C488.079 31.5831 487.871 31.5128 487.878 31.2934C487.897 30.6642 489.08 30.8541 489.262 31.5157C489.404 32.0342 489.484 32.0679 489.755 31.7223C489.933 31.4954 490.076 31.4545 490.074 31.6315C490.066 32.113 490.969 32.3589 491.648 32.0601C491.992 31.9087 492.317 31.906 492.412 32.0536C492.612 32.3616 495.14 32.359 495.744 32.05C496.027 31.905 496.092 31.9376 495.937 32.1477C495.786 32.3515 495.961 32.4672 496.431 32.4737C497.131 32.4833 499.36 32.7818 499.357 32.8657C499.357 32.8882 500.03 32.9665 500.852 33.0401C501.675 33.1137 502.351 33.0925 502.355 32.9929C502.359 32.8936 503.001 32.8204 503.781 32.8307C504.826 32.8441 505.197 32.9571 505.188 33.2584C505.18 33.5259 505.39 33.6244 505.796 33.5431C506.137 33.4744 506.478 33.5651 506.554 33.7445C506.63 33.924 506.711 33.8406 506.733 33.5594C506.77 33.0943 506.818 33.0892 507.256 33.505C507.71 33.9356 508.028 34.0059 510.372 34.1951C510.893 34.2372 511.623 34.3676 511.994 34.4852C512.366 34.603 512.762 34.5748 512.875 34.4231C513.004 34.2478 513.352 34.2491 513.828 34.4267C514.349 34.6214 514.626 34.6054 514.74 34.3735C514.831 34.1905 514.909 34.2624 514.915 34.5337C514.92 34.805 515.031 35.0348 515.161 35.0447C516.155 35.1199 518.008 35.51 518.456 35.7383C518.899 35.9644 519.004 35.897 519.024 35.3733C519.044 34.8553 519.106 34.8144 519.342 35.162C519.583 35.5171 519.638 35.523 519.652 35.1948C519.661 34.9758 519.756 34.8793 519.862 34.9803C519.969 35.0812 520.326 35.0457 520.654 34.9009C521.343 34.5976 521.362 34.6486 520.915 35.6142C520.657 36.1708 520.683 36.3293 521.032 36.34C521.278 36.3475 521.566 36.2353 521.674 36.0904C521.892 35.7947 522.833 36.0614 523.146 36.508C523.259 36.668 523.732 36.8568 524.198 36.9268C524.664 36.9971 525.243 37.2412 525.484 37.4696C525.836 37.8039 526.044 37.8218 526.548 37.561C526.892 37.3829 527.176 37.1523 527.18 37.0485C527.188 36.7888 527.833 36.9288 528.67 37.3714C529.202 37.653 529.372 37.6615 529.379 37.4064C529.386 37.2061 529.637 37.2845 530.007 37.6019C530.922 38.3876 531.147 37.9166 530.439 36.6952C529.962 35.8714 529.892 35.4641 530.138 34.9344C530.358 34.4602 530.348 34.209 530.108 34.1296C529.916 34.066 529.633 33.6944 529.481 33.3037C529.328 32.9133 528.933 32.5219 528.602 32.4341C528.272 32.3463 527.936 32.1102 527.857 31.9096C527.7 31.5106 521.958 29.6941 521.434 29.8774C521.366 29.9013 521.205 29.7589 521.077 29.5613C520.949 29.3639 519.524 28.9399 517.912 28.6195C516.3 28.2987 514.628 27.9516 514.197 27.8477C513.766 27.7439 512.634 27.5645 511.682 27.4495C510.731 27.3342 509.679 27.1595 509.345 27.0612C509.012 26.9626 507.95 26.8205 506.986 26.7454C506.022 26.67 504.881 26.5143 504.451 26.3992C504.02 26.2841 502.462 26.1094 500.988 26.0108C499.515 25.9122 498.31 25.8134 498.311 25.7914C498.311 25.7695 497.71 25.6841 496.974 25.6019C496.154 25.5103 495.633 25.5698 495.627 25.7552C495.621 25.9603 495.479 25.9486 495.188 25.7189C494.952 25.5324 493.608 25.3243 492.202 25.2567C490.796 25.1889 489.648 25.0631 489.651 24.977C489.653 24.8912 487.349 24.7165 484.53 24.5889C481.711 24.4615 479.193 24.3449 478.932 24.3299C478.672 24.3149 477.535 24.3196 476.406 24.3399C475.276 24.3602 473.999 24.2871 473.568 24.1773C473.137 24.0675 472.321 24.0555 471.753 24.1502C471.185 24.2451 470.725 24.2181 470.728 24.0898C470.732 23.9615 470.343 23.915 469.863 23.9862C468.633 24.1684 457.556 23.8761 456.145 23.6242C455.502 23.5094 454.902 23.4772 454.812 23.5525ZM482.539 30.1552C482.538 30.2664 482.336 30.2813 482.089 30.1885C481.842 30.0956 481.728 29.832 481.835 29.6027C481.994 29.2637 482.078 29.2576 482.285 29.5694C482.426 29.7804 482.54 30.0438 482.539 30.1552ZM422 27.8885C422.01 28.0048 422.058 28.3239 422.108 28.5972C422.158 28.8704 422.089 29.0285 421.954 28.9486C421.584 28.7298 421.368 27.658 421.696 27.6681C421.853 27.6729 421.99 27.7722 422 27.8885ZM458.579 28.9212C458.577 28.9896 458.431 29.1191 458.255 29.2095C458.078 29.2998 457.938 29.2395 457.943 29.0757C457.948 28.912 458.094 28.7822 458.268 28.7875C458.441 28.7928 458.581 28.8529 458.579 28.9212ZM446.085 29.5409C446.188 29.6989 446.121 29.8235 445.938 29.8179C445.754 29.8123 445.607 29.6811 445.612 29.5264C445.617 29.3717 445.683 29.247 445.76 29.2493C445.837 29.2517 445.983 29.3829 446.085 29.5409ZM418.465 29.1011C418.462 29.1695 418.316 29.299 418.14 29.3894C417.963 29.4797 417.823 29.4194 417.828 29.2557C417.833 29.0919 417.979 28.9621 418.153 28.9674C418.326 28.9727 418.467 29.0328 418.465 29.1011ZM420.271 29.2023C420.163 29.2925 419.891 29.2943 419.666 29.206C419.417 29.1086 419.493 29.0442 419.861 29.042C420.194 29.04 420.378 29.1121 420.271 29.2023ZM421.457 29.3501C421.56 29.5081 421.414 29.6304 421.133 29.6218C420.852 29.6132 420.714 29.4822 420.826 29.3308C420.938 29.1794 421.084 29.0571 421.15 29.0592C421.217 29.0612 421.355 29.1921 421.457 29.3501ZM424.771 29.4186C424.767 29.5553 424.442 29.7292 424.049 29.8051C423.358 29.9379 423.355 29.9294 423.959 29.5534C424.688 29.0996 424.782 29.0839 424.771 29.4186ZM413.408 29.2279C413.405 29.2963 413.259 29.4258 413.083 29.5161C412.906 29.6065 412.766 29.5461 412.771 29.3824C412.776 29.2187 412.922 29.0889 413.096 29.0942C413.269 29.0995 413.41 29.1595 413.408 29.2279ZM398.798 29.1082C398.69 29.1983 398.418 29.2001 398.193 29.1119C397.944 29.0144 398.02 28.9501 398.388 28.9478C398.721 28.9459 398.905 29.018 398.798 29.1082ZM402.223 30.2221C402.116 30.4432 402.043 30.3743 402.038 30.0461C402.033 29.7492 402.113 29.5855 402.215 29.6821C402.317 29.7787 402.321 30.0218 402.223 30.2221ZM513.07 33.703C513.048 34.4107 512.553 34.364 512.509 33.65C512.484 33.2464 512.596 33.0268 512.774 33.1319C512.943 33.2323 513.077 33.4892 513.07 33.703ZM381.965 29.8307C382.067 29.9887 382.001 30.1133 381.817 30.1077C381.633 30.1021 381.487 29.9709 381.492 29.8162C381.496 29.6615 381.563 29.5368 381.639 29.5391C381.716 29.5415 381.862 29.6727 381.965 29.8307ZM399.364 30.5184C399.454 30.7455 399.654 30.9352 399.809 30.94C400.262 30.9539 400.147 30.4618 399.653 30.2758C399.351 30.1618 399.255 30.2422 399.364 30.5184ZM522.501 34.3005C522.137 34.6684 522.152 34.7815 522.598 35.0212C523.343 35.4219 523.276 35.9458 522.529 35.5608C522.21 35.3962 521.833 35.3486 521.693 35.455C521.552 35.5613 521.538 35.4195 521.661 35.1395C521.784 34.8597 521.89 34.451 521.897 34.2316C521.904 34.0122 522.139 33.8398 522.421 33.8484C522.854 33.8617 522.866 33.9313 522.501 34.3005ZM364.957 30.2077C364.849 30.4288 364.777 30.3598 364.771 30.0317C364.767 29.7347 364.846 29.5711 364.948 29.6677C365.05 29.7643 365.054 30.0074 364.957 30.2077ZM516.524 34.3552C516.522 34.4236 516.376 34.5531 516.199 34.6435C516.023 34.7338 515.883 34.6735 515.888 34.5097C515.893 34.346 516.039 34.2162 516.212 34.2215C516.386 34.2268 516.526 34.2869 516.524 34.3552ZM517.466 34.5414C517.461 34.6962 517.315 34.8184 517.142 34.8131C516.968 34.8078 516.83 34.6768 516.835 34.5221C516.84 34.3674 516.985 34.2452 517.159 34.2505C517.333 34.2558 517.471 34.3867 517.466 34.5414ZM364.103 30.4102C364.094 30.7196 363.957 30.9688 363.8 30.964C363.643 30.9592 363.596 30.7044 363.696 30.3977C363.797 30.0911 363.933 29.8418 364 29.8439C364.066 29.8459 364.113 30.1007 364.103 30.4102ZM365.996 30.4681C365.992 30.6228 365.925 30.7475 365.849 30.7452C365.772 30.7428 365.626 30.6116 365.523 30.4536C365.421 30.2956 365.487 30.171 365.671 30.1766C365.855 30.1822 366.001 30.3134 365.996 30.4681ZM363.038 30.9936C362.93 31.2147 362.858 31.1458 362.852 30.8176C362.848 30.5207 362.928 30.357 363.029 30.4536C363.131 30.5502 363.135 30.7933 363.038 30.9936ZM526.553 36.8843C526.547 37.0908 526.329 37.253 526.068 37.2451C525.569 37.2298 525.461 36.9776 525.823 36.6744C526.18 36.3745 526.565 36.4851 526.553 36.8843ZM320.217 34.717C320.098 34.8783 320.066 35.073 320.146 35.1492C320.227 35.2255 320.383 35.0951 320.493 34.8594C320.721 34.3703 320.542 34.2775 320.217 34.717ZM289.095 37.4669C288.863 37.6617 288.715 37.6738 288.721 37.4977C288.726 37.3376 288.827 37.1253 288.946 37.0259C289.065 36.9262 289.233 36.9122 289.321 36.9951C289.408 37.0778 289.306 37.2901 289.095 37.4669ZM271.315 38.6574C271.313 38.7156 271.058 38.9297 270.748 39.1327C270.237 39.4671 270.226 39.4569 270.632 39.0228C271.059 38.5667 271.322 38.4259 271.315 38.6574ZM275.922 40.0998C275.85 40.7176 275.353 40.8719 275.372 40.2707C275.382 39.9351 275.674 39.5291 275.901 39.536C275.948 39.5374 275.957 39.7911 275.922 40.0998Z" fill="#171717"/>
</svg>
