<svg width="288" height="7" viewBox="0 0 288 7" fill="none" xmlns="http://www.w3.org/2000/svg">
<path fill-rule="evenodd" clip-rule="evenodd" d="M287.633 2.23595C286.678 2.18431 285.892 1.97205 285.888 1.76402C285.879 1.35023 279.774 0.987249 265.172 0.5322C254.285 0.19286 250.841 0.167463 236.032 0.316711C230.075 0.376969 225.201 0.331497 225.198 0.215881C225.196 0.091024 223.328 0.0974738 220.598 0.231492C217.987 0.359508 215.516 0.373481 214.878 0.263968C214.26 0.157955 211.42 0.0857798 208.566 0.103851C205.712 0.121923 202.438 0.0858581 201.289 0.0239886C199.868 -0.0525545 199.342 0.0531286 199.641 0.354695C199.884 0.598188 198.985 0.864729 197.644 0.946689C195.958 1.04988 195.537 0.985679 196.284 0.738713C197.471 0.346425 193.247 0.313681 191.419 0.701083C190.13 0.974321 180.807 0.62719 179.725 0.265739C178.781 -0.0490666 150.683 0.400083 150.69 0.730092C150.692 0.850842 149.617 0.796192 148.297 0.6086C146.157 0.303914 145.161 0.307932 138.999 0.645802C130.249 1.12583 129.902 1.13005 129.894 0.758768C129.886 0.387483 127.864 0.400809 125.042 0.790724C123.902 0.948314 122.967 0.986074 122.965 0.874771C122.962 0.763262 118.21 0.748102 112.403 0.841219C106.598 0.934097 100.849 0.931169 99.6287 0.834937C98.4083 0.7385 93.9958 0.72747 89.8245 0.810194C70.5166 1.19312 60.5854 1.30827 60.582 1.14911C60.5802 1.06964 59.0208 1.08288 57.1166 1.17857C55.2123 1.27447 53.6561 1.43454 53.6582 1.53434C53.6655 1.86928 46.4507 1.85889 41.1818 1.51636C37.3638 1.26828 35.6183 1.24998 34.6833 1.44819C33.888 1.61679 31.6612 1.70124 28.8011 1.67136C24.9095 1.63056 24.2003 1.69005 24.2083 2.0562C24.2151 2.3704 23.1315 2.51005 20.2524 2.56558C18.0732 2.60762 13.5935 2.85674 10.2996 3.11936C5.7444 3.48231 4.44598 3.70397 4.87623 4.04574C5.26244 4.35365 4.55012 4.51202 2.60994 4.54945C-1.93904 4.6372 -0.114874 5.88479 4.79823 6.04538C6.94351 6.11556 8.70181 6.24353 8.70367 6.32957C8.70554 6.41582 9.48663 6.47122 10.4394 6.45284C11.3921 6.43447 13.7868 6.57933 15.7615 6.77483C18.5976 7.05561 19.8665 7.06935 21.8042 6.84091C23.3323 6.66063 26.7163 6.55468 30.7804 6.55969C34.3678 6.56404 39.2529 6.55075 41.6354 6.53027C44.0178 6.50979 46.9874 6.54989 48.2349 6.6195C51.6271 6.80861 58.9368 6.72246 64.4587 6.42796C67.1522 6.28438 69.3574 6.24266 69.3594 6.33528C69.3642 6.5548 81.4541 6.48964 82.5167 6.26432C82.9635 6.16962 84.6696 6.12562 86.3082 6.16674C88.9108 6.23199 88.9865 6.20362 86.9029 5.94078C84.8471 5.68193 84.9067 5.6327 87.3285 5.58599C88.8737 5.55618 90.1413 5.6704 90.1449 5.83982C90.1489 6.02444 91.7488 6.11705 94.1359 6.071C96.3272 6.02873 98.9746 6.07874 100.018 6.18208C101.342 6.3131 102.923 6.28649 105.245 6.09399C107.077 5.94217 112.421 5.75013 117.121 5.66728C121.819 5.58425 129.153 5.40149 133.414 5.26155C142.867 4.95061 145.651 5.00497 144.455 5.47693C143.735 5.76077 143.9 5.77033 145.238 5.52121C146.296 5.32391 147.821 5.2534 149.296 5.33322C150.595 5.40368 155.79 5.38462 160.842 5.29108C168.592 5.14733 169.904 5.06942 169.259 4.79138C168.321 4.38769 172.575 4.44841 174.002 4.85911C174.842 5.10072 175.786 5.08107 181.184 4.70927C186.768 4.32462 187.828 4.30602 191.621 4.52704C193.943 4.66243 197.739 4.69357 200.055 4.59628C202.374 4.49897 205.231 4.47118 206.406 4.5346C207.58 4.59782 210.331 4.53449 212.518 4.39347C214.95 4.23686 216.904 4.20759 217.548 4.31803C218.125 4.41721 219.301 4.43357 220.158 4.35395C221.016 4.27454 223.887 4.29765 226.539 4.4055C229.342 4.51949 234.972 4.50538 239.997 4.37189C245.951 4.21368 249.553 4.2231 251.589 4.40199C255.769 4.76862 265.605 4.53716 276.08 3.82561C278.759 3.64348 281.485 3.4814 282.138 3.46531C284.554 3.40555 289.366 2.32928 287.633 2.23595ZM132.513 1.63275C131.084 1.66032 129.912 1.59046 129.91 1.47752C129.907 1.36457 131.075 1.2496 132.504 1.22204C133.933 1.19447 135.104 1.26432 135.107 1.37727C135.109 1.49022 133.942 1.60518 132.513 1.63275ZM97.0763 5.80884C96.1235 5.82722 95.342 5.74985 95.3396 5.6369C95.3371 5.52395 96.1146 5.4165 97.0674 5.39813C98.0202 5.37975 98.8017 5.45712 98.8042 5.57007C98.8066 5.68301 98.0291 5.79046 97.0763 5.80884ZM70.6669 1.73341C69.2849 1.69453 69.6944 1.63794 71.7123 1.58916C73.5379 1.54511 74.561 1.57386 73.9874 1.65313C73.4137 1.7324 71.9189 1.76863 70.6669 1.73341Z" fill="#171717"/>
</svg>
