<svg width="261" height="90" fill="none" xmlns="http://www.w3.org/2000/svg"><path fill-rule="evenodd" clip-rule="evenodd" d="M222.655 56.869c-1.506-.251-2.429-.742-2.744-1.457-.281-.654-.423-1.611-.423-2.843V25.563l.022-.713v-.005c0-.572-.076-.911-.241-1.064a.34.34 0 00-.23-.096c-.16-.003-.344.063-.571.213-.403.298-1.145.664-2.208 1.087l-1.407.575c-.42.165-.896.309-1.417.431-.469.129-.708.344-.708.637 0 .164.063.386.379.52.12.035.265.053.438.053h.002l1.143-.046c.895 0 1.329.645 1.329 1.971v25.518c0 .702-.112 1.21-.332 1.513-.217.302-.659.551-1.311.739-.52.141-.772.379-.752.71.012.221.125.591.77.591.065 0 .227-.012.896-.117.333-.045 1.234-.068 2.678-.068l3.208-.023c.449 0 .789.022 1.003.065.276.064.484.096.634.096.209 0 .369-.058.479-.172.11-.116.162-.283.153-.502-.021-.315-.287-.519-.79-.607zm-53.456 1.28c-.277 0-.643.023-1.094.068-.999.08-1.493.116-1.602.113l-.055.001c-.22 0-.389-.056-.501-.167-.103-.105-.152-.252-.144-.437.021-.347.326-.569.908-.655 1.541-.264 2.291-1.505 2.291-3.796l.022-.901V43.92c0-.944-.121-1.125-.157-1.158-.04-.034-.247-.147-1.284-.147h-13.554c-1.04 0-1.412.125-1.541.231-.122.1-.268.395-.268 1.232v8.445c0 1.555.244 2.654.728 3.269.479.609 1.398.993 2.731 1.141.647.069.985.313 1.005.725a.543.543 0 01-.141.415c-.136.143-.357.212-.674.212-.207 0-.581-.034-1.145-.107-.411-.069-1.332-.103-2.744-.103l-1.933-.02-1.511.05c-.381 0-.865.026-1.442.076-.813.07-1.29.104-1.462.104-.629 0-.722-.36-.722-.574 0-.239.123-.55.712-.683l1.148-.276c.625-.142 1.042-.607 1.273-1.42.241-.844.363-2.351.363-4.48V31.064c0-1.294-.244-2.24-.724-2.811-.48-.568-1.364-.955-2.626-1.15-.654-.086-.792-.394-.792-.638 0-.178.055-.322.162-.425.126-.123.319-.177.588-.171.298.017.766.064 1.394.14 1.187.138 2.598.206 4.193.206 1.081 0 2.104-.062 3.042-.183a7.15 7.15 0 01.985-.093c.708 0 .814.388.814.619 0 .315-.246.537-.732.659-.988.253-1.657.61-1.988 1.065-.332.457-.501 1.247-.501 2.349v8.243c0 1.091.137 1.386.22 1.464.066.064.355.213 1.589.213h13.576c.802 0 1.098-.087 1.208-.16.138-.092.21-.337.21-.71v-7.873c0-1.551-.198-2.659-.588-3.294-.383-.624-1.106-1.06-2.15-1.295-.671-.131-.796-.448-.782-.69.012-.194.121-.52.722-.52.328 0 .859.039 1.581.116.998.107 2.077.16 3.206.16 1.63 0 2.784-.046 3.43-.136.428-.062.714-.093.874-.093.607 0 .698.373.698.595 0 .216-.116.498-.668.615l-.942.207c-.432.084-.801.404-1.099.951-.309.567-.466 1.228-.466 1.966v22.251c0 1.602.223 2.719.663 3.32.433.591 1.289.958 2.543 1.09.556.07.847.268.867.586.017.196-.031.358-.141.478-.273.297-.876.254-1.869.101-.36-.061-1.127-.091-2.279-.091l-1.705-.023-1.72.047zm-72.44-4.294c1.683-2.271 2.536-5.552 2.536-9.751V32.713c0-1.891.137-3.188.404-3.857.259-.648.844-1.164 1.738-1.53.381-.159.574-.386.574-.675 0-.35-.212-.55-.583-.55-.144 0-.487.023-1.026.07-.395.045-1.454.068-3.15.068-.799 0-1.494-.045-2.064-.137-.659-.109-1.145-.17-1.485-.185-.197-.012-.338.037-.444.137-.112.107-.169.269-.169.48 0 .256.139.574.801.641 1.266.118 2.173.595 2.697 1.415.535.84.806 2.217.806 4.095v11.911c0 3.974-.902 6.986-2.681 8.948-1.774 1.96-4.497 2.953-8.092 2.953-4.016 0-6.913-1.186-8.612-3.527-1.204-1.651-1.814-4.469-1.814-8.374V33.003l-.047-1.512c0-1.457.146-2.474.433-3.025.277-.533.844-.898 1.68-1.085.568-.105.856-.342.856-.706 0-.188-.088-.505-.676-.505-.22 0-.62.023-1.187.069-.681.062-1.098.091-1.276.091h-1.75l-1.771.023c-.32 0-.836-.023-1.535-.069a40.033 40.033 0 00-1.594-.045c-.844 0-1.021.374-1.021.686 0 .232.129.529.746.618 1.318.192 2.203.586 2.63 1.171.432.593.651 1.707.651 3.313l.045 1.307v11.688c0 3.218.556 5.867 1.652 7.872.977 1.751 2.539 3.157 4.642 4.179 2.098 1.018 4.489 1.534 7.106 1.534 2.249 0 4.394-.433 6.375-1.288 1.986-.857 3.536-2.023 4.605-3.464zm18.405-24.86c.709 0 .94.12 1.014.19.073.069.196.286.196.96l.023.593v22.84c0 1.25-.198 2.123-.587 2.592-.389.467-1.162.779-2.298.926-.59.07-.889.272-.889.596 0 .239.108.639.839.639.16 0 .67-.044 1.559-.138.438-.045.983-.068 1.623-.068l1.795-.023 1.686.023c1.08 0 1.77.023 2.051.067.582.093.958.139 1.153.139.69 0 .793-.401.793-.641 0-.336-.312-.559-.927-.661-1.873-.327-2.82-1.33-2.894-3.062l-.022-.896V30.484c0-.892.141-1.171.224-1.258.083-.086.345-.231 1.172-.231h6.465c1.251 0 2.096.157 2.513.466.411.306.717.991.91 2.038.107.572.33.85.709.833.294-.026.639-.201.617-.889a16.448 16.448 0 00-.141-1.14c-.073-.402-.112-1.056-.112-1.944 0-1.266-.175-1.593-.306-1.729-.212-.218-.731-.32-1.637-.32h-24.779c-.578 0-.952.129-1.144.394-.182.249-.269.731-.269 1.473 0 .703-.115 1.611-.342 2.699-.189.873-.281 1.461-.281 1.796 0 .64.346.754.554.766.538.023.705-.7.767-.97l.005-.019c.297-1.343.719-2.265 1.254-2.741.53-.472 1.407-.711 2.605-.711h6.101v-.002zm120.837 26.56l-.201.06-1.203.578c-.619.325-1.394.489-2.301.489-1.119 0-1.989-.317-2.586-.945-.402-.414-.604-1.363-.604-2.82V41.489h5.307c.571 0 .958-.258 1.149-.765l.526-1.317c.193-.434.22-.566.22-.629.011-.156-.024-.272-.104-.344-.074-.066-.174-.089-.292-.067-.136.02-.318.117-.567.3-.342.228-.841.343-1.485.343h-4.752l.09-3.834c0-.615-.255-.745-.468-.745-.174 0-.416.131-.999 1.084-.941 1.504-2.315 3.03-4.09 4.536-.437.371-.649.68-.649.943 0 .225.129.495.745.495h1.902v11.458c0 3.757 1.83 5.662 5.438 5.662 1.06 0 2.219-.301 3.447-.894 1.278-.618 1.9-1.195 1.9-1.764 0-.247-.158-.396-.423-.396zM187.86 41.194c-1.002-.995-2.102-1.499-3.269-1.499-1.206 0-2.224.489-3.028 1.454-.789.947-1.293 2.247-1.501 3.867h7.636c.762 0 1.672-.101 1.672-.589 0-1.15-.508-2.238-1.51-3.233zm4.788 12.665a.923.923 0 01.413-.19c.15-.01.264.025.347.103.093.089.142.226.142.409 0 .511-.545 1.185-1.667 2.061-2.011 1.57-4.17 2.368-6.417 2.368-2.533 0-4.687-.976-6.404-2.9-1.712-1.918-2.58-4.325-2.58-7.154 0-2.69.895-5.077 2.659-7.095 1.771-2.023 3.875-3.049 6.255-3.049 2.598 0 4.705 1.096 6.262 3.259.372.526.756 1.248 1.144 2.144.394.917.587 1.546.587 1.922 0 .601-.554.905-1.645.905l-1.708-.022-1.567-.047h-8.571l-.016.367c0 2.57.722 4.765 2.145 6.517 1.416 1.743 3.181 2.627 5.246 2.627 1.633 0 3.442-.748 5.375-2.225zm13.429-5.038c-2.267.22-4.043.75-5.285 1.575-1.247.828-1.878 1.899-1.876 3.186 0 1.006.296 1.815.882 2.401.586.587 1.394.884 2.401.884 1.234 0 2.287-.409 3.122-1.217.501-.5.756-1.32.756-2.433v-4.396zm6.1 7.825c.291-.069.477-.102.581-.102.179-.01.311.032.401.124.084.085.123.205.112.356-.02.345-.394.652-1.176.966-.723.289-1.44.436-2.132.436-1.273 0-2.435-.769-3.454-2.283-2.189 1.636-4.255 2.467-6.142 2.467-1.469 0-2.658-.405-3.532-1.2-.879-.8-1.323-1.886-1.323-3.226 0-1.812.835-3.235 2.481-4.233 1.6-.969 4.319-1.754 8.082-2.336v-2.71c0-1.706-.318-2.895-.948-3.534-.855-.884-2.028-1.329-3.483-1.329-1.947 0-2.892.788-2.892 2.409 0 .486.099 1.055.293 1.691.093.278.151.536.167.762a.52.52 0 01-.125.403c-.105.11-.266.165-.478.165a4.32 4.32 0 01-2.022-.477c-.636-.333-.958-.717-.958-1.142 0-.981.532-2.048 1.581-3.171 1.403-1.505 3.29-2.268 5.606-2.268 2.112 0 3.776.479 4.948 1.422 1.181.952 1.78 2.308 1.78 4.032v9.009c0 1.391.168 2.393.499 2.972.32.561.847.834 1.61.834.221 0 .399-.013.524-.037zm47.275.475c-1.203-.192-1.995-.494-2.354-.896-.357-.4-.539-1.172-.539-2.295v-7.294c0-2.435-.689-4.434-2.047-5.942-1.363-1.513-3.166-2.281-5.357-2.281-2.263 0-4.383 1.144-6.31 3.4v-15.38c0-.509.007-.902.021-1.157.032-.274.049-.466.049-.568 0-.568-.338-.653-.54-.653-.161 0-.346.053-.547.152l-1.802.852c-1.171.561-2.249.959-3.208 1.187-.425.113-.64.32-.64.614 0 .245.127.372.241.438a.842.842 0 00.396.086h.002l1.173-.069c.316-.02.581.065.788.26.398.375.599 1.158.599 2.329v23.959c0 1.602-.158 2.207-.291 2.432-.186.318-.72.614-1.583.877-.548.157-.647.473-.635.711.013.185.123.496.724.496.205 0 .555-.02 1.073-.062a40.127 40.127 0 012.642-.122c1.772 0 2.949.026 3.491.081.702.07 1.11.103 1.284.103.568 0 .653-.331.653-.528 0-.383-.304-.62-.91-.707-1.318-.178-2.152-.485-2.48-.912-.331-.433-.499-1.426-.499-2.954v-8.921c0-.948.506-1.819 1.503-2.591 1.011-.778 2.155-1.174 3.401-1.174 1.616 0 2.924.558 3.885 1.657.967 1.106 1.457 2.627 1.457 4.521v7.626l-.023.715c0 .811-.135 1.154-.245 1.296-.114.147-.448.396-1.388.745-.388.151-.575.36-.554.616.012.211.129.564.791.564.112 0 .352-.021.73-.062.634-.081 1.634-.121 2.976-.121.809 0 1.789.038 2.91.114.565.045.95.069 1.139.069.667 0 .768-.351.768-.56 0-.246-.13-.559-.744-.651zM75.099 75.232c.36.179 1.257.506 2.665.974 2.779.909 4.188 2.427 4.187 4.508 0 1.409-.52 2.579-1.546 3.476-1.024.896-2.355 1.35-3.956 1.35a8.403 8.403 0 01-1.917-.249c-.695-.164-1.213-.361-1.539-.58a.76.76 0 01-.29-.311c-.047-.108-.117-.374-.205-.792l-.281-1.019c-.194-.673-.294-1.161-.294-1.452 0-.151.033-.257.1-.319a.248.248 0 01.191-.064c.167.008.304.202.42.593.263.915.829 1.691 1.678 2.311.853.621 1.79.934 2.787.934 1.011 0 1.877-.301 2.577-.895.695-.593 1.048-1.323 1.048-2.17 0-.809-.326-1.501-.967-2.056-.327-.286-1.301-.702-2.895-1.237-1.66-.561-2.853-1.191-3.548-1.875-.699-.689-1.053-1.594-1.053-2.689 0-1.223.462-2.234 1.373-3.005.907-.769 2.093-1.159 3.523-1.159.804 0 1.496.119 2.054.354l.774.324a.357.357 0 00.411-.058l.158-.134c.027-.038.09-.061.174-.059.071 0 .133.024.183.072.097.093.143.269.143.537 0 .124.049.503.145 1.125l.181 1.156c.038.26.056.407.056.469 0 .336-.163.407-.298.407-.154 0-.288-.185-.422-.581-.263-.794-.807-1.459-1.615-1.974a4.992 4.992 0 00-2.728-.78c-.786 0-1.452.237-1.981.701a2.229 2.229 0 00-.791 1.736c0 .614.174 1.149.515 1.593.298.38.629.662.983.838zm10.936 6.303c.607-.404 1.482-.662 2.598-.77v2.158c0 .546-.126.949-.373 1.197-.411.396-.927.597-1.533.597-.494 0-.891-.147-1.18-.436-.288-.288-.434-.685-.434-1.18-.001-.632.309-1.159.922-1.566zm5.843 3.024c-.05 0-.143.017-.28.049a1.37 1.37 0 01-.259.019c-.377 0-.638-.135-.796-.413-.163-.286-.244-.777-.244-1.458v-4.394c0-.836-.29-1.496-.864-1.957-.569-.459-1.378-.691-2.405-.691-1.128 0-2.044.371-2.726 1.103-.509.544-.767 1.062-.767 1.537 0 .203.154.386.46.546.293.153.623.231.98.231.1 0 .175-.027.223-.076.043-.046.062-.108.058-.187a1.617 1.617 0 00-.081-.37 2.913 2.913 0 01-.144-.829c0-.8.466-1.188 1.423-1.188.714 0 1.288.221 1.709.653.31.314.466.897.466 1.731v1.334c-1.841.284-3.168.667-3.948 1.138-.799.486-1.204 1.176-1.204 2.054 0 .651.215 1.179.641 1.564.423.386 1.001.583 1.714.583.922 0 1.93-.408 3-1.21.495.745 1.06 1.12 1.681 1.12a2.78 2.78 0 001.034-.212c.377-.151.557-.296.566-.46.005-.07-.013-.125-.051-.164-.041-.038-.104-.058-.186-.053zm11.766.135l.472.068c.232.031.354.125.363.27a.248.248 0 01-.066.194c-.07.074-.188.109-.361.109a4.08 4.08 0 01-.444-.039c-.242-.034-.7-.051-1.359-.051l-1.106.034h-.427l-.329.023-.182-.043c-.05-.03-.107-.092-.107-.225 0-.099.042-.228.247-.275l.335-.088c.272-.068.405-.314.405-.75v-3.867c0-1.019-.238-1.816-.707-2.366-.465-.55-1.139-.827-2.002-.827-.607 0-1.153.182-1.624.538-.466.354-.703.761-.703 1.211v4.284l.023.899c.034.599.527.919 1.504.978.282.026.425.127.425.3 0 .099-.041.266-.317.266-.131 0-.327-.023-.582-.065-.136-.017-.48-.025-1.045-.025-1.183 0-1.897.017-2.125.051-.243.028-.388.04-.457.04-.093 0-.163-.025-.208-.072a.232.232 0 01-.053-.175c.01-.117.095-.209.25-.271.37-.131.619-.288.743-.472.125-.183.187-.489.187-.909v-5.066c0-.516-.06-.868-.181-1.049-.115-.172-.34-.26-.669-.26l-.481.012a.424.424 0 01-.211-.054c-.083-.038-.129-.112-.129-.212 0-.138.113-.231.338-.276a5.768 5.768 0 001.435-.456l.594-.292c.232-.111.377-.182.437-.212.201-.115.369-.129.46-.029.059.063.083.169.073.321-.006.117-.01.255-.01.423v1.11c.979-1.118 2.008-1.686 3.062-1.686 1.211 0 2.183.504 2.888 1.497.484.682.728 1.729.728 3.114v2.686l-.011.34.034.532c.079.466.372.734.893.812zm67.238.09l-.516-.056c-.352-.05-.587-.158-.693-.322-.11-.168-.165-.518-.165-1.036v-7.564c0-.257-.108-.32-.201-.327l-.014-.002-.615.289c-.642.335-1.178.575-1.59.715-.416.13-.606.248-.615.382a.163.163 0 00.046.131c.068.074.203.107.427.107.374 0 .618.085.726.252.113.177.172.574.172 1.18v4.887c0 .438-.047.756-.137.951-.087.188-.24.317-.463.395l-.214.067c-.201.068-.242.199-.242.296 0 .121.063.266.363.266.079 0 .218-.011.416-.034.082-.016.2-.027.341-.033l.815-.044.724.013c.323 0 .586.008.78.025.37.035.61.051.738.051.287 0 .356-.131.362-.243.008-.189-.14-.306-.445-.346zm-5.993-.09l.472.068c.232.031.354.125.361.27a.252.252 0 01-.066.194c-.069.074-.188.109-.362.109-.083 0-.227-.012-.443-.039-.242-.034-.699-.051-1.359-.051l-1.106.034h-.428l-.329.023-.181-.043c-.049-.03-.107-.092-.107-.225 0-.099.043-.228.248-.275l.335-.088c.272-.068.405-.314.405-.75v-3.867c0-1.019-.239-1.816-.707-2.366-.466-.55-1.139-.827-2.002-.827-.607 0-1.153.182-1.624.538-.466.354-.703.761-.703 1.211v4.284l.022.899c.035.599.528.919 1.506.978.283.026.424.127.424.3 0 .099-.041.266-.316.266-.131 0-.328-.023-.582-.065-.136-.017-.48-.025-1.045-.025-1.183 0-1.897.017-2.125.051-.243.028-.387.04-.457.04-.093 0-.163-.025-.208-.072a.232.232 0 01-.053-.175c.009-.116.093-.207.25-.271.37-.131.619-.288.743-.472.124-.183.186-.489.186-.909v-5.066c0-.516-.06-.868-.181-1.049-.115-.172-.339-.26-.669-.26l-.481.012a.415.415 0 01-.21-.054c-.083-.037-.129-.112-.129-.212 0-.138.112-.231.337-.276a5.788 5.788 0 001.436-.456l.594-.292c.232-.111.377-.182.437-.212.201-.115.367-.129.461-.029.058.063.084.169.073.321a7.114 7.114 0 00-.011.423v1.11c.979-1.118 2.009-1.686 3.062-1.686 1.212 0 2.185.504 2.889 1.497.483.682.728 1.729.728 3.114v2.686l-.011.34.032.532c.08.466.373.734.894.812zm-13.593-3.479c0 1.148-.265 2.07-.789 2.737-.521.663-1.242 1-2.145 1-1.036 0-1.915-.478-2.614-1.419-.704-.947-1.06-2.141-1.06-3.552 0-1.102.285-2.006.845-2.684.557-.675 1.302-1.016 2.214-1.016 1.034 0 1.894.459 2.551 1.367.662.914.998 2.114.998 3.567zm-3.263-5.502c-1.395 0-2.598.487-3.578 1.447-.98.959-1.477 2.14-1.477 3.511 0 1.414.468 2.593 1.393 3.5.924.908 2.118 1.369 3.549 1.369 1.46 0 2.688-.473 3.644-1.407.958-.934 1.442-2.133 1.442-3.563 0-1.317-.494-2.468-1.465-3.421-.972-.953-2.153-1.436-3.508-1.436zm20.035-4.152c.288-.324.512-.483.681-.483.204 0 .401.156.603.479l.271.429a.551.551 0 01.121.313c.009.187-.122.436-.397.76-.278.325-.5.482-.677.482-.171 0-.382-.155-.643-.472-.26-.315-.387-.56-.387-.748 0-.189.14-.438.428-.76zm-50.25 6.423c0 .146-.169.222-.502.222h-3.387l-.307-.011c-.457 0-.457-.176-.457-.233 0-.034.018-.128.14-.391l2.189-4.861c.076-.169.118-.18.121-.18.046.003.136.052.242.334l1.85 4.674.057.203v.002c.045.14.054.208.054.241zm6.086 6.766c-.697-.124-1.162-.295-1.384-.508-.225-.212-.515-.774-.862-1.67l-.247-.606-4.826-12.364c-.093-.245-.21-.364-.358-.364-.146 0-.271.122-.379.372l-5.771 12.817-.323.739a5.194 5.194 0 01-.623.983c-.306.383-.482.497-.577.526l-.417.123c-.152.047-.232.149-.232.298 0 .099.047.266.362.266.014 0 .059 0 .632-.063.115-.01.284-.016.499-.016.456 0 .874.009 1.239.024l1.075.064c.167.009.295.013.385.013.155 0 .259-.031.319-.093a.199.199 0 00.052-.155c-.009-.162-.142-.268-.394-.317-.505-.11-.845-.241-1.012-.391-.163-.145-.245-.387-.245-.721 0-.358.166-.917.493-1.664l.737-1.653c.272-.619.432-.818.518-.875.086-.057.329-.125 1-.125h4.063c.529 0 .685.053.73.084.054.039.159.189.35.687l.561 1.486c.452 1.172.681 1.962.681 2.352 0 .407-.168.64-.516.707l-.347.079c-.271.053-.327.185-.327.288 0 .107.045.289.35.289.08 0 .2-.016.358-.046.256-.043.91-.065 1.943-.065.988 0 1.685.019 2.073.055.228.016.364.023.432.023.295 0 .365-.131.372-.243.009-.173-.12-.285-.384-.336zm55.53-.798c.524-.667.789-1.589.789-2.737 0-1.453-.335-2.653-.997-3.567-.657-.908-1.516-1.367-2.551-1.367-.912 0-1.656.341-2.214 1.016-.559.678-.843 1.581-.843 2.684 0 1.411.355 2.606 1.058 3.552.698.941 1.577 1.419 2.613 1.419.903 0 1.624-.337 2.145-1zm-6.051-6.792c.979-.96 2.182-1.447 3.577-1.447 1.355 0 2.536.483 3.509 1.436.972.953 1.465 2.104 1.465 3.421 0 1.43-.485 2.629-1.443 3.563-.957.934-2.183 1.407-3.644 1.407-1.431 0-2.625-.461-3.548-1.369-.924-.907-1.393-2.085-1.393-3.5 0-1.371.497-2.552 1.477-3.511zm-37.825 7.602l-.471-.068c-.522-.078-.814-.346-.893-.812l-.035-.532.012-.34v-2.686c0-1.384-.245-2.431-.729-3.114-.705-.993-1.676-1.497-2.887-1.497-1.054 0-2.083.568-3.062 1.686v-1.11c0-.168.004-.306.011-.423.011-.152-.013-.258-.072-.321-.093-.101-.26-.086-.461.029-.06.03-.206.102-.437.212l-.594.292a5.754 5.754 0 01-1.435.456c-.225.045-.338.138-.338.276 0 .1.047.174.13.212a.415.415 0 00.21.054l.481-.012c.329 0 .554.088.669.26.12.179.182.532.182 1.049v5.066c0 .42-.063.725-.187.909-.124.184-.373.343-.744.472-.155.064-.24.155-.249.271a.232.232 0 00.053.175c.044.047.114.072.208.072.068 0 .217-.012.458-.04.228-.034.941-.051 2.124-.051.566 0 .909.008 1.045.025.255.042.451.065.582.065.276 0 .317-.167.317-.266 0-.173-.143-.274-.425-.3-.978-.059-1.471-.379-1.506-.978l-.022-.899V78.61c0-.45.237-.857.703-1.211a2.632 2.632 0 011.624-.538c.862 0 1.536.277 2.002.827.468.55.706 1.347.706 2.366v3.867c0 .436-.133.682-.405.75l-.336.088c-.204.047-.246.176-.246.275 0 .107.034.184.106.225l.182.043.329-.023h.428l1.106-.034c.66 0 1.117.017 1.359.051.214.027.359.039.444.039.173 0 .292-.035.362-.109a.25.25 0 00.065-.194c-.009-.145-.131-.239-.364-.27zm6.972-.657l.092-.029c.123 0 .194.066.197.181 0 .272-.302.55-.921.849-.597.288-1.161.434-1.676.434-1.753 0-2.64-.924-2.64-2.748v-5.603h-.941c-.289 0-.35-.125-.35-.228 0-.125.102-.271.313-.45.866-.736 1.538-1.482 1.996-2.216.283-.461.4-.523.477-.523.098 0 .215.061.215.351l-.042 1.883h2.331c.314 0 .561-.058.73-.17.119-.087.209-.135.272-.144a.154.154 0 01.131.031c.037.032.053.085.046.157 0 .027-.01.091-.105.302l-.257.642c-.09.242-.276.365-.548.365h-2.602v5.587c0 .714.1 1.179.297 1.385.294.308.721.465 1.271.465.444 0 .824-.08 1.128-.24l.586-.281z" fill="#000"/><path d="M30.013 0a6.572 6.572 0 00-6.419 5.104h-3.877v2.191a7.208 7.208 0 01-3.33 3.462 14.437 14.437 0 01-6.813 1.577h-1.84v3.001H.131v9.18h29.881V0zm0 89.075a92.117 92.117 0 01-11.392-7.142 42.083 42.083 0 01-15.86-21.907A69.512 69.512 0 010 40.506V27.538h30.012v61.538z" fill="#D66027"/><path d="M59.916 24.514H30.013V0a6.572 6.572 0 016.44 5.104h3.79v2.191a7.208 7.208 0 003.418 3.418 14.393 14.393 0 006.726 1.62h1.84v3.002h7.602v9.18h.087zm-29.903 64.56a92.386 92.386 0 0011.414-7.14 42.084 42.084 0 0015.86-21.908 69.51 69.51 0 002.76-19.541V27.538H30.014v61.537z" fill="#BC4A27"/><path d="M11.414 48.394l11.501 8.368-4.403 13.517 11.501-8.369V34.877l-4.381 13.517H11.414z" fill="#fff"/><path d="M41.514 70.279l-4.381-13.517 11.501-8.368H34.416l-4.403-13.517V61.91l11.501 8.369z" fill="#FCCEB0"/><path d="M38.093 87.785v-.512h.33c.041 0 .082.004.124.011a.307.307 0 01.113.033.194.194 0 01.08.074.224.224 0 01.034.129.27.27 0 01-.037.15.203.203 0 01-.091.078.437.437 0 01-.136.033 3.085 3.085 0 01-.157.004h-.26zm-.248-.714v1.608h.248v-.692h.264l.435.692h.267l-.457-.71a.548.548 0 00.3-.118c.08-.069.12-.175.12-.32 0-.155-.046-.27-.139-.346-.09-.076-.23-.114-.42-.114h-.618zm-.596.799a1.15 1.15 0 01.322-.828 1.102 1.102 0 01.808-.339 1.084 1.084 0 01.797.338 1.199 1.199 0 01.325.828c0 .17-.029.327-.087.472a1.114 1.114 0 01-.238.372 1.11 1.11 0 01-.355.25 1.105 1.105 0 01-.442.088c-.161 0-.311-.03-.45-.088a1.154 1.154 0 01-.358-.25c-.1-.106-.18-.23-.238-.372a1.293 1.293 0 01-.084-.471zm-.249 0a1.379 1.379 0 00.406.99 1.391 1.391 0 00.973.39 1.371 1.371 0 00.965-.39 1.379 1.379 0 00.406-.99 1.34 1.34 0 00-.11-.542 1.348 1.348 0 00-.731-.721 1.33 1.33 0 00-.53-.107c-.188 0-.366.036-.534.107a1.391 1.391 0 00-.44.287 1.384 1.384 0 00-.295.434c-.073.167-.11.348-.11.541z" fill="#000"/></svg>