<svg width="56" height="72" viewBox="0 0 56 72" fill="none" xmlns="http://www.w3.org/2000/svg">
<path d="M28.0002 1C26.8191 0.99433 25.6704 1.38556 24.7383 2.11092C23.8062 2.83629 23.1448 3.85373 22.8602 5H19.8602V6.77C19.8602 6.77 19.4402 8.11 17.1302 9.45C15.4396 10.2945 13.5695 10.7165 11.6802 10.68H10.1802V13.05H4.10015V20.27H28.0002V1ZM28.0002 71C24.83 69.3503 21.7822 67.4755 18.8802 65.39C12.8772 61.2069 8.42054 55.1616 6.20015 48.19C4.72873 43.2031 3.98769 38.0294 4.00015 32.83V22.64H28.0002V71Z" fill="#D66027"/>
<path d="M51.9 20.27H28V1C29.1811 0.99433 30.3298 1.38556 31.2619 2.11092C32.194 2.83629 32.8554 3.85373 33.14 5H36.14V6.77C36.14 6.77 36.56 8.11 38.87 9.45C40.5605 10.2945 42.4306 10.7165 44.32 10.68H45.79V13.05H51.9V20.27ZM28 71C31.1701 69.3503 34.2179 67.4755 37.12 65.39C43.123 61.2069 47.5796 55.1616 49.8 48.19C51.2714 43.2031 52.0125 38.0294 52 32.83V22.64H28V71Z" fill="#C0511B"/>
<path d="M13.1201 39.03L22.3201 45.6L18.8001 56.22L28.0001 49.65V28.41L24.4901 39.03H13.1201Z" fill="white"/>
<path d="M37.2 56.22L33.68 45.6L42.88 39.03H31.51L28 28.41V49.65L37.2 56.22Z" fill="#F3CFBE"/>
</svg>
