<svg width="24" height="24" viewBox="0 0 24 24" fill="none" xmlns="http://www.w3.org/2000/svg">
<g clip-path="url(#clip0)">
<path d="M23.7785 9.81796H12.2461V14.4595H18.8359C18.6996 15.1937 18.4128 15.8932 17.9929 16.5158C17.5729 17.1383 17.0285 17.6709 16.3926 18.0814L20.3499 21.0928C22.6653 19.0037 24.0011 15.9274 24.0011 12.2728C24.0019 11.4497 23.9274 10.6281 23.7785 9.81796Z" fill="#3E82F1"/>
<path d="M12.2453 19.2278C9.05595 19.2278 6.35653 17.1169 5.39365 14.2805L1.30273 17.3896C2.32174 19.3776 3.88478 21.0487 5.81718 22.2161C7.74957 23.3836 9.97518 24.0014 12.2453 24.0005C15.5513 24.0005 18.3232 22.926 20.3491 21.0932L16.3918 18.0823C15.2953 18.8024 13.8927 19.2278 12.2453 19.2278Z" fill="#32A753"/>
<path d="M5.00929 12.0007C5.01143 11.2254 5.14111 10.4556 5.39333 9.72074L1.30242 6.61172C0.445987 8.28418 0 10.1296 0 12.0008C0 13.872 0.445987 15.7174 1.30242 17.3899L5.39333 14.2807C5.14109 13.5459 5.01141 12.776 5.00929 12.0007Z" fill="#F9BB00"/>
<path d="M12.2453 4.77273C14.043 4.77273 15.6571 5.37822 16.9262 6.56728L20.4382 3.12546C18.3176 1.18914 15.5457 9.02521e-07 12.2453 9.02521e-07C9.97517 -0.000861934 7.74955 0.616964 5.81716 1.78443C3.88476 2.95189 2.32172 4.62299 1.30273 6.61097L5.39365 9.71998C6.35626 6.88358 9.05595 4.77273 12.2453 4.77273Z" fill="#E74133"/>
</g>
<defs>
<clipPath id="clip0">
<rect width="24" height="24" fill="white"/>
</clipPath>
</defs>
</svg>
