<svg width="261" height="90" viewBox="0 0 261 90" fill="none" xmlns="http://www.w3.org/2000/svg">
<path fill-rule="evenodd" clip-rule="evenodd" d="M222.655 56.869C221.149 56.618 220.226 56.127 219.911 55.412C219.63 54.758 219.488 53.801 219.488 52.569V25.563L219.51 24.85V24.845C219.51 24.273 219.434 23.934 219.269 23.781C219.201 23.718 219.12 23.685 219.039 23.685C218.879 23.682 218.695 23.748 218.468 23.898C218.065 24.196 217.323 24.562 216.26 24.985L214.853 25.56C214.433 25.725 213.957 25.869 213.436 25.991C212.967 26.12 212.728 26.335 212.728 26.628C212.728 26.792 212.791 27.014 213.107 27.148C213.227 27.183 213.372 27.201 213.545 27.201H213.547L214.69 27.155C215.585 27.155 216.019 27.8 216.019 29.126V54.644C216.019 55.346 215.907 55.854 215.687 56.157C215.47 56.459 215.028 56.708 214.376 56.896C213.856 57.037 213.604 57.275 213.624 57.606C213.636 57.827 213.749 58.197 214.394 58.197C214.459 58.197 214.621 58.185 215.29 58.08C215.623 58.035 216.524 58.012 217.968 58.012L221.176 57.989C221.625 57.989 221.965 58.011 222.179 58.054C222.455 58.118 222.663 58.15 222.813 58.15C223.022 58.15 223.182 58.092 223.292 57.978C223.402 57.862 223.454 57.695 223.445 57.476C223.424 57.161 223.158 56.957 222.655 56.869ZM169.199 58.149C168.922 58.149 168.556 58.172 168.105 58.217C167.106 58.297 166.612 58.333 166.503 58.33C166.485 58.331 166.466 58.331 166.448 58.331C166.228 58.331 166.059 58.275 165.947 58.164C165.844 58.059 165.795 57.912 165.803 57.727C165.824 57.38 166.129 57.158 166.711 57.072C168.252 56.808 169.002 55.567 169.002 53.276L169.024 52.375V43.92C169.024 42.976 168.903 42.795 168.867 42.762C168.827 42.728 168.62 42.615 167.583 42.615H154.029C152.989 42.615 152.617 42.74 152.488 42.846C152.366 42.946 152.22 43.241 152.22 44.078V52.523C152.22 54.078 152.464 55.177 152.948 55.792C153.427 56.401 154.346 56.785 155.679 56.933C156.326 57.002 156.664 57.246 156.684 57.658C156.691 57.827 156.644 57.968 156.543 58.073C156.407 58.216 156.186 58.285 155.869 58.285C155.662 58.285 155.288 58.251 154.724 58.178C154.313 58.109 153.392 58.075 151.98 58.075L150.047 58.055L148.536 58.105C148.155 58.105 147.671 58.131 147.094 58.181C146.281 58.251 145.804 58.285 145.632 58.285C145.003 58.285 144.91 57.925 144.91 57.711C144.91 57.472 145.033 57.161 145.622 57.028L146.77 56.752C147.395 56.61 147.812 56.145 148.043 55.332C148.284 54.488 148.406 52.981 148.406 50.852V31.064C148.406 29.77 148.162 28.824 147.682 28.253C147.202 27.685 146.318 27.298 145.056 27.103C144.402 27.017 144.264 26.709 144.264 26.465C144.264 26.287 144.319 26.143 144.426 26.04C144.552 25.917 144.745 25.863 145.014 25.869C145.312 25.886 145.78 25.933 146.408 26.009C147.595 26.147 149.006 26.215 150.601 26.215C151.682 26.215 152.705 26.153 153.643 26.032C154.07 25.969 154.393 25.939 154.628 25.939C155.336 25.939 155.442 26.327 155.442 26.558C155.442 26.873 155.196 27.095 154.71 27.217C153.722 27.47 153.053 27.827 152.722 28.282C152.39 28.739 152.221 29.529 152.221 30.631V38.874C152.221 39.965 152.358 40.26 152.441 40.338C152.507 40.402 152.796 40.551 154.03 40.551H167.606C168.408 40.551 168.704 40.464 168.814 40.391C168.952 40.299 169.024 40.054 169.024 39.681V31.808C169.024 30.257 168.826 29.149 168.436 28.514C168.053 27.89 167.33 27.454 166.286 27.219C165.615 27.088 165.49 26.771 165.504 26.529C165.516 26.335 165.625 26.009 166.226 26.009C166.554 26.009 167.085 26.048 167.807 26.125C168.805 26.232 169.884 26.285 171.013 26.285C172.643 26.285 173.797 26.239 174.443 26.149C174.871 26.087 175.157 26.056 175.317 26.056C175.924 26.056 176.015 26.429 176.015 26.651C176.015 26.867 175.899 27.149 175.347 27.266L174.405 27.473C173.973 27.557 173.604 27.877 173.306 28.424C172.997 28.991 172.84 29.652 172.84 30.39V52.641C172.84 54.243 173.063 55.36 173.503 55.961C173.936 56.552 174.792 56.919 176.046 57.051C176.602 57.121 176.893 57.319 176.913 57.637C176.93 57.833 176.882 57.995 176.772 58.115C176.499 58.412 175.896 58.369 174.903 58.216C174.543 58.155 173.776 58.125 172.624 58.125L170.919 58.102L169.199 58.149ZM96.759 53.855C98.442 51.584 99.295 48.303 99.295 44.104V32.713C99.295 30.822 99.432 29.525 99.699 28.856C99.958 28.208 100.543 27.692 101.437 27.326C101.818 27.167 102.011 26.94 102.011 26.651C102.011 26.301 101.799 26.101 101.428 26.101C101.284 26.101 100.941 26.124 100.402 26.171C100.007 26.216 98.948 26.239 97.252 26.239C96.453 26.239 95.758 26.194 95.188 26.102C94.529 25.993 94.043 25.932 93.703 25.917C93.506 25.905 93.365 25.954 93.259 26.054C93.147 26.161 93.09 26.323 93.09 26.534C93.09 26.79 93.229 27.108 93.891 27.175C95.157 27.293 96.064 27.77 96.588 28.59C97.123 29.43 97.394 30.807 97.394 32.685V44.596C97.394 48.57 96.492 51.582 94.713 53.544C92.939 55.504 90.216 56.497 86.621 56.497C82.605 56.497 79.708 55.311 78.009 52.97C76.805 51.319 76.195 48.501 76.195 44.596V33.003L76.148 31.491C76.148 30.034 76.294 29.017 76.581 28.466C76.858 27.933 77.425 27.568 78.261 27.381C78.829 27.276 79.117 27.039 79.117 26.675C79.117 26.487 79.029 26.17 78.441 26.17C78.221 26.17 77.821 26.193 77.254 26.239C76.573 26.301 76.156 26.33 75.978 26.33H74.228L72.457 26.353C72.137 26.353 71.621 26.33 70.922 26.284C70.247 26.255 69.712 26.239 69.328 26.239C68.484 26.239 68.307 26.613 68.307 26.925C68.307 27.157 68.436 27.454 69.053 27.543C70.371 27.735 71.256 28.129 71.683 28.714C72.115 29.307 72.334 30.421 72.334 32.027L72.379 33.334V45.022C72.379 48.24 72.935 50.889 74.031 52.894C75.008 54.645 76.57 56.051 78.673 57.073C80.771 58.091 83.162 58.607 85.779 58.607C88.028 58.607 90.173 58.174 92.154 57.319C94.14 56.462 95.69 55.296 96.759 53.855ZM115.164 28.995C115.873 28.995 116.104 29.115 116.178 29.185C116.251 29.254 116.374 29.471 116.374 30.145L116.397 30.738V53.578C116.397 54.828 116.199 55.701 115.81 56.17C115.421 56.637 114.648 56.949 113.512 57.096C112.922 57.166 112.623 57.368 112.623 57.692C112.623 57.931 112.731 58.331 113.462 58.331C113.622 58.331 114.132 58.287 115.021 58.193C115.459 58.148 116.004 58.125 116.644 58.125L118.439 58.102L120.125 58.125C121.205 58.125 121.895 58.148 122.176 58.192C122.758 58.285 123.134 58.331 123.329 58.331C124.019 58.331 124.122 57.93 124.122 57.69C124.122 57.354 123.81 57.131 123.195 57.029C121.322 56.702 120.375 55.699 120.301 53.967L120.279 53.071V30.484C120.279 29.592 120.42 29.313 120.503 29.226C120.586 29.14 120.848 28.995 121.675 28.995H128.14C129.391 28.995 130.236 29.152 130.653 29.461C131.064 29.767 131.37 30.452 131.563 31.499C131.67 32.071 131.893 32.349 132.272 32.332C132.566 32.306 132.911 32.131 132.889 31.443C132.872 31.205 132.826 30.824 132.748 30.303C132.675 29.901 132.636 29.247 132.636 28.359C132.636 27.093 132.461 26.766 132.33 26.63C132.118 26.412 131.599 26.31 130.693 26.31H105.914C105.336 26.31 104.962 26.439 104.77 26.704C104.588 26.953 104.501 27.435 104.501 28.177C104.501 28.88 104.386 29.788 104.159 30.876C103.97 31.749 103.878 32.337 103.878 32.672C103.878 33.312 104.224 33.426 104.432 33.438C104.97 33.4605 105.137 32.7387 105.199 32.4685L105.204 32.449C105.501 31.106 105.923 30.184 106.458 29.708C106.988 29.236 107.865 28.997 109.063 28.997H115.164V28.995ZM236.001 55.555L235.8 55.615L234.597 56.193C233.978 56.518 233.203 56.682 232.296 56.682C231.177 56.682 230.307 56.365 229.71 55.737C229.308 55.323 229.106 54.374 229.106 52.917V41.489H234.413C234.984 41.489 235.371 41.231 235.562 40.724L236.088 39.407C236.281 38.973 236.308 38.841 236.308 38.778C236.319 38.622 236.284 38.506 236.204 38.434C236.13 38.368 236.03 38.345 235.912 38.367C235.776 38.387 235.594 38.484 235.345 38.667C235.003 38.895 234.504 39.01 233.86 39.01H229.108L229.198 35.176C229.198 34.561 228.943 34.431 228.73 34.431C228.556 34.431 228.314 34.562 227.731 35.515C226.79 37.019 225.416 38.545 223.641 40.051C223.204 40.422 222.992 40.731 222.992 40.994C222.992 41.219 223.121 41.489 223.737 41.489H225.639V52.947C225.639 56.704 227.469 58.609 231.077 58.609C232.137 58.609 233.296 58.308 234.524 57.715C235.802 57.097 236.424 56.52 236.424 55.951C236.424 55.704 236.266 55.555 236.001 55.555ZM187.86 41.194C186.858 40.199 185.758 39.695 184.591 39.695C183.385 39.695 182.367 40.184 181.563 41.149C180.774 42.096 180.27 43.396 180.062 45.016H187.698C188.46 45.016 189.37 44.915 189.37 44.427C189.37 43.277 188.862 42.189 187.86 41.194ZM192.648 53.859C192.793 53.751 192.927 53.689 193.061 53.669C193.211 53.659 193.325 53.694 193.408 53.772C193.501 53.861 193.55 53.998 193.55 54.181C193.55 54.692 193.005 55.366 191.883 56.242C189.872 57.812 187.713 58.61 185.466 58.61C182.933 58.61 180.779 57.634 179.062 55.71C177.35 53.792 176.482 51.385 176.482 48.556C176.482 45.866 177.377 43.479 179.141 41.461C180.912 39.438 183.016 38.412 185.396 38.412C187.994 38.412 190.101 39.508 191.658 41.671C192.03 42.197 192.414 42.919 192.802 43.815C193.196 44.732 193.389 45.361 193.389 45.737C193.389 46.338 192.835 46.642 191.744 46.642L190.036 46.62L188.469 46.573H179.898L179.882 46.94C179.882 49.51 180.604 51.705 182.027 53.457C183.443 55.2 185.208 56.084 187.273 56.084C188.906 56.084 190.715 55.336 192.648 53.859ZM206.077 48.821C203.81 49.041 202.034 49.571 200.792 50.396C199.545 51.224 198.914 52.295 198.916 53.582C198.916 54.588 199.212 55.397 199.798 55.983C200.384 56.57 201.192 56.867 202.199 56.867C203.433 56.867 204.486 56.458 205.321 55.65C205.822 55.15 206.077 54.33 206.077 53.217V48.821ZM212.177 56.646C212.468 56.577 212.654 56.544 212.758 56.544C212.937 56.534 213.069 56.576 213.159 56.668C213.243 56.753 213.282 56.873 213.271 57.024C213.251 57.369 212.877 57.676 212.095 57.99C211.372 58.279 210.655 58.426 209.963 58.426C208.69 58.426 207.528 57.657 206.509 56.143C204.32 57.779 202.254 58.61 200.367 58.61C198.898 58.61 197.709 58.205 196.835 57.41C195.956 56.61 195.512 55.524 195.512 54.184C195.512 52.372 196.347 50.949 197.993 49.951C199.593 48.982 202.312 48.197 206.075 47.615V44.905C206.075 43.199 205.757 42.01 205.127 41.371C204.272 40.487 203.099 40.042 201.644 40.042C199.697 40.042 198.752 40.83 198.752 42.451C198.752 42.937 198.851 43.506 199.045 44.142C199.138 44.42 199.196 44.678 199.212 44.904C199.222 45.074 199.179 45.209 199.087 45.307C198.982 45.417 198.821 45.472 198.609 45.472C197.873 45.472 197.191 45.311 196.587 44.995C195.951 44.662 195.629 44.278 195.629 43.853C195.629 42.872 196.161 41.805 197.21 40.682C198.613 39.177 200.5 38.414 202.816 38.414C204.928 38.414 206.592 38.893 207.764 39.836C208.945 40.788 209.544 42.144 209.544 43.868V52.877C209.544 54.268 209.712 55.27 210.043 55.849C210.363 56.41 210.89 56.683 211.653 56.683C211.874 56.683 212.052 56.67 212.177 56.646ZM259.452 57.121C258.249 56.929 257.457 56.627 257.098 56.225C256.741 55.825 256.559 55.053 256.559 53.93V46.636C256.559 44.201 255.87 42.202 254.512 40.694C253.149 39.181 251.346 38.413 249.155 38.413C246.892 38.413 244.772 39.557 242.845 41.813V26.433C242.845 25.924 242.852 25.531 242.866 25.276C242.898 25.002 242.915 24.81 242.915 24.708C242.915 24.14 242.577 24.055 242.375 24.055C242.214 24.055 242.029 24.108 241.828 24.207L240.026 25.059C238.855 25.62 237.777 26.018 236.818 26.246C236.393 26.359 236.178 26.566 236.178 26.86C236.178 27.105 236.305 27.232 236.419 27.298C236.531 27.356 236.66 27.384 236.815 27.384H236.817L237.99 27.315C238.306 27.295 238.571 27.38 238.778 27.575C239.176 27.95 239.377 28.733 239.377 29.904V53.863C239.377 55.465 239.219 56.07 239.086 56.295C238.9 56.613 238.366 56.909 237.503 57.172C236.955 57.329 236.856 57.645 236.868 57.883C236.881 58.068 236.991 58.379 237.592 58.379C237.797 58.379 238.147 58.359 238.665 58.317C239.802 58.236 240.692 58.195 241.307 58.195C243.079 58.195 244.256 58.221 244.798 58.276C245.5 58.346 245.908 58.379 246.082 58.379C246.65 58.379 246.735 58.048 246.735 57.851C246.735 57.468 246.431 57.231 245.825 57.144C244.507 56.966 243.673 56.659 243.345 56.232C243.014 55.799 242.846 54.806 242.846 53.278V44.357C242.846 43.409 243.352 42.538 244.349 41.766C245.36 40.988 246.504 40.592 247.75 40.592C249.366 40.592 250.674 41.15 251.635 42.249C252.602 43.355 253.092 44.876 253.092 46.77V54.396L253.069 55.111C253.069 55.922 252.934 56.265 252.824 56.407C252.71 56.554 252.376 56.803 251.436 57.152C251.048 57.303 250.861 57.512 250.882 57.768C250.894 57.979 251.011 58.332 251.673 58.332C251.785 58.332 252.025 58.311 252.403 58.27C253.037 58.189 254.037 58.149 255.379 58.149C256.188 58.149 257.168 58.187 258.289 58.263C258.854 58.308 259.239 58.332 259.428 58.332C260.095 58.332 260.196 57.981 260.196 57.772C260.196 57.526 260.066 57.213 259.452 57.121ZM75.099 75.232C75.459 75.411 76.356 75.738 77.764 76.206C80.543 77.115 81.952 78.633 81.951 80.714C81.951 82.123 81.431 83.293 80.405 84.19C79.381 85.086 78.05 85.54 76.449 85.54C75.872 85.54 75.228 85.456 74.532 85.291C73.837 85.127 73.319 84.93 72.993 84.711C72.85 84.616 72.752 84.512 72.703 84.4C72.656 84.292 72.586 84.026 72.498 83.608C72.483 83.551 72.389 83.211 72.217 82.589C72.023 81.916 71.923 81.428 71.923 81.137C71.923 80.986 71.956 80.88 72.023 80.818C72.071 80.771 72.139 80.75 72.214 80.754C72.381 80.762 72.518 80.956 72.634 81.347C72.897 82.262 73.463 83.038 74.312 83.658C75.165 84.279 76.102 84.592 77.099 84.592C78.11 84.592 78.976 84.291 79.676 83.697C80.371 83.104 80.724 82.374 80.724 81.527C80.724 80.718 80.398 80.026 79.757 79.471C79.43 79.185 78.456 78.769 76.862 78.234C75.202 77.673 74.009 77.043 73.314 76.359C72.615 75.67 72.261 74.765 72.261 73.67C72.261 72.447 72.723 71.436 73.634 70.665C74.541 69.896 75.727 69.506 77.157 69.506C77.961 69.506 78.653 69.625 79.211 69.86L79.985 70.184C80.122 70.246 80.258 70.243 80.396 70.126L80.554 69.992C80.581 69.954 80.644 69.931 80.728 69.933C80.799 69.933 80.861 69.957 80.911 70.005C81.008 70.098 81.054 70.274 81.054 70.542C81.054 70.666 81.103 71.045 81.199 71.667L81.38 72.823C81.418 73.083 81.436 73.23 81.436 73.292C81.436 73.628 81.273 73.699 81.138 73.699C80.984 73.699 80.85 73.514 80.716 73.118C80.453 72.324 79.909 71.659 79.101 71.144C78.29 70.627 77.372 70.364 76.373 70.364C75.587 70.364 74.921 70.601 74.392 71.065C73.868 71.526 73.601 72.111 73.601 72.801C73.601 73.415 73.775 73.95 74.116 74.394C74.414 74.774 74.745 75.056 75.099 75.232ZM86.035 81.535C86.642 81.131 87.517 80.873 88.633 80.765V82.923C88.633 83.469 88.507 83.872 88.26 84.12C87.849 84.516 87.333 84.717 86.727 84.717C86.233 84.717 85.836 84.57 85.547 84.281C85.259 83.993 85.113 83.596 85.113 83.101C85.112 82.469 85.422 81.942 86.035 81.535ZM91.878 84.559C91.828 84.559 91.735 84.576 91.598 84.608C91.534 84.621 91.447 84.627 91.339 84.627C90.962 84.627 90.701 84.492 90.543 84.214C90.38 83.928 90.299 83.437 90.299 82.756V78.362C90.299 77.526 90.009 76.866 89.435 76.405C88.866 75.946 88.057 75.714 87.03 75.714C85.902 75.714 84.986 76.085 84.304 76.817C83.795 77.361 83.537 77.879 83.537 78.354C83.537 78.557 83.691 78.74 83.997 78.9C84.29 79.053 84.62 79.131 84.977 79.131C85.077 79.131 85.152 79.104 85.2 79.055C85.243 79.009 85.262 78.947 85.258 78.868C85.249 78.759 85.223 78.638 85.177 78.498C85.082 78.186 85.033 77.907 85.033 77.669C85.033 76.869 85.499 76.481 86.456 76.481C87.17 76.481 87.744 76.702 88.165 77.134C88.475 77.448 88.631 78.031 88.631 78.865V80.199C86.79 80.483 85.463 80.866 84.683 81.337C83.884 81.823 83.479 82.513 83.479 83.391C83.479 84.042 83.694 84.57 84.12 84.955C84.543 85.341 85.121 85.538 85.834 85.538C86.756 85.538 87.764 85.13 88.834 84.328C89.329 85.073 89.894 85.448 90.515 85.448C90.849 85.448 91.198 85.377 91.549 85.236C91.926 85.085 92.106 84.94 92.115 84.776C92.12 84.706 92.102 84.651 92.064 84.612C92.023 84.574 91.96 84.554 91.878 84.559ZM103.644 84.694L104.116 84.762C104.348 84.793 104.47 84.887 104.479 85.032C104.483 85.111 104.461 85.177 104.413 85.226C104.343 85.3 104.225 85.335 104.052 85.335C103.968 85.335 103.823 85.323 103.608 85.296C103.366 85.262 102.908 85.245 102.249 85.245L101.143 85.279H100.716L100.387 85.302L100.205 85.259C100.155 85.229 100.098 85.167 100.098 85.034C100.098 84.935 100.14 84.806 100.345 84.759L100.68 84.671C100.952 84.603 101.085 84.357 101.085 83.921V80.054C101.085 79.035 100.847 78.238 100.378 77.688C99.913 77.138 99.239 76.861 98.376 76.861C97.769 76.861 97.223 77.043 96.752 77.399C96.286 77.753 96.049 78.16 96.049 78.61V82.894L96.072 83.793C96.106 84.392 96.599 84.712 97.576 84.771C97.858 84.797 98.001 84.898 98.001 85.071C98.001 85.17 97.96 85.337 97.684 85.337C97.553 85.337 97.357 85.314 97.102 85.272C96.966 85.255 96.622 85.247 96.057 85.247C94.874 85.247 94.16 85.264 93.932 85.298C93.689 85.326 93.544 85.338 93.475 85.338C93.382 85.338 93.312 85.313 93.267 85.266C93.228 85.223 93.21 85.164 93.214 85.091C93.224 84.974 93.309 84.882 93.464 84.82C93.834 84.689 94.083 84.532 94.207 84.348C94.332 84.165 94.394 83.859 94.394 83.439V78.373C94.394 77.857 94.334 77.505 94.213 77.324C94.098 77.152 93.873 77.064 93.544 77.064L93.063 77.076C92.985 77.076 92.914 77.057 92.852 77.022C92.769 76.984 92.723 76.91 92.723 76.81C92.723 76.672 92.836 76.579 93.061 76.534C93.557 76.446 94.038 76.292 94.496 76.078L95.09 75.786C95.322 75.675 95.467 75.604 95.527 75.574C95.728 75.459 95.896 75.445 95.987 75.545C96.046 75.608 96.07 75.714 96.06 75.866C96.054 75.983 96.05 76.121 96.05 76.289V77.399C97.029 76.281 98.058 75.713 99.112 75.713C100.323 75.713 101.295 76.217 102 77.21C102.484 77.892 102.728 78.939 102.728 80.324V83.01L102.717 83.35L102.751 83.882C102.83 84.348 103.123 84.616 103.644 84.694ZM170.882 84.784L170.366 84.728C170.014 84.678 169.779 84.57 169.673 84.406C169.563 84.238 169.508 83.888 169.508 83.37V75.806C169.508 75.549 169.4 75.486 169.307 75.479L169.293 75.477L168.678 75.766C168.036 76.101 167.5 76.341 167.088 76.481C166.672 76.611 166.482 76.729 166.473 76.863C166.469 76.912 166.484 76.959 166.519 76.994C166.587 77.068 166.722 77.101 166.946 77.101C167.32 77.101 167.564 77.186 167.672 77.353C167.785 77.53 167.844 77.927 167.844 78.533V83.42C167.844 83.858 167.797 84.176 167.707 84.371C167.62 84.559 167.467 84.688 167.244 84.766L167.03 84.833C166.829 84.901 166.788 85.032 166.788 85.129C166.788 85.25 166.851 85.395 167.151 85.395C167.23 85.395 167.369 85.384 167.567 85.361C167.649 85.345 167.767 85.334 167.908 85.328L168.723 85.284L169.447 85.297C169.77 85.297 170.033 85.305 170.227 85.322C170.597 85.357 170.837 85.373 170.965 85.373C171.252 85.373 171.321 85.242 171.327 85.13C171.335 84.941 171.187 84.824 170.882 84.784ZM164.889 84.694L165.361 84.762C165.593 84.793 165.715 84.887 165.722 85.032C165.726 85.111 165.703 85.177 165.656 85.226C165.587 85.3 165.468 85.335 165.294 85.335C165.211 85.335 165.067 85.323 164.851 85.296C164.609 85.262 164.152 85.245 163.492 85.245L162.386 85.279H161.958L161.629 85.302L161.448 85.259C161.399 85.229 161.341 85.167 161.341 85.034C161.341 84.935 161.384 84.806 161.589 84.759L161.924 84.671C162.196 84.603 162.329 84.357 162.329 83.921V80.054C162.329 79.035 162.09 78.238 161.622 77.688C161.156 77.138 160.483 76.861 159.62 76.861C159.013 76.861 158.467 77.043 157.996 77.399C157.53 77.753 157.293 78.16 157.293 78.61V82.894L157.315 83.793C157.35 84.392 157.843 84.712 158.821 84.771C159.104 84.797 159.245 84.898 159.245 85.071C159.245 85.17 159.204 85.337 158.929 85.337C158.798 85.337 158.601 85.314 158.347 85.272C158.211 85.255 157.867 85.247 157.302 85.247C156.119 85.247 155.405 85.264 155.177 85.298C154.934 85.326 154.79 85.338 154.72 85.338C154.627 85.338 154.557 85.313 154.512 85.266C154.473 85.223 154.455 85.164 154.459 85.091C154.468 84.975 154.552 84.884 154.709 84.82C155.079 84.689 155.328 84.532 155.452 84.348C155.576 84.165 155.638 83.859 155.638 83.439V78.373C155.638 77.857 155.578 77.505 155.457 77.324C155.342 77.152 155.118 77.064 154.788 77.064L154.307 77.076C154.229 77.076 154.157 77.057 154.097 77.022C154.014 76.985 153.968 76.91 153.968 76.81C153.968 76.672 154.08 76.579 154.305 76.534C154.8 76.446 155.283 76.292 155.741 76.078L156.335 75.786C156.567 75.675 156.712 75.604 156.772 75.574C156.973 75.459 157.139 75.445 157.233 75.545C157.291 75.608 157.317 75.714 157.306 75.866C157.299 75.983 157.295 76.121 157.295 76.289V77.399C158.274 76.281 159.304 75.713 160.357 75.713C161.569 75.713 162.542 76.217 163.246 77.21C163.729 77.892 163.974 78.939 163.974 80.324V83.01L163.963 83.35L163.995 83.882C164.075 84.348 164.368 84.616 164.889 84.694ZM151.296 81.215C151.296 82.363 151.031 83.285 150.507 83.952C149.986 84.615 149.265 84.952 148.362 84.952C147.326 84.952 146.447 84.474 145.748 83.533C145.044 82.586 144.688 81.392 144.688 79.981C144.688 78.879 144.973 77.975 145.533 77.297C146.09 76.622 146.835 76.281 147.747 76.281C148.781 76.281 149.641 76.74 150.298 77.648C150.96 78.562 151.296 79.762 151.296 81.215ZM148.033 75.713C146.638 75.713 145.435 76.2 144.455 77.16C143.475 78.119 142.978 79.3 142.978 80.671C142.978 82.085 143.446 83.264 144.371 84.171C145.295 85.079 146.489 85.54 147.92 85.54C149.38 85.54 150.608 85.067 151.564 84.133C152.522 83.199 153.006 82 153.006 80.57C153.006 79.253 152.512 78.102 151.541 77.149C150.569 76.196 149.388 75.713 148.033 75.713ZM168.068 71.561C168.356 71.237 168.58 71.078 168.749 71.078C168.953 71.078 169.15 71.234 169.352 71.557L169.623 71.986C169.704 72.1 169.744 72.203 169.744 72.299C169.753 72.486 169.622 72.735 169.347 73.059C169.069 73.384 168.847 73.541 168.67 73.541C168.499 73.541 168.288 73.386 168.027 73.069C167.767 72.754 167.64 72.509 167.64 72.321C167.64 72.132 167.78 71.883 168.068 71.561ZM117.818 77.984C117.818 78.13 117.649 78.206 117.316 78.206H113.929L113.622 78.195C113.165 78.195 113.165 78.019 113.165 77.962C113.165 77.928 113.183 77.834 113.305 77.571L115.494 72.71C115.57 72.541 115.612 72.53 115.615 72.53C115.661 72.533 115.751 72.582 115.857 72.864L117.707 77.538L117.764 77.741V77.743C117.809 77.883 117.818 77.951 117.818 77.984ZM123.904 84.75C123.207 84.626 122.742 84.455 122.52 84.242C122.295 84.03 122.005 83.468 121.658 82.572L121.411 81.966L116.585 69.602C116.492 69.357 116.375 69.238 116.227 69.238C116.081 69.238 115.956 69.36 115.848 69.61L110.077 82.427L109.754 83.166C109.591 83.504 109.382 83.835 109.131 84.149C108.825 84.532 108.649 84.646 108.554 84.675L108.137 84.798C107.985 84.845 107.905 84.947 107.905 85.096C107.905 85.195 107.952 85.362 108.267 85.362C108.281 85.362 108.326 85.362 108.899 85.299C109.014 85.289 109.183 85.283 109.398 85.283C109.854 85.283 110.272 85.292 110.637 85.307L111.712 85.371C111.879 85.38 112.007 85.384 112.097 85.384C112.252 85.384 112.356 85.353 112.416 85.291C112.455 85.249 112.472 85.197 112.468 85.136C112.459 84.974 112.326 84.868 112.074 84.819C111.569 84.709 111.229 84.578 111.062 84.428C110.899 84.283 110.817 84.041 110.817 83.707C110.817 83.349 110.983 82.79 111.31 82.043L112.047 80.39C112.319 79.771 112.479 79.572 112.565 79.515C112.651 79.458 112.894 79.39 113.565 79.39H117.628C118.157 79.39 118.313 79.443 118.358 79.474C118.412 79.513 118.517 79.663 118.708 80.161L119.269 81.647C119.721 82.819 119.95 83.609 119.95 83.999C119.95 84.406 119.782 84.639 119.434 84.706L119.087 84.785C118.816 84.838 118.76 84.97 118.76 85.073C118.76 85.18 118.805 85.362 119.11 85.362C119.19 85.362 119.31 85.346 119.468 85.316C119.724 85.273 120.378 85.251 121.411 85.251C122.399 85.251 123.096 85.27 123.484 85.306C123.712 85.322 123.848 85.329 123.916 85.329C124.211 85.329 124.281 85.198 124.288 85.086C124.297 84.913 124.168 84.801 123.904 84.75ZM179.434 83.952C179.958 83.285 180.223 82.363 180.223 81.215C180.223 79.762 179.888 78.562 179.226 77.648C178.569 76.74 177.71 76.281 176.675 76.281C175.763 76.281 175.019 76.622 174.461 77.297C173.902 77.975 173.618 78.878 173.618 79.981C173.618 81.392 173.973 82.587 174.676 83.533C175.374 84.474 176.253 84.952 177.289 84.952C178.192 84.952 178.913 84.615 179.434 83.952ZM173.383 77.16C174.362 76.2 175.565 75.713 176.96 75.713C178.315 75.713 179.496 76.196 180.469 77.149C181.441 78.102 181.934 79.253 181.934 80.57C181.934 82 181.449 83.199 180.491 84.133C179.534 85.067 178.308 85.54 176.847 85.54C175.416 85.54 174.222 85.079 173.299 84.171C172.375 83.264 171.906 82.086 171.906 80.671C171.906 79.3 172.403 78.119 173.383 77.16ZM135.558 84.762L135.087 84.694C134.565 84.616 134.273 84.348 134.194 83.882L134.159 83.35L134.171 83.01V80.324C134.171 78.94 133.926 77.893 133.442 77.21C132.737 76.217 131.766 75.713 130.555 75.713C129.501 75.713 128.472 76.281 127.493 77.399V76.289C127.493 76.121 127.497 75.983 127.504 75.866C127.515 75.714 127.491 75.608 127.432 75.545C127.339 75.444 127.172 75.459 126.971 75.574C126.911 75.604 126.765 75.676 126.534 75.786L125.94 76.078C125.483 76.292 125.001 76.446 124.505 76.534C124.28 76.579 124.167 76.672 124.167 76.81C124.167 76.91 124.214 76.984 124.297 77.022C124.358 77.057 124.428 77.076 124.507 77.076L124.988 77.064C125.317 77.064 125.542 77.152 125.657 77.324C125.777 77.503 125.839 77.856 125.839 78.373V83.439C125.839 83.859 125.776 84.164 125.652 84.348C125.528 84.532 125.279 84.691 124.908 84.82C124.753 84.884 124.668 84.975 124.659 85.091C124.655 85.164 124.673 85.223 124.712 85.266C124.756 85.313 124.826 85.338 124.92 85.338C124.988 85.338 125.137 85.326 125.378 85.298C125.606 85.264 126.319 85.247 127.502 85.247C128.068 85.247 128.411 85.255 128.547 85.272C128.802 85.314 128.998 85.337 129.129 85.337C129.405 85.337 129.446 85.17 129.446 85.071C129.446 84.898 129.303 84.797 129.021 84.771C128.043 84.712 127.55 84.392 127.515 83.793L127.493 82.894V78.61C127.493 78.16 127.73 77.753 128.196 77.399C128.666 77.043 129.213 76.861 129.82 76.861C130.682 76.861 131.356 77.138 131.822 77.688C132.29 78.238 132.528 79.035 132.528 80.054V83.921C132.528 84.357 132.395 84.603 132.123 84.671L131.787 84.759C131.583 84.806 131.541 84.935 131.541 85.034C131.541 85.141 131.575 85.218 131.647 85.259L131.829 85.302L132.158 85.279H132.586L133.692 85.245C134.352 85.245 134.809 85.262 135.051 85.296C135.265 85.323 135.41 85.335 135.495 85.335C135.668 85.335 135.787 85.3 135.857 85.226C135.904 85.176 135.927 85.111 135.922 85.032C135.913 84.887 135.791 84.793 135.558 84.762ZM142.53 84.105L142.622 84.076C142.745 84.076 142.816 84.142 142.819 84.257C142.819 84.529 142.517 84.807 141.898 85.106C141.301 85.394 140.737 85.54 140.222 85.54C138.469 85.54 137.582 84.616 137.582 82.792V77.189H136.641C136.352 77.189 136.291 77.064 136.291 76.961C136.291 76.836 136.393 76.69 136.604 76.511C137.47 75.775 138.142 75.029 138.6 74.295C138.883 73.834 139 73.772 139.077 73.772C139.175 73.772 139.292 73.833 139.292 74.123L139.25 76.006H141.581C141.895 76.006 142.142 75.948 142.311 75.836C142.43 75.749 142.52 75.701 142.583 75.692C142.633 75.683 142.682 75.694 142.714 75.723C142.751 75.755 142.767 75.808 142.76 75.88C142.76 75.907 142.75 75.971 142.655 76.182L142.398 76.824C142.308 77.066 142.122 77.189 141.85 77.189H139.248V82.776C139.248 83.49 139.348 83.955 139.545 84.161C139.839 84.469 140.266 84.626 140.816 84.626C141.26 84.626 141.64 84.546 141.944 84.386L142.53 84.105Z" fill="black"/>
<path d="M30.013 1.21752e-05C28.5229 -0.00285495 27.0761 0.500739 25.9098 1.4282C24.7435 2.35566 23.927 3.65192 23.5942 5.10439H19.7166V7.29512C19.035 8.79568 17.8598 10.0173 16.3867 10.7565C14.2793 11.8327 11.9396 12.3743 9.57357 12.3338H7.73336V15.3351H0.131555V24.5142H30.013V1.21752e-05ZM30.013 89.0748C26.0469 86.9749 22.2395 84.5879 18.6213 81.933C11.0679 76.5747 5.4929 68.8745 2.76042 60.0258C0.91769 53.6835 -0.0117579 47.111 0.000112271 40.5065V27.5374H30.013V89.0748Z" fill="#D66027"/>
<path d="M59.9164 24.5143H30.013V9.08049e-05C31.5069 -0.00775906 32.9588 0.493555 34.1296 1.42142C35.3004 2.34928 36.1201 3.64833 36.4538 5.10447H40.2437V7.2952C40.9556 8.79375 42.1627 10.0008 43.6612 10.7127C45.7379 11.7919 48.0464 12.3483 50.3867 12.3339H52.227V15.3351H59.8288V24.5143H59.9164ZM30.013 89.0749C33.9862 86.9751 37.8009 84.5881 41.4267 81.9331C48.9801 76.5748 54.555 68.8745 57.2875 60.0259C59.1323 53.6766 60.0618 47.0965 60.0478 40.4846V27.5375H30.013V89.0749Z" fill="#BC4A27"/>
<path d="M11.4138 48.3935L22.9151 56.7621L18.5118 70.2788L30.0131 61.9102V34.8767L25.6316 48.3935H11.4138Z" fill="white"/>
<path d="M41.5143 70.2788L37.1329 56.7621L48.6342 48.3935H34.4164L30.013 34.8767V61.9102L41.5143 70.2788Z" fill="#FCCEB0"/>
<path d="M38.0934 87.7848V87.2731H38.4225C38.464 87.2731 38.5054 87.2768 38.5469 87.2841C38.5908 87.289 38.6285 87.3001 38.6602 87.3173C38.6944 87.3344 38.7212 87.359 38.7407 87.3909C38.7626 87.4228 38.7736 87.4658 38.7736 87.5197C38.7736 87.5836 38.7614 87.6339 38.737 87.6707C38.7151 87.705 38.6846 87.7308 38.6456 87.748C38.6066 87.7652 38.5615 87.7762 38.5103 87.7811C38.4615 87.7836 38.4091 87.7848 38.3531 87.7848H38.0934ZM37.8447 87.0706V88.6794H38.0934V87.9873H38.3567L38.7919 88.6794H39.0588L38.6017 87.9689C38.7212 87.9566 38.8211 87.9173 38.9016 87.8511C38.982 87.7824 39.0223 87.6756 39.0223 87.5308C39.0223 87.3762 38.976 87.2608 38.8833 87.1847C38.7931 87.1087 38.6529 87.0706 38.4628 87.0706H37.8447ZM37.2487 87.8695C37.2487 87.705 37.2767 87.5517 37.3328 87.4093C37.3913 87.267 37.4705 87.1442 37.5705 87.0412C37.6729 86.9356 37.7923 86.8534 37.9289 86.7945C38.0678 86.7332 38.2178 86.7025 38.3787 86.7025C38.5371 86.7025 38.6846 86.7332 38.8211 86.7945C38.9577 86.8534 39.0759 86.9356 39.1759 87.0412C39.2783 87.1442 39.3575 87.267 39.4136 87.4093C39.4721 87.5517 39.5013 87.705 39.5013 87.8695C39.5013 88.0388 39.4721 88.1959 39.4136 88.3407C39.3575 88.483 39.2783 88.607 39.1759 88.7125C39.0759 88.818 38.9577 88.9015 38.8211 88.9629C38.6846 89.0218 38.5371 89.0512 38.3787 89.0512C38.2178 89.0512 38.0678 89.0218 37.9289 88.9629C37.7923 88.9015 37.6729 88.818 37.5705 88.7125C37.4705 88.607 37.3913 88.483 37.3328 88.3407C37.2767 88.1959 37.2487 88.0388 37.2487 87.8695ZM37 87.8695C37 88.0683 37.0366 88.2523 37.1097 88.4217C37.1828 88.5886 37.2816 88.7346 37.4059 88.8598C37.5327 88.9825 37.679 89.0782 37.8447 89.1469C38.013 89.2156 38.1909 89.25 38.3787 89.25C38.5664 89.25 38.7431 89.2156 38.9089 89.1469C39.0747 89.0782 39.2197 88.9825 39.3441 88.8598C39.4684 88.7346 39.5672 88.5886 39.6403 88.4217C39.7134 88.2523 39.75 88.0683 39.75 87.8695C39.75 87.6756 39.7134 87.4952 39.6403 87.3283C39.5672 87.1614 39.4684 87.0166 39.3441 86.8939C39.2197 86.7712 39.0747 86.6755 38.9089 86.6068C38.7431 86.5356 38.5664 86.5 38.3787 86.5C38.1909 86.5 38.013 86.5356 37.8447 86.6068C37.679 86.6755 37.5327 86.7712 37.4059 86.8939C37.2816 87.0166 37.1828 87.1614 37.1097 87.3283C37.0366 87.4952 37 87.6756 37 87.8695Z" fill="black"/>
</svg>
