<svg width="466" height="550" viewBox="0 0 466 550" fill="none" xmlns="http://www.w3.org/2000/svg">
<path d="M232.594 -10.8231C221.148 -10.8782 210.015 -7.07865 200.982 -0.0341043C191.949 7.01044 185.539 16.8916 182.78 28.0239H153.706V45.2137C153.706 45.2137 149.636 58.2275 127.249 71.2412C110.865 79.4426 92.7418 83.5415 74.4311 83.1867H59.8941V106.204H0.970632V176.323H232.594V-10.8231ZM232.594 669C201.871 652.979 172.334 634.771 144.209 614.517C86.0318 573.892 42.841 515.182 21.3225 447.475C7.06235 399.044 -0.119261 348.797 0.00149786 298.302V199.339H232.594V669Z" fill="#E05E1F"/>
<path d="M464.218 176.146H232.594V-10.9994C244.04 -11.0545 255.173 -7.25492 264.206 -0.210373C273.24 6.83417 279.65 16.7153 282.408 27.8476H311.482V45.0375C311.482 45.0375 315.552 58.0512 337.939 71.065C354.323 79.2664 372.446 83.3653 390.757 83.0105H405.003V106.027H464.218V176.146ZM232.594 668.824C263.317 652.802 292.854 634.595 320.979 614.341C379.156 573.716 422.347 515.006 443.866 447.299C458.126 398.868 465.307 348.621 465.187 298.126V199.163H232.594V668.824Z" fill="#B34B19"/>
<path d="M88.3867 358.515L177.547 422.321L143.434 525.46L232.594 461.654V255.376L198.577 358.515H88.3867Z" fill="white"/>
<path d="M321.755 525.46L287.641 422.321L376.802 358.515H266.611L232.594 255.376V461.654L321.755 525.46Z" fill="white"/>
</svg>
