<svg width="120" height="120" viewBox="0 0 120 120" fill="none" xmlns="http://www.w3.org/2000/svg">
<path d="M60 120C93.1371 120 120 93.1371 120 60C120 26.8629 93.1371 0 60 0C26.8629 0 0 26.8629 0 60C0 93.1371 26.8629 120 60 120Z" fill="#FBF9F7"/>
<path fill-rule="evenodd" clip-rule="evenodd" d="M69 61H48V59H69V61Z" fill="#27829E"/>
<path fill-rule="evenodd" clip-rule="evenodd" d="M63.3492 52.2408C63.7686 51.8813 64.3999 51.9299 64.7593 52.3492L71.3171 60L64.7593 67.6508C64.3999 68.0701 63.7686 68.1187 63.3492 67.7593C62.9299 67.3999 62.8813 66.7686 63.2408 66.3492L68.6829 60L63.2408 53.6508C62.8813 53.2315 62.9299 52.6002 63.3492 52.2408Z" fill="#27829E"/>
</svg>
