<svg width="120" height="120" viewBox="0 0 120 120" fill="none" xmlns="http://www.w3.org/2000/svg">
<circle cx="60" cy="60" r="60" fill="#C0511B"/>
<path d="M44.9007 57.0007V45.8007H49.0447C49.9407 45.8007 50.6821 45.95 51.2687 46.2487C51.8554 46.5474 52.2927 46.958 52.5807 47.4807C52.8687 48.0034 53.0127 48.59 53.0127 49.2407C53.0127 49.8594 52.8741 50.43 52.5967 50.9527C52.3194 51.4647 51.8874 51.8807 51.3007 52.2007C50.7141 52.51 49.9621 52.6647 49.0447 52.6647H46.9487V57.0007H44.9007ZM46.9487 51.0007H48.9167C49.6314 51.0007 50.1434 50.846 50.4527 50.5367C50.7727 50.2167 50.9327 49.7847 50.9327 49.2407C50.9327 48.686 50.7727 48.254 50.4527 47.9447C50.1434 47.6247 49.6314 47.4647 48.9167 47.4647H46.9487V51.0007Z" fill="white"/>
<path d="M54.5715 57.0007V45.4807H56.6195V57.0007H54.5715Z" fill="white"/>
<path d="M61.4481 57.1927C60.7654 57.1927 60.2054 57.086 59.7681 56.8727C59.3308 56.6487 59.0054 56.3554 58.7921 55.9927C58.5788 55.63 58.4721 55.23 58.4721 54.7927C58.4721 54.0567 58.7601 53.4594 59.3361 53.0007C59.9121 52.542 60.7761 52.3127 61.9281 52.3127H63.9441V52.1207C63.9441 51.5767 63.7894 51.1767 63.4801 50.9207C63.1708 50.6647 62.7868 50.5367 62.3281 50.5367C61.9121 50.5367 61.5494 50.638 61.2401 50.8407C60.9308 51.0327 60.7388 51.3207 60.6641 51.7047H58.6641C58.7174 51.1287 58.9094 50.6274 59.2401 50.2007C59.5814 49.774 60.0188 49.4487 60.5521 49.2247C61.0854 48.99 61.6828 48.8727 62.3441 48.8727C63.4748 48.8727 64.3654 49.1554 65.0161 49.7207C65.6668 50.286 65.9921 51.086 65.9921 52.1207V57.0007H64.2481L64.0561 55.7207C63.8214 56.1474 63.4908 56.4994 63.0641 56.7767C62.6481 57.054 62.1094 57.1927 61.4481 57.1927ZM61.9121 55.5927C62.4988 55.5927 62.9521 55.4007 63.2721 55.0167C63.6028 54.6327 63.8108 54.158 63.8961 53.5927H62.1521C61.6081 53.5927 61.2188 53.694 60.9841 53.8967C60.7494 54.0887 60.6321 54.3287 60.6321 54.6167C60.6321 54.926 60.7494 55.166 60.9841 55.3367C61.2188 55.5074 61.5281 55.5927 61.9121 55.5927Z" fill="white"/>
<path d="M68.6729 60.5207L70.5129 56.4727H70.0329L66.9449 49.0647H69.1689L71.3929 54.6487L73.7129 49.0647H75.8889L70.8489 60.5207H68.6729Z" fill="white"/>
<path d="M41.7581 73.0007L37.6621 61.8007H39.8541L43.0221 70.9047L46.2061 61.8007H48.3661L44.2701 73.0007H41.7581Z" fill="white"/>
<path d="M50.7536 63.8327C50.3803 63.8327 50.0709 63.7207 49.8256 63.4967C49.5909 63.2727 49.4736 62.99 49.4736 62.6487C49.4736 62.3074 49.5909 62.03 49.8256 61.8167C50.0709 61.5927 50.3803 61.4807 50.7536 61.4807C51.1269 61.4807 51.4309 61.5927 51.6656 61.8167C51.9109 62.03 52.0336 62.3074 52.0336 62.6487C52.0336 62.99 51.9109 63.2727 51.6656 63.4967C51.4309 63.7207 51.1269 63.8327 50.7536 63.8327ZM49.7296 73.0007V65.0647H51.7776V73.0007H49.7296Z" fill="white"/>
<path d="M57.5632 73.1927C56.8166 73.1927 56.1499 73.0114 55.5632 72.6487C54.9766 72.286 54.5126 71.7901 54.1712 71.1607C53.8299 70.5314 53.6592 69.8167 53.6592 69.0167C53.6592 68.2167 53.8299 67.5074 54.1712 66.8887C54.5126 66.2594 54.9766 65.7687 55.5632 65.4167C56.1499 65.054 56.8166 64.8727 57.5632 64.8727C58.1606 64.8727 58.6832 64.9847 59.1312 65.2087C59.5792 65.4327 59.9419 65.7474 60.2192 66.1527V61.4807H62.2672V73.0007H60.4432L60.2192 71.8647C59.9632 72.2167 59.6219 72.526 59.1952 72.7927C58.7792 73.0594 58.2352 73.1927 57.5632 73.1927ZM57.9952 71.4007C58.6566 71.4007 59.1952 71.182 59.6112 70.7447C60.0379 70.2967 60.2512 69.726 60.2512 69.0327C60.2512 68.3394 60.0379 67.774 59.6112 67.3367C59.1952 66.8887 58.6566 66.6647 57.9952 66.6647C57.3446 66.6647 56.8059 66.8834 56.3792 67.3207C55.9526 67.758 55.7392 68.3234 55.7392 69.0167C55.7392 69.71 55.9526 70.2807 56.3792 70.7287C56.8059 71.1767 57.3446 71.4007 57.9952 71.4007Z" fill="white"/>
<path d="M68.2087 73.1927C67.4087 73.1927 66.6994 73.022 66.0807 72.6807C65.4621 72.3394 64.9767 71.8594 64.6247 71.2407C64.2727 70.622 64.0967 69.9074 64.0967 69.0967C64.0967 68.2754 64.2674 67.5447 64.6087 66.9047C64.9607 66.2647 65.4407 65.7687 66.0487 65.4167C66.6674 65.054 67.3927 64.8727 68.2247 64.8727C69.0034 64.8727 69.6914 65.0434 70.2887 65.3847C70.8861 65.726 71.3501 66.1954 71.6807 66.7927C72.0221 67.3794 72.1927 68.0354 72.1927 68.7607C72.1927 68.878 72.1874 69.0007 72.1767 69.1287C72.1767 69.2567 72.1714 69.39 72.1607 69.5287H66.1287C66.1714 70.1474 66.3847 70.6327 66.7687 70.9847C67.1634 71.3367 67.6381 71.5127 68.1927 71.5127C68.6087 71.5127 68.9554 71.422 69.2327 71.2407C69.5207 71.0487 69.7341 70.8034 69.8727 70.5047H71.9527C71.8034 71.006 71.5527 71.4647 71.2007 71.8807C70.8594 72.286 70.4327 72.606 69.9207 72.8407C69.4194 73.0754 68.8487 73.1927 68.2087 73.1927ZM68.2247 66.5367C67.7234 66.5367 67.2807 66.6807 66.8967 66.9687C66.5127 67.246 66.2674 67.6727 66.1607 68.2487H70.1127C70.0807 67.726 69.8887 67.31 69.5367 67.0007C69.1847 66.6914 68.7474 66.5367 68.2247 66.5367Z" fill="white"/>
<path d="M77.7232 73.1927C76.9552 73.1927 76.2619 73.0167 75.6432 72.6647C75.0352 72.3127 74.5499 71.8274 74.1872 71.2087C73.8352 70.5794 73.6592 69.854 73.6592 69.0327C73.6592 68.2114 73.8406 67.4914 74.2032 66.8727C74.5659 66.2434 75.0512 65.7527 75.6592 65.4007C76.2779 65.0487 76.9712 64.8727 77.7392 64.8727C78.4966 64.8727 79.1792 65.0487 79.7872 65.4007C80.4059 65.7527 80.8912 66.2434 81.2432 66.8727C81.6059 67.4914 81.7872 68.2114 81.7872 69.0327C81.7872 69.854 81.6059 70.5794 81.2432 71.2087C80.8912 71.8274 80.4059 72.3127 79.7872 72.6647C79.1686 73.0167 78.4806 73.1927 77.7232 73.1927ZM77.7232 71.4167C78.2566 71.4167 78.7206 71.2194 79.1152 70.8247C79.5099 70.4194 79.7072 69.822 79.7072 69.0327C79.7072 68.2434 79.5099 67.6514 79.1152 67.2567C78.7206 66.8514 78.2619 66.6487 77.7392 66.6487C77.1952 66.6487 76.7259 66.8514 76.3312 67.2567C75.9472 67.6514 75.7552 68.2434 75.7552 69.0327C75.7552 69.822 75.9472 70.4194 76.3312 70.8247C76.7259 71.2194 77.1899 71.4167 77.7232 71.4167Z" fill="white"/>
</svg>
