<svg width="24" height="24" fill="none" xmlns="http://www.w3.org/2000/svg"><g clip-path="url(#clip0)"><path d="M23.779 9.818H12.246v4.642h6.59a5.46 5.46 0 01-.843 2.056 5.58 5.58 0 01-1.6 1.565l3.957 3.012c2.315-2.09 3.651-5.166 3.651-8.82 0-.823-.074-1.645-.223-2.455z" fill="#3E82F1"/><path d="M12.245 19.228c-3.189 0-5.888-2.111-6.851-4.948l-4.091 3.11a12.09 12.09 0 004.514 4.826A12.426 12.426 0 0012.245 24c3.306 0 6.078-1.074 8.104-2.907l-3.957-3.01c-1.097.72-2.5 1.145-4.147 1.145z" fill="#32A753"/><path d="M5.01 12a7.082 7.082 0 01.383-2.28l-4.09-3.108A11.82 11.82 0 000 12c0 1.871.446 3.716 1.302 5.389l4.091-3.11A7.08 7.08 0 015.01 12z" fill="#F9BB00"/><path d="M12.245 4.773c1.798 0 3.412.605 4.681 1.794l3.512-3.442C18.318 1.19 15.546 0 12.245 0 9.975 0 7.75.617 5.817 1.784a12.09 12.09 0 00-4.514 4.827l4.09 3.109c.963-2.836 3.663-4.947 6.852-4.947z" fill="#E74133"/></g><defs><clipPath id="clip0"><path fill="#fff" d="M0 0h24v24H0z"/></clipPath></defs></svg>