<svg width="466" height="550" fill="none" xmlns="http://www.w3.org/2000/svg"><path d="M232.594-10.823A51.004 51.004 0 00200.982-.034a51.197 51.197 0 00-18.202 28.058h-29.074v17.19s-4.07 13.014-26.457 26.027a113.096 113.096 0 01-52.818 11.946H59.894v23.017H.971v70.119h231.623V-10.823zm0 679.823a724.441 724.441 0 01-88.385-54.483C86.032 573.892 42.841 515.182 21.323 447.475A523.712 523.712 0 010 298.302v-98.963h232.593V669z" fill="#E05E1F"/><path d="M464.218 176.146H232.594V-10.999A51.004 51.004 0 01264.206-.21a51.186 51.186 0 0118.202 28.058h29.074v17.19s4.07 13.013 26.457 26.027a113.095 113.095 0 0052.818 11.945h14.246v23.017h59.215v70.119zM232.594 668.824a724.565 724.565 0 0088.385-54.483c58.177-40.625 101.368-99.335 122.887-167.042a523.744 523.744 0 0021.321-149.173v-98.963H232.594v469.661z" fill="#B34B19"/><path d="M88.387 358.515l89.16 63.806-34.113 103.139 89.16-63.806V255.376l-34.017 103.139H88.387zM321.755 525.46l-34.114-103.139 89.161-63.806H266.611l-34.017-103.139v206.278l89.161 63.806z" fill="#fff"/></svg>