<svg width="466" height="703" fill="none" xmlns="http://www.w3.org/2000/svg"><g style="mix-blend-mode:multiply"><path d="M232.594.182c-11.446-.056-22.579 3.867-31.612 11.14-9.033 7.274-15.443 17.477-18.202 28.972h-29.074v17.749s-4.07 13.437-26.457 26.874c-16.384 8.468-34.507 12.7-52.818 12.334H59.894v23.766H.971v72.4h231.623V.182zm0 701.944a720.979 720.979 0 01-88.385-56.256C86.032 603.923 42.841 543.302 21.323 473.393 7.063 423.386-.12 371.504 0 319.366V217.183h232.593v484.943z" fill="#F8F5F2"/><path d="M464.218 193.236H232.594V.001c11.446-.057 22.579 3.866 31.612 11.14 9.034 7.274 15.444 17.476 18.202 28.97h29.074v17.75s4.07 13.437 26.457 26.874c16.384 8.469 34.507 12.7 52.818 12.334h14.246v23.766h59.215v72.401zM232.594 701.944a720.979 720.979 0 0088.385-56.256c58.177-41.947 101.368-102.567 122.887-172.477 14.26-50.007 21.441-101.888 21.321-154.027V217.001H232.594v484.943z" fill="#F5F2EB"/><path d="M88.387 381.538l89.16 65.883-34.113 106.495 89.16-65.883v-212.99l-34.017 106.495H88.387zm233.368 172.378l-34.114-106.495 89.161-65.883H266.611l-34.017-106.495v212.99l89.161 65.883z" fill="#fff"/></g></svg>