<svg width="120" height="120" fill="none" xmlns="http://www.w3.org/2000/svg"><circle cx="60" cy="60" r="60" fill="#C0511B"/><path d="M44.9 57V45.8h4.145c.896 0 1.637.15 2.224.449.586.298 1.024.709 1.312 1.232.288.522.432 1.109.432 1.76 0 .618-.139 1.189-.416 1.712-.278.512-.71.928-1.296 1.248-.587.309-1.339.464-2.256.464h-2.096V57H44.9zm2.049-6h1.968c.714 0 1.226-.154 1.536-.463.32-.32.48-.752.48-1.296 0-.555-.16-.987-.48-1.296-.31-.32-.822-.48-1.536-.48h-1.968V51zm7.623 6V45.48h2.047V57h-2.047zm6.876.193c-.683 0-1.243-.107-1.68-.32-.437-.224-.763-.518-.976-.88a2.324 2.324 0 01-.32-1.2c0-.736.288-1.334.864-1.792.576-.459 1.44-.688 2.592-.688h2.016v-.192c0-.544-.155-.944-.464-1.2-.31-.256-.693-.384-1.152-.384a1.94 1.94 0 00-1.088.304c-.31.192-.501.48-.576.864h-2a2.825 2.825 0 01.576-1.504 3.266 3.266 0 011.312-.976c.533-.235 1.13-.352 1.792-.352 1.13 0 2.021.282 2.672.848.65.565.976 1.365.976 2.4V57h-1.744l-.192-1.28a2.934 2.934 0 01-.992 1.056c-.416.277-.955.416-1.616.416zm.464-1.6c.587 0 1.04-.192 1.36-.576.33-.384.539-.859.624-1.424h-1.744c-.544 0-.933.101-1.168.304a.893.893 0 00-.352.72c0 .309.117.549.352.72.235.17.544.256.928.256zm6.761 4.927l1.84-4.047h-.48l-3.088-7.408h2.224l2.224 5.584 2.32-5.584h2.176l-5.04 11.456h-2.176zM41.758 73l-4.096-11.2h2.192l3.168 9.105 3.184-9.104h2.16L44.27 73h-2.512zm8.996-9.167c-.374 0-.683-.112-.928-.336a1.122 1.122 0 01-.352-.848c0-.342.117-.619.352-.832.245-.224.554-.336.928-.336.373 0 .677.112.912.336.245.213.368.49.368.832a1.1 1.1 0 01-.368.848c-.235.224-.54.336-.912.336zM49.73 73v-7.936h2.048V73H49.73zm7.833.193c-.746 0-1.413-.182-2-.544a3.898 3.898 0 01-1.392-1.488c-.341-.63-.512-1.344-.512-2.144s.17-1.51.512-2.128a3.78 3.78 0 011.392-1.472c.587-.363 1.254-.544 2-.544.598 0 1.12.112 1.568.336.448.224.81.538 1.088.944V61.48h2.048V73h-1.824l-.224-1.136a3.608 3.608 0 01-1.024.928c-.416.266-.96.4-1.632.4zm.432-1.792c.662 0 1.2-.219 1.616-.656.427-.448.64-1.019.64-1.712 0-.694-.213-1.259-.64-1.696-.416-.448-.954-.672-1.616-.672-.65 0-1.19.218-1.616.656-.426.437-.64 1.002-.64 1.696 0 .693.214 1.264.64 1.712.427.448.966.672 1.616.672zm10.214 1.792c-.8 0-1.51-.171-2.128-.512a3.706 3.706 0 01-1.456-1.44c-.352-.619-.528-1.334-.528-2.144 0-.822.17-1.552.512-2.192a3.791 3.791 0 011.44-1.488c.618-.363 1.344-.544 2.176-.544.778 0 1.466.17 2.064.512.597.341 1.061.81 1.392 1.408a3.84 3.84 0 01.512 1.968c0 .117-.006.24-.016.368 0 .128-.006.261-.016.4h-6.032c.042.618.256 1.104.64 1.456.394.352.87.528 1.424.528.416 0 .762-.091 1.04-.272a1.77 1.77 0 00.64-.736h2.08a3.8 3.8 0 01-.752 1.376 3.616 3.616 0 01-1.28.96c-.502.234-1.072.352-1.712.352zm.016-6.656c-.502 0-.944.144-1.328.432-.384.277-.63.704-.736 1.28h3.952c-.032-.523-.224-.939-.576-1.248-.352-.31-.79-.464-1.312-.464zm9.498 6.656c-.768 0-1.461-.176-2.08-.528a3.971 3.971 0 01-1.456-1.456c-.352-.63-.528-1.355-.528-2.176 0-.822.182-1.542.544-2.16.363-.63.848-1.12 1.456-1.472.619-.352 1.312-.528 2.08-.528.758 0 1.44.176 2.048.528a3.787 3.787 0 011.456 1.472c.363.618.544 1.338.544 2.16 0 .821-.181 1.546-.544 2.176a3.818 3.818 0 01-1.456 1.456 4.1 4.1 0 01-2.064.528zm0-1.776c.534 0 .998-.198 1.392-.592.395-.406.592-1.003.592-1.792 0-.79-.197-1.382-.592-1.776-.394-.406-.853-.608-1.376-.608-.544 0-1.013.202-1.408.608-.384.394-.576.986-.576 1.776 0 .789.192 1.386.576 1.792.395.394.859.592 1.392.592z" fill="#fff"/></svg>