<svg xmlns="http://www.w3.org/2000/svg" viewBox="0 0 103.27 152.42"><defs><style>.cls-1{fill:#231f20;}.cls-2{fill:#808285;}.cls-3{fill:#fff;}.cls-4{fill:#d1d3d4;}</style></defs><g id="Layer_2" data-name="Layer 2"><g id="Layer_1-2" data-name="Layer 1"><g id="_2-Tone-Black_" data-name="&lt;2-Tone-Black&gt;"><g id="_Shield_" data-name="&lt;Shield&gt;"><path class="cls-1" d="M.1,42.06H103.21V26.34H90.29V21.25h-3s-6.69.26-11.71-2.71-5.88-5.73-5.9-5.74V8.71H63a11.2,11.2,0,0,0-21.84,0H34.47V12.8s-.95,2.81-5.9,5.74-11.7,2.71-11.7,2.71h-4v5.09H0V42"/><path class="cls-1" d="M.08,75.93A95.31,95.31,0,0,0,3.23,98.26C6.8,112,13.42,124,24,133.75c8.12,7.49,17.49,13.18,27.07,18.55a1.38,1.38,0,0,0,1.12-.07,184.17,184.17,0,0,0,19.31-12.16A71.94,71.94,0,0,0,98.6,102.56c3.41-10.86,4.55-22,4.63-33.36,0-5.92,0-16.24,0-22.17H0c0,8.17-.11,20.73,0,28.9m44.05,7,7.51-23.08,7.5,23.08H83.41L63.77,97.17l7.5,23.08L51.64,106,32,120.25l7.5-23.08L19.86,82.9Z"/><path class="cls-2" d="M51.93,42.06l.29-42A11.18,11.18,0,0,0,41.31,8.77H34.57v4.09s-1,2.81-5.89,5.74S17,21.31,17,21.31H13v5.08H.1V42.06Z"/><path class="cls-2" d="M51.71,106,32.07,120.29l7.5-23.08L19.93,82.94H44.2l7.51-23.08-.09-12.79H.11C.11,55.24,0,67.8.15,76A95.31,95.31,0,0,0,3.3,98.3C6.87,112.07,13.48,124.08,24,133.79c8.12,7.49,17.49,13.18,27.07,18.55a.67.67,0,0,0,.53,0Z"/><polygon class="cls-3" points="83.48 82.9 59.2 82.9 51.7 59.82 44.2 82.9 19.93 82.9 39.57 97.17 32.07 120.25 51.7 105.98 71.34 120.25 63.84 97.17 83.48 82.9"/><polygon class="cls-4" points="51.7 59.82 59.2 82.9 83.48 82.9 63.84 97.17 71.34 120.25 51.7 105.98 51.7 59.82"/></g><path class="cls-1" d="M64.71,147.05a2.7,2.7,0,0,1,1.27.33,2.34,2.34,0,0,1,1,1,2.61,2.61,0,0,1,.35,1.29,2.69,2.69,0,0,1-.34,1.28,2.46,2.46,0,0,1-1,1,2.58,2.58,0,0,1-2.56,0,2.46,2.46,0,0,1-1-1,2.58,2.58,0,0,1-.34-1.28,2.5,2.5,0,0,1,.35-1.29,2.34,2.34,0,0,1,1-1A2.67,2.67,0,0,1,64.71,147.05Zm0,.43a2.16,2.16,0,0,0-1.06.28,2,2,0,0,0-.8.79,2.14,2.14,0,0,0-.29,1.08,2.17,2.17,0,0,0,.28,1.07,2,2,0,0,0,.8.79,2.12,2.12,0,0,0,2.14,0,2,2,0,0,0,.8-.79,2.28,2.28,0,0,0,.28-1.07,2.24,2.24,0,0,0-.29-1.08,2,2,0,0,0-.8-.79A2.18,2.18,0,0,0,64.71,147.48Zm-1.13,3.58v-2.78h1a2.37,2.37,0,0,1,.71.08.71.71,0,0,1,.35.27.72.72,0,0,1-.09.93.82.82,0,0,1-.58.25.9.9,0,0,1,.24.15,3.09,3.09,0,0,1,.41.55l.34.55h-.55l-.24-.44a2.33,2.33,0,0,0-.47-.65.6.6,0,0,0-.36-.09H64v1.18Zm.45-1.57h.54a.93.93,0,0,0,.53-.11.37.37,0,0,0,.14-.31.34.34,0,0,0-.07-.22.37.37,0,0,0-.19-.15,1.5,1.5,0,0,0-.44,0H64Z"/></g></g></g></svg>