<svg id="Layer_1" data-name="Layer 1" xmlns="http://www.w3.org/2000/svg" viewBox="0 0 52.15 152.33"><defs><style>.cls-1{fill:#808285;}</style></defs><g id="Layer_1-2" data-name="Layer 1-2"><g id="_2-Tone-Black_" data-name=" 2-Tone-Black "><g id="_Shield_" data-name=" Shield "><path class="cls-1" d="M51.93,42.06l.29-42A11.17,11.17,0,0,0,41.31,8.77H34.57v4.09s-1,2.81-5.89,5.74S17,21.31,17,21.31H13v5.08H.1V42.06Z" transform="translate(-0.07 -0.06)"/><path class="cls-1" d="M51.71,106,32.07,120.29l7.5-23.08L19.93,82.94H44.2l7.51-23.08-.09-12.79H.11C.11,55.24,0,67.8.15,76A94.92,94.92,0,0,0,3.3,98.3c3.57,13.77,10.18,25.78,20.7,35.49,8.12,7.49,17.49,13.18,27.07,18.55a.7.7,0,0,0,.53,0Z" transform="translate(-0.07 -0.06)"/></g></g></g></svg>