<svg width="202" height="170" fill="none" xmlns="http://www.w3.org/2000/svg"><path d="M50.86 170c-15.257 0-27.549-5.286-36.873-15.858C4.662 143.147 0 128.557 0 110.373c0-23.259 6.781-45.037 20.344-65.336C33.907 24.74 50.65 9.727 70.57 0l6.357 10.784C68.45 17.55 60.821 25.796 54.04 35.522 47.682 45.25 42.596 57.09 38.78 71.045l13.351 3.806c13.563 4.229 24.16 10.572 31.789 19.03C91.972 102.338 96 112.699 96 124.963c0 13.532-4.45 24.527-13.351 32.985C73.749 165.983 63.152 170 50.861 170zm69.127-15.858C129.311 164.714 141.603 170 156.861 170c12.291 0 22.887-4.017 31.788-12.052C197.55 149.49 202 138.495 202 124.963c0-12.264-4.026-22.625-12.079-31.082-7.63-8.458-18.226-14.801-31.789-19.03l-13.351-3.806c3.815-13.956 8.901-25.796 15.259-35.523 6.781-9.726 14.41-17.972 22.887-24.738L176.57 0c-19.921 9.726-36.663 24.739-50.226 45.037C112.781 65.336 106 87.114 106 110.373c0 18.184 4.662 32.774 13.987 43.769z" fill="#216D85"/></svg>